<?xml version="1.0" encoding="utf-8"?>
<!-- Generator: Adobe Illustrator 19.1.0, SVG Export Plug-In . SVG Version: 6.00 Build 0)  -->
<svg version="1.1" id="Layer_1" xmlns="http://www.w3.org/2000/svg" xmlns:xlink="http://www.w3.org/1999/xlink" x="0px" y="0px"
	 viewBox="0 0 150 67" style="enable-background:new 0 0 150 67;" xml:space="preserve">
<style type="text/css">
	.st0{fill:#FFFFFF;}
	.st1{fill:#EC6707;}
	.st2{fill:#E62E2D;}
</style>
<g>
	<g>
		<g>
			<g>
				<path class="st0" d="M40.5,36.1v-3.5h2.3c1.2,0,1.9-0.8,1.9-2.2V18.8c0-3.1-1.5-5.2-4.6-5.2c-4.2,0-6.7,4.1-6.7,11v5.3
					c0,1.8,0.5,2.7,2.1,2.7l2,0.1v3.5H22.7v-3.5l2.3-0.1c1.3-0.1,2-0.9,2-2.2V18.8c0-3.1-1.6-5.2-4.6-5.2c-4.2,0-6.7,4-6.7,10.8v5.7
					c0,1.7,0.6,2.6,2.2,2.6H20v3.5H4.5v-3.5h2.7c1.4,0,2.1-0.8,2.1-2.3V15.9c0-1.4-0.7-2.3-2-2.3H1.4v-3.4h14.1v5.7
					c1.4-4.1,5-6.6,9.2-6.6c4.7,0,7.9,2,8.4,6.4c1.5-4.1,5.1-6.4,9.4-6.4c5,0,8.6,2.5,8.6,7.9v12.6c0,1.8,0.6,2.8,2.1,2.8h2.3v3.5
					H40.5z"/>
			</g>
		</g>
		<g>
			<g>
				<path class="st0" d="M81,36.8c-3.9,0-5.6-1.5-6.5-4.2c-2.2,3-5,4.2-8.9,4.2c-5.4,0-9-2.7-9-7.4c0-5.4,5.1-6.4,9-7.1l2.9-0.5
					c4.1-0.7,5.8-1.6,5.8-4.5c0-3.9-1.9-5.3-5.1-5.3c-2.9,0-4.6,0.9-4.7,2.7c1.1,0.2,2.1,1.1,2.1,2.6c0,1.9-1.3,3.5-4,3.5
					c-2.2,0-4.2-1.3-4.2-4.5c0-4.7,5.2-7.4,11.4-7.4c6.4,0,11.1,2.8,11.1,8.1v13.1c0,2.2,0.7,3,1.7,3c1.1,0,1.8-0.9,1.8-3.1v-2.4
					h3.1v2.7C87.3,33.9,85.3,36.8,81,36.8z M74.2,22.2c-1.2,1.3-3.9,2.3-6.3,2.8c-2.8,0.5-4.2,1.8-4.2,4.1c0,2.4,1.3,4.2,4.2,4.2
					c3.7,0,6.3-3.7,6.3-7.6V22.2z"/>
			</g>
		</g>
		<g>
			<g>
				<path class="st0" d="M102.1,46.8c-8.3,0-14.1-2.7-14.1-6.9c0-2.7,1.8-4.7,5.2-5.5c-2.7-1-3.9-2.6-3.9-4.8c0-2,1.7-4.1,5-5.2
					c-2.7-1.2-4.8-2.9-4.8-6.9c0-4.7,4.1-8.4,12.3-8.4c2.6,0,5.1,0.7,6.7,1.5c-0.4-0.7-0.7-1.6-0.7-2.8c0-3,2.1-5.6,5.5-5.6
					c2.8,0,4.1,1.6,4.1,3.5c0,2.1-1.3,3.1-3.1,3.1c-1.3,0-2.5-0.9-2.9-1.7c-0.4,0.5-0.5,1.5-0.5,2.5c0,1.1,0.3,2.1,1,2.9
					c1.1,0.7,2.1,2.3,2.1,4.7c0,5.7-5.1,8.5-11.9,8.5c-3,0-4.2-0.5-4.9-0.5c-1,0.1-2.1,0.9-2.1,2.1c0,3.3,5.1,2.1,12.9,2.7
					c6.8,0.5,9.7,3.6,9.7,7.5C117.6,44.1,110.9,46.8,102.1,46.8z M102.8,35.5c-2.3-0.1-4-0.1-5.4-0.2c-1.9,0.4-3.8,1.8-3.8,3.9
					c0,3,2.5,4.6,8.5,4.6c6.6,0,9.1-2.3,9.1-4.6C111.1,37,109.8,35.6,102.8,35.5z M101.7,11.9c-4.2,0-5.1,3-5.1,5.7
					c0,2.6,0.9,5.5,5.1,5.5c4.3,0,5.1-2.9,5.1-5.5S105.9,11.9,101.7,11.9z"/>
			</g>
		</g>
		<g>
			<g>
				<path class="st1" d="M136.6,16.9v12h-4.6v-12h-11.8v-4.4h11.8V0.7h4.6v11.7h11.7v4.4H136.6z"/>
			</g>
		</g>
	</g>
	<g>
		<g>
			<path class="st0" d="M44.5,60.1v3.6h-1.9V53.5H46c0.7,0,1.3,0.1,1.8,0.2c0.5,0.2,0.9,0.4,1.2,0.7c0.3,0.3,0.6,0.6,0.7,1
				s0.2,0.8,0.2,1.3c0,0.5-0.1,1-0.2,1.4c-0.2,0.4-0.4,0.8-0.7,1.1c-0.3,0.3-0.7,0.5-1.2,0.7c-0.5,0.2-1.1,0.2-1.7,0.2H44.5z
				 M44.5,58.6H46c0.4,0,0.7,0,0.9-0.1c0.3-0.1,0.5-0.2,0.6-0.4c0.2-0.2,0.3-0.4,0.4-0.6C48,57.3,48,57,48,56.7c0-0.3,0-0.5-0.1-0.7
				c-0.1-0.2-0.2-0.4-0.4-0.6c-0.2-0.2-0.4-0.3-0.6-0.4c-0.3-0.1-0.6-0.1-0.9-0.1h-1.4V58.6z"/>
			<path class="st0" d="M54.2,56.3c0.5,0,1,0.1,1.5,0.3c0.4,0.2,0.8,0.4,1.1,0.7c0.3,0.3,0.6,0.7,0.7,1.2c0.2,0.5,0.3,1,0.3,1.6
				c0,0.6-0.1,1.1-0.3,1.6c-0.2,0.5-0.4,0.9-0.7,1.2c-0.3,0.3-0.7,0.6-1.1,0.8s-0.9,0.3-1.5,0.3c-0.5,0-1-0.1-1.5-0.3
				c-0.4-0.2-0.8-0.4-1.1-0.8c-0.3-0.3-0.6-0.7-0.7-1.2s-0.3-1-0.3-1.6c0-0.6,0.1-1.1,0.3-1.6s0.4-0.9,0.7-1.2
				c0.3-0.3,0.7-0.6,1.1-0.7C53.2,56.4,53.7,56.3,54.2,56.3z M54.2,62.5c0.6,0,1.1-0.2,1.3-0.6s0.4-1,0.4-1.8s-0.1-1.4-0.4-1.8
				c-0.3-0.4-0.7-0.6-1.3-0.6c-0.6,0-1.1,0.2-1.4,0.6c-0.3,0.4-0.4,1-0.4,1.8s0.1,1.4,0.4,1.8C53.2,62.3,53.6,62.5,54.2,62.5z"/>
			<path class="st0" d="M58.3,56.4h1.4c0.1,0,0.2,0,0.3,0.1s0.1,0.1,0.2,0.2l1,3.9c0.1,0.2,0.1,0.4,0.1,0.6c0,0.2,0.1,0.4,0.1,0.6
				c0.1-0.2,0.1-0.4,0.2-0.6c0.1-0.2,0.1-0.4,0.2-0.6l1.2-3.9c0-0.1,0.1-0.2,0.2-0.2s0.2-0.1,0.3-0.1h0.8c0.1,0,0.2,0,0.3,0.1
				s0.1,0.1,0.2,0.2l1.2,4c0.1,0.2,0.1,0.4,0.2,0.6c0,0.2,0.1,0.4,0.1,0.6c0-0.2,0.1-0.4,0.1-0.6s0.1-0.4,0.2-0.6l1.1-3.9
				c0-0.1,0.1-0.2,0.2-0.2s0.2-0.1,0.3-0.1h1.3l-2.3,7.3h-1.4c-0.2,0-0.3-0.1-0.3-0.3l-1.3-4.2c0-0.1-0.1-0.3-0.1-0.4
				s-0.1-0.3-0.1-0.4c0,0.1-0.1,0.3-0.1,0.4c0,0.1-0.1,0.3-0.1,0.4l-1.3,4.2c-0.1,0.2-0.2,0.3-0.4,0.3h-1.3L58.3,56.4z"/>
			<path class="st0" d="M73.4,56.3c0.5,0,0.9,0.1,1.3,0.2s0.7,0.4,1,0.6c0.3,0.3,0.5,0.6,0.7,1c0.2,0.4,0.2,0.9,0.2,1.4
				c0,0.1,0,0.2,0,0.3c0,0.1,0,0.2-0.1,0.2c0,0-0.1,0.1-0.1,0.1c-0.1,0-0.1,0-0.2,0h-4.5c0.1,0.7,0.3,1.3,0.6,1.6
				c0.3,0.4,0.8,0.5,1.4,0.5c0.3,0,0.5,0,0.7-0.1c0.2-0.1,0.4-0.1,0.5-0.2c0.2-0.1,0.3-0.2,0.4-0.2c0.1-0.1,0.2-0.1,0.3-0.1
				c0.1,0,0.1,0,0.2,0c0.1,0,0.1,0.1,0.1,0.1l0.5,0.6c-0.2,0.2-0.4,0.4-0.7,0.6c-0.2,0.2-0.5,0.3-0.8,0.4c-0.3,0.1-0.5,0.2-0.8,0.2
				c-0.3,0-0.5,0.1-0.8,0.1c-0.5,0-1-0.1-1.4-0.3s-0.8-0.4-1.1-0.7c-0.3-0.3-0.6-0.7-0.8-1.2s-0.3-1-0.3-1.7c0-0.5,0.1-1,0.2-1.4
				s0.4-0.8,0.7-1.1s0.7-0.6,1.1-0.8C72.4,56.4,72.9,56.3,73.4,56.3z M73.5,57.6c-0.5,0-0.9,0.1-1.2,0.4c-0.3,0.3-0.5,0.7-0.6,1.2
				H75c0-0.2,0-0.4-0.1-0.6s-0.2-0.4-0.3-0.5s-0.3-0.3-0.5-0.4S73.7,57.6,73.5,57.6z"/>
			<path class="st0" d="M78,63.7v-7.3h1c0.2,0,0.3,0,0.4,0.1c0.1,0.1,0.1,0.2,0.1,0.3l0.1,0.9c0.3-0.4,0.6-0.8,0.9-1.1
				c0.3-0.3,0.7-0.4,1.2-0.4c0.4,0,0.7,0.1,0.9,0.2l-0.2,1.3c0,0.1,0,0.1-0.1,0.2c0,0-0.1,0.1-0.2,0.1c-0.1,0-0.2,0-0.3,0
				c-0.1,0-0.3,0-0.5,0c-0.4,0-0.7,0.1-0.9,0.3c-0.3,0.2-0.5,0.5-0.7,0.9v4.5H78z"/>
			<path class="st0" d="M86.8,56.3c0.5,0,0.9,0.1,1.3,0.2s0.7,0.4,1,0.6c0.3,0.3,0.5,0.6,0.7,1c0.2,0.4,0.2,0.9,0.2,1.4
				c0,0.1,0,0.2,0,0.3c0,0.1,0,0.2-0.1,0.2c0,0-0.1,0.1-0.1,0.1c-0.1,0-0.1,0-0.2,0h-4.5c0.1,0.7,0.3,1.3,0.6,1.6
				c0.3,0.4,0.8,0.5,1.4,0.5c0.3,0,0.5,0,0.7-0.1c0.2-0.1,0.4-0.1,0.5-0.2c0.2-0.1,0.3-0.2,0.4-0.2c0.1-0.1,0.2-0.1,0.3-0.1
				c0.1,0,0.1,0,0.2,0c0.1,0,0.1,0.1,0.1,0.1l0.5,0.6c-0.2,0.2-0.4,0.4-0.7,0.6c-0.2,0.2-0.5,0.3-0.8,0.4c-0.3,0.1-0.5,0.2-0.8,0.2
				c-0.3,0-0.5,0.1-0.8,0.1c-0.5,0-1-0.1-1.4-0.3s-0.8-0.4-1.1-0.7c-0.3-0.3-0.6-0.7-0.8-1.2s-0.3-1-0.3-1.7c0-0.5,0.1-1,0.2-1.4
				s0.4-0.8,0.7-1.1s0.7-0.6,1.1-0.8C85.8,56.4,86.3,56.3,86.8,56.3z M86.9,57.6c-0.5,0-0.9,0.1-1.2,0.4c-0.3,0.3-0.5,0.7-0.6,1.2
				h3.3c0-0.2,0-0.4-0.1-0.6s-0.2-0.4-0.3-0.5s-0.3-0.3-0.5-0.4S87.1,57.6,86.9,57.6z"/>
			<path class="st0" d="M96.5,63.7c-0.2,0-0.4-0.1-0.4-0.3l-0.1-0.7c-0.2,0.2-0.3,0.3-0.5,0.5c-0.2,0.1-0.3,0.3-0.5,0.4
				c-0.2,0.1-0.4,0.2-0.6,0.2c-0.2,0.1-0.5,0.1-0.7,0.1c-0.4,0-0.8-0.1-1.1-0.2c-0.3-0.2-0.6-0.4-0.9-0.7c-0.2-0.3-0.4-0.7-0.6-1.2
				c-0.1-0.5-0.2-1-0.2-1.6c0-0.5,0.1-1,0.2-1.5s0.4-0.9,0.6-1.2s0.6-0.6,1-0.8c0.4-0.2,0.8-0.3,1.3-0.3c0.4,0,0.8,0.1,1,0.2
				c0.3,0.1,0.5,0.3,0.8,0.5v-3.8h1.8v10.6H96.5z M94.2,62.4c0.4,0,0.7-0.1,0.9-0.2c0.3-0.2,0.5-0.4,0.7-0.6v-3.3
				c-0.2-0.2-0.4-0.4-0.6-0.5c-0.2-0.1-0.5-0.1-0.8-0.1c-0.3,0-0.5,0-0.7,0.1c-0.2,0.1-0.4,0.2-0.5,0.5c-0.1,0.2-0.3,0.5-0.3,0.8
				c-0.1,0.3-0.1,0.7-0.1,1.1c0,0.4,0,0.8,0.1,1.1c0.1,0.3,0.2,0.5,0.3,0.7c0.1,0.2,0.3,0.3,0.5,0.4C93.8,62.4,94,62.4,94.2,62.4z"
				/>
			<path class="st0" d="M102.3,63.7V53.2h1.8v4.2c0.3-0.3,0.6-0.6,1-0.7c0.4-0.2,0.8-0.3,1.3-0.3c0.4,0,0.8,0.1,1.1,0.2
				c0.3,0.2,0.6,0.4,0.9,0.7s0.4,0.7,0.6,1.2c0.1,0.5,0.2,1,0.2,1.6c0,0.5-0.1,1-0.2,1.5c-0.1,0.5-0.4,0.9-0.6,1.2s-0.6,0.6-1,0.8
				c-0.4,0.2-0.8,0.3-1.3,0.3c-0.2,0-0.4,0-0.6-0.1s-0.4-0.1-0.5-0.2c-0.2-0.1-0.3-0.2-0.4-0.3c-0.1-0.1-0.3-0.2-0.4-0.4l-0.1,0.5
				c0,0.1-0.1,0.2-0.1,0.3c-0.1,0.1-0.2,0.1-0.3,0.1H102.3z M105.7,57.7c-0.4,0-0.7,0.1-0.9,0.2c-0.3,0.2-0.5,0.4-0.7,0.6v3.3
				c0.2,0.2,0.4,0.4,0.7,0.5s0.5,0.1,0.8,0.1c0.3,0,0.5,0,0.7-0.1c0.2-0.1,0.4-0.3,0.5-0.5c0.1-0.2,0.3-0.5,0.3-0.8
				c0.1-0.3,0.1-0.7,0.1-1.1c0-0.4,0-0.8-0.1-1.1c-0.1-0.3-0.2-0.5-0.3-0.7s-0.3-0.3-0.5-0.4C106.1,57.7,105.9,57.7,105.7,57.7z"/>
			<path class="st0" d="M112.7,65.7c-0.1,0.1-0.1,0.2-0.2,0.3c-0.1,0.1-0.2,0.1-0.4,0.1h-1.3l1.4-2.9l-2.9-6.7h1.5
				c0.1,0,0.3,0,0.3,0.1c0.1,0.1,0.1,0.1,0.2,0.2l1.6,3.8c0.1,0.1,0.1,0.3,0.1,0.4c0,0.1,0.1,0.3,0.1,0.4c0-0.1,0.1-0.3,0.1-0.4
				s0.1-0.3,0.1-0.4l1.5-3.8c0-0.1,0.1-0.2,0.2-0.2s0.2-0.1,0.3-0.1h1.4L112.7,65.7z"/>
		</g>
		<g id="XMLID_7_">
			<g id="XMLID_12_">
				<polygon class="st2" points="123.8,53.2 125.7,59.6 125.8,59.6 127.8,53.2 130.4,53.2 131.8,63.9 129.6,63.9 128.6,56.4 
					128.6,56.4 126.3,63.9 125.2,63.9 122.9,56.3 122.8,56.3 122,63.9 119.7,63.9 121,53.2 				"/>
			</g>
			<g id="XMLID_9_">
				<path class="st2" d="M137.1,53.2c2,0,3.3,1.2,3.3,3.1c0,1-0.4,2-1.1,2.6c-0.5,0.4-1.5,0.8-2.2,0.8l-1.3,0v4.1h-2.3V53.2H137.1z
					 M135.7,57.9h0.9c0.8,0,1.4-0.6,1.4-1.4c0-0.9-0.6-1.4-1.8-1.4c-0.1,0-0.3,0-0.5,0V57.9z"/>
			</g>
			<g id="XMLID_8_">
				<path class="st2" d="M146.9,55.8c-0.9-0.5-1.2-0.7-1.6-0.7c-0.5,0-0.9,0.4-0.9,1c0,0.5,0.4,1,1.4,1.4c0.9,0.4,1.2,0.6,1.6,0.8
					c0.8,0.6,1.2,1.4,1.2,2.4c0,1.8-1.7,3.4-3.7,3.4c-0.5,0-1-0.1-1.5-0.4c-0.6-0.3-1-0.5-1.7-1.2l1.5-1.8c0.7,0.7,1.3,1,1.9,1
					c0.3,0,0.6-0.2,0.8-0.4c0.2-0.2,0.4-0.5,0.4-0.8c0-0.6-0.5-1-1.8-1.5c-1.2-0.4-1.4-0.6-1.9-1.3c-0.4-0.6-0.5-1-0.5-1.6
					c0-1.9,1.3-3.2,3.3-3.2c0.6,0,1.1,0.1,1.6,0.3c0.5,0.2,0.8,0.4,1.4,0.8L146.9,55.8z"/>
			</g>
		</g>
	</g>
</g>
</svg>
