<?xml version="1.0" encoding="utf-8"?>
<!-- Generator: Adobe Illustrator 19.1.0, SVG Export Plug-In . SVG Version: 6.00 Build 0)  -->
<svg version="1.1" id="Layer_1" xmlns="http://www.w3.org/2000/svg" xmlns:xlink="http://www.w3.org/1999/xlink" x="0px" y="0px"
	 viewBox="225.9 84.4 150 67" style="enable-background:new 225.9 84.4 150 67;" xml:space="preserve">
<style type="text/css">
	.st0{fill:#FFFFFF;}
	.st1{fill:#EB690B;}
	.st2{fill:#E4251D;}
</style>
<g>
	<g>
		<g>
			<g>
				<path class="st0" d="M266.5,120.4v-3.5h2.3c1.2,0,1.9-0.8,1.9-2.2V103c0-3.1-1.5-5.2-4.6-5.2c-4.2,0-6.7,4.1-6.7,11v5.4
					c0,1.8,0.5,2.7,2.1,2.7l2,0.1v3.5h-14.8V117l2.3-0.1c1.3-0.1,2-0.9,2-2.2V103c0-3.1-1.6-5.2-4.6-5.2c-4.2,0-6.7,4-6.7,10.8v5.7
					c0,1.7,0.6,2.6,2.2,2.6h2.1v3.5h-15.5v-3.5h2.7c1.4,0,2.1-0.8,2.1-2.3v-14.4c0-1.4-0.7-2.3-2-2.3h-5.9v-3.4h14.1v5.7
					c1.4-4.1,5-6.6,9.2-6.6c4.7,0,7.9,2,8.4,6.4c1.5-4.1,5.1-6.4,9.4-6.4c5,0,8.6,2.5,8.6,7.9v12.6c0,1.8,0.6,2.8,2.1,2.8h2.3v3.5
					H266.5z"/>
			</g>
			<g>
				<path class="st0" d="M307,121c-3.9,0-5.6-1.5-6.5-4.2c-2.2,3-5,4.2-8.9,4.2c-5.4,0-9-2.7-9-7.4c0-5.4,5.1-6.4,9-7.1l2.9-0.5
					c4.1-0.7,5.8-1.6,5.8-4.5c0-3.9-1.9-5.3-5.1-5.3c-2.9,0-4.6,0.9-4.7,2.7c1.1,0.2,2.1,1.1,2.1,2.6c0,1.9-1.3,3.5-4,3.5
					c-2.2,0-4.2-1.3-4.2-4.5c0-4.7,5.2-7.4,11.4-7.4c6.4,0,11.1,2.8,11.1,8.1v13.1c0,2.2,0.7,3,1.7,3c1.1,0,1.8-0.9,1.8-3.1v-2.4
					h3.1v2.7C313.3,118.2,311.3,121,307,121z M300.2,106.5c-1.2,1.3-3.9,2.3-6.3,2.8c-2.8,0.5-4.2,1.8-4.2,4.1
					c0,2.4,1.3,4.2,4.2,4.2c3.7,0,6.3-3.7,6.3-7.6V106.5z"/>
			</g>
			<g>
				<path class="st0" d="M328.1,131.1c-8.3,0-14.1-2.7-14.1-6.9c0-2.7,1.8-4.7,5.2-5.5c-2.7-1-3.9-2.6-3.9-4.8c0-2,1.7-4.1,5-5.2
					c-2.7-1.2-4.8-2.9-4.8-6.9c0-4.7,4.1-8.4,12.3-8.4c2.6,0,5.1,0.7,6.7,1.5c-0.4-0.7-0.7-1.6-0.7-2.8c0-3,2.1-5.6,5.5-5.6
					c2.8,0,4.1,1.6,4.1,3.5c0,2.1-1.3,3.1-3.1,3.1c-1.3,0-2.5-0.9-2.9-1.7c-0.4,0.5-0.5,1.5-0.5,2.5c0,1.1,0.3,2.1,1,2.9
					c1.1,0.7,2.1,2.3,2.1,4.7c0,5.7-5.1,8.5-11.9,8.5c-3,0-4.2-0.5-4.9-0.5c-1,0.1-2.1,0.9-2.1,2.1c0,3.3,5.1,2.1,12.9,2.7
					c6.8,0.5,9.7,3.6,9.7,7.5C343.6,128.3,336.9,131.1,328.1,131.1z M328.8,119.8c-2.3-0.1-4-0.1-5.4-0.2c-1.9,0.4-3.8,1.8-3.8,3.9
					c0,3,2.5,4.6,8.5,4.6c6.6,0,9.1-2.3,9.1-4.6C337.1,121.2,335.8,119.9,328.8,119.8z M327.7,96.2c-4.2,0-5.1,3-5.1,5.7
					c0,2.6,0.9,5.5,5.1,5.5c4.3,0,5.1-2.9,5.1-5.5C332.8,99.2,331.9,96.2,327.7,96.2z"/>
			</g>
			<g>
				<path class="st1" d="M362.6,101.1v12H358v-12h-11.8v-4.4H358V85h4.6v11.7h11.7v4.4H362.6z"/>
			</g>
		</g>
	</g>
	<g>
		<g>
			<path class="st0" d="M275.5,144.9v3.6h-1.3V139h2.8c0.6,0,1.1,0.1,1.6,0.2c0.4,0.1,0.8,0.3,1.1,0.6c0.3,0.3,0.5,0.6,0.7,0.9
				c0.1,0.4,0.2,0.8,0.2,1.2c0,0.4-0.1,0.8-0.2,1.2c-0.2,0.4-0.4,0.7-0.7,0.9c-0.3,0.3-0.7,0.5-1.1,0.6c-0.4,0.1-0.9,0.2-1.5,0.2
				H275.5z M275.5,143.9h1.5c0.4,0,0.7,0,1-0.1c0.3-0.1,0.5-0.2,0.7-0.4c0.2-0.2,0.3-0.4,0.4-0.6c0.1-0.2,0.1-0.5,0.1-0.8
				c0-0.6-0.2-1.1-0.6-1.4c-0.4-0.3-0.9-0.5-1.7-0.5h-1.5V143.9z"/>
			<path class="st0" d="M284.6,141.7c0.5,0,0.9,0.1,1.3,0.2c0.4,0.2,0.7,0.4,1,0.7s0.5,0.7,0.6,1.1c0.1,0.4,0.2,0.9,0.2,1.4
				c0,0.5-0.1,1-0.2,1.4c-0.1,0.4-0.4,0.8-0.6,1.1s-0.6,0.5-1,0.7c-0.4,0.2-0.8,0.2-1.3,0.2s-0.9-0.1-1.3-0.2
				c-0.4-0.2-0.7-0.4-1-0.7c-0.3-0.3-0.5-0.7-0.6-1.1c-0.1-0.4-0.2-0.9-0.2-1.4c0-0.5,0.1-1,0.2-1.4c0.2-0.4,0.4-0.8,0.6-1.1
				c0.3-0.3,0.6-0.5,1-0.7C283.6,141.8,284.1,141.7,284.6,141.7z M284.6,147.7c0.7,0,1.2-0.2,1.5-0.7c0.3-0.4,0.5-1.1,0.5-1.9
				c0-0.8-0.2-1.4-0.5-1.9c-0.3-0.4-0.8-0.7-1.5-0.7c-0.3,0-0.6,0.1-0.9,0.2c-0.2,0.1-0.5,0.3-0.6,0.5c-0.2,0.2-0.3,0.5-0.4,0.8
				c-0.1,0.3-0.1,0.7-0.1,1.1c0,0.4,0,0.8,0.1,1.1c0.1,0.3,0.2,0.6,0.4,0.8c0.2,0.2,0.4,0.4,0.6,0.5
				C283.9,147.6,284.2,147.7,284.6,147.7z"/>
			<path class="st0" d="M288.4,141.8h0.9c0.1,0,0.2,0,0.2,0.1c0.1,0,0.1,0.1,0.1,0.2l1.3,4.3c0,0.2,0.1,0.3,0.1,0.5
				c0,0.1,0.1,0.3,0.1,0.4c0-0.2,0.1-0.3,0.1-0.4c0-0.1,0.1-0.3,0.1-0.5l1.4-4.4c0-0.1,0.1-0.1,0.1-0.2c0.1,0,0.1-0.1,0.2-0.1h0.5
				c0.1,0,0.2,0,0.2,0.1c0.1,0,0.1,0.1,0.1,0.2l1.4,4.4c0,0.2,0.1,0.3,0.1,0.5c0,0.2,0.1,0.3,0.1,0.4c0-0.1,0.1-0.3,0.1-0.5
				c0-0.2,0.1-0.3,0.1-0.4l1.3-4.3c0-0.1,0.1-0.1,0.1-0.2c0.1,0,0.1-0.1,0.2-0.1h0.9l-2.2,6.7h-0.9c-0.1,0-0.2-0.1-0.2-0.2l-1.5-4.6
				c0-0.1-0.1-0.2-0.1-0.3c0-0.1,0-0.2-0.1-0.3c0,0.1,0,0.2-0.1,0.3c0,0.1-0.1,0.2-0.1,0.3l-1.5,4.6c0,0.2-0.1,0.2-0.3,0.2h-0.9
				L288.4,141.8z"/>
			<path class="st0" d="M302.1,141.7c0.4,0,0.8,0.1,1.1,0.2c0.3,0.1,0.6,0.3,0.9,0.6c0.2,0.3,0.4,0.6,0.6,0.9
				c0.1,0.4,0.2,0.8,0.2,1.3c0,0.2,0,0.3-0.1,0.4c0,0.1-0.1,0.1-0.2,0.1h-4.5c0,0.4,0.1,0.8,0.2,1.1c0.1,0.3,0.3,0.6,0.4,0.8
				c0.2,0.2,0.4,0.4,0.7,0.5c0.3,0.1,0.5,0.2,0.9,0.2c0.3,0,0.6,0,0.8-0.1s0.4-0.1,0.6-0.2c0.2-0.1,0.3-0.2,0.4-0.2
				c0.1-0.1,0.2-0.1,0.3-0.1c0.1,0,0.2,0,0.2,0.1l0.3,0.4c-0.1,0.2-0.3,0.3-0.5,0.5c-0.2,0.1-0.4,0.2-0.7,0.3
				c-0.2,0.1-0.5,0.1-0.7,0.2c-0.2,0-0.5,0.1-0.7,0.1c-0.5,0-0.9-0.1-1.3-0.2c-0.4-0.2-0.7-0.4-1-0.7c-0.3-0.3-0.5-0.7-0.7-1.1
				c-0.2-0.4-0.2-1-0.2-1.5c0-0.5,0.1-0.9,0.2-1.3c0.1-0.4,0.4-0.8,0.6-1.1c0.3-0.3,0.6-0.5,1-0.7
				C301.1,141.8,301.6,141.7,302.1,141.7z M302.1,142.5c-0.6,0-1,0.2-1.3,0.5c-0.3,0.3-0.5,0.8-0.6,1.4h3.7c0-0.3,0-0.5-0.1-0.8
				c-0.1-0.2-0.2-0.4-0.3-0.6c-0.1-0.2-0.3-0.3-0.5-0.4C302.6,142.6,302.4,142.5,302.1,142.5z"/>
			<path class="st0" d="M306.3,148.5v-6.7h0.7c0.1,0,0.2,0,0.3,0.1c0,0,0.1,0.1,0.1,0.3l0.1,1c0.2-0.5,0.5-0.8,0.9-1.1
				c0.3-0.3,0.7-0.4,1.2-0.4c0.2,0,0.4,0,0.5,0.1c0.1,0,0.3,0.1,0.4,0.2l-0.2,0.9c0,0.1-0.1,0.2-0.2,0.2c-0.1,0-0.2,0-0.3-0.1
				c-0.1,0-0.3-0.1-0.5-0.1c-0.4,0-0.8,0.1-1,0.4c-0.3,0.2-0.5,0.6-0.7,1v4.3H306.3z"/>
			<path class="st0" d="M314.4,141.7c0.4,0,0.8,0.1,1.1,0.2c0.3,0.1,0.6,0.3,0.9,0.6c0.2,0.3,0.4,0.6,0.6,0.9
				c0.1,0.4,0.2,0.8,0.2,1.3c0,0.2,0,0.3-0.1,0.4c0,0.1-0.1,0.1-0.2,0.1h-4.5c0,0.4,0.1,0.8,0.2,1.1c0.1,0.3,0.3,0.6,0.4,0.8
				c0.2,0.2,0.4,0.4,0.7,0.5c0.3,0.1,0.5,0.2,0.9,0.2c0.3,0,0.6,0,0.8-0.1s0.4-0.1,0.6-0.2c0.2-0.1,0.3-0.2,0.4-0.2
				c0.1-0.1,0.2-0.1,0.3-0.1c0.1,0,0.2,0,0.2,0.1l0.3,0.4c-0.1,0.2-0.3,0.3-0.5,0.5c-0.2,0.1-0.4,0.2-0.7,0.3
				c-0.2,0.1-0.5,0.1-0.7,0.2c-0.2,0-0.5,0.1-0.7,0.1c-0.5,0-0.9-0.1-1.3-0.2s-0.7-0.4-1-0.7c-0.3-0.3-0.5-0.7-0.7-1.1
				c-0.2-0.4-0.2-1-0.2-1.5c0-0.5,0.1-0.9,0.2-1.3s0.4-0.8,0.6-1.1c0.3-0.3,0.6-0.5,1-0.7C313.4,141.8,313.9,141.7,314.4,141.7z
				 M314.4,142.5c-0.6,0-1,0.2-1.3,0.5c-0.3,0.3-0.5,0.8-0.6,1.4h3.7c0-0.3,0-0.5-0.1-0.8c-0.1-0.2-0.2-0.4-0.3-0.6
				c-0.1-0.2-0.3-0.3-0.5-0.4C314.9,142.6,314.7,142.5,314.4,142.5z"/>
			<path class="st0" d="M323.4,148.5c-0.2,0-0.3-0.1-0.3-0.2l-0.1-0.8c-0.3,0.3-0.6,0.6-1,0.8c-0.4,0.2-0.8,0.3-1.3,0.3
				c-0.4,0-0.7-0.1-1-0.2c-0.3-0.1-0.6-0.4-0.8-0.7c-0.2-0.3-0.4-0.6-0.5-1.1c-0.1-0.4-0.2-0.9-0.2-1.5c0-0.5,0.1-1,0.2-1.4
				c0.1-0.4,0.3-0.8,0.6-1.1c0.3-0.3,0.6-0.6,0.9-0.7c0.4-0.2,0.8-0.3,1.2-0.3c0.4,0,0.8,0.1,1.1,0.2c0.3,0.1,0.6,0.3,0.8,0.6v-3.7
				h1.2v9.8H323.4z M321.1,147.6c0.4,0,0.7-0.1,1-0.3c0.3-0.2,0.6-0.4,0.8-0.7v-3.3c-0.2-0.3-0.5-0.5-0.7-0.6
				c-0.3-0.1-0.5-0.2-0.9-0.2c-0.6,0-1.1,0.2-1.4,0.7c-0.3,0.4-0.5,1.1-0.5,1.9c0,0.4,0,0.8,0.1,1.1c0.1,0.3,0.2,0.6,0.3,0.8
				c0.1,0.2,0.3,0.3,0.5,0.4C320.6,147.6,320.8,147.6,321.1,147.6z"/>
			<path class="st0" d="M328.7,148.5v-9.8h1.2v4c0.3-0.3,0.6-0.6,1-0.8c0.4-0.2,0.8-0.3,1.2-0.3c0.4,0,0.7,0.1,1.1,0.2
				c0.3,0.1,0.6,0.4,0.8,0.7c0.2,0.3,0.4,0.6,0.5,1.1c0.1,0.4,0.2,0.9,0.2,1.5c0,0.5-0.1,1-0.2,1.4c-0.1,0.4-0.3,0.8-0.6,1.1
				c-0.3,0.3-0.6,0.6-0.9,0.7c-0.4,0.2-0.8,0.3-1.2,0.3c-0.4,0-0.8-0.1-1.1-0.3c-0.3-0.2-0.6-0.4-0.8-0.7l-0.1,0.6
				c0,0.2-0.1,0.3-0.3,0.3H328.7z M331.7,142.6c-0.4,0-0.7,0.1-1,0.3c-0.3,0.2-0.6,0.4-0.8,0.7v3.3c0.2,0.3,0.4,0.5,0.7,0.6
				c0.3,0.1,0.5,0.2,0.9,0.2c0.6,0,1.1-0.2,1.4-0.7c0.3-0.4,0.5-1.1,0.5-1.9c0-0.4,0-0.8-0.1-1.1c-0.1-0.3-0.2-0.6-0.3-0.8
				c-0.1-0.2-0.3-0.3-0.5-0.4C332.2,142.7,331.9,142.6,331.7,142.6z"/>
			<path class="st0" d="M337.8,150.5c0,0.1-0.1,0.2-0.1,0.2c-0.1,0.1-0.2,0.1-0.3,0.1h-0.9l1.2-2.7l-2.8-6.3h1c0.1,0,0.2,0,0.2,0.1
				c0.1,0.1,0.1,0.1,0.1,0.2l1.8,4.2c0,0.1,0.1,0.2,0.1,0.3c0,0.1,0.1,0.2,0.1,0.3c0-0.1,0.1-0.2,0.1-0.3c0-0.1,0.1-0.2,0.1-0.3
				l1.7-4.2c0-0.1,0.1-0.1,0.1-0.2c0.1,0,0.1-0.1,0.2-0.1h0.9L337.8,150.5z"/>
		</g>
		<g id="XMLID_37_">
			<polygon id="XMLID_42_" class="st2" points="349.8,138.5 351.7,144.5 351.7,144.5 353.6,138.5 356,138.5 357.3,148.5 
				355.3,148.5 354.4,141.4 354.4,141.4 352.2,148.5 351.2,148.5 349,141.4 349,141.4 348.1,148.5 346.1,148.5 347.3,138.5 			"/>
			<path id="XMLID_39_" class="st2" d="M362.3,138.5c1.8,0,3.1,1.2,3.1,2.9c0,1-0.4,1.9-1.1,2.4c-0.5,0.4-1.4,0.8-2,0.8l-1.2,0v3.9
				h-2.1v-10H362.3z M361,142.8h0.8c0.7,0,1.3-0.6,1.3-1.3c0-0.8-0.6-1.3-1.7-1.3c-0.1,0-0.3,0-0.5,0V142.8z"/>
			<path id="XMLID_38_" class="st2" d="M371.4,140.9c-0.8-0.5-1.2-0.6-1.5-0.6c-0.5,0-0.9,0.4-0.9,0.9c0,0.5,0.4,0.9,1.3,1.3
				c0.8,0.3,1.2,0.5,1.5,0.8c0.7,0.5,1.2,1.4,1.2,2.2c0,1.7-1.6,3.2-3.5,3.2c-0.5,0-1-0.1-1.4-0.3c-0.6-0.2-0.9-0.5-1.6-1.1l1.4-1.6
				c0.7,0.7,1.2,1,1.8,1c0.2,0,0.5-0.1,0.8-0.4c0.2-0.2,0.3-0.5,0.3-0.7c0-0.5-0.5-1-1.6-1.4c-1.1-0.4-1.3-0.5-1.8-1.2
				c-0.3-0.6-0.5-1-0.5-1.5c0-1.8,1.3-3,3.1-3c0.5,0,1.1,0.1,1.5,0.2c0.5,0.2,0.7,0.3,1.3,0.8L371.4,140.9z"/>
		</g>
	</g>
</g>
</svg>
