<?xml version="1.0" encoding="UTF-8"?>
<svg width="25px" height="16px" viewBox="0 0 25 16" version="1.1" xmlns="http://www.w3.org/2000/svg" xmlns:xlink="http://www.w3.org/1999/xlink">
    <!-- Generator: Sketch 63.1 (92452) - https://sketch.com -->
    <title>Eye Icon</title>
    <desc>Created with Sketch.</desc>
    <g id="Desktop" stroke="none" stroke-width="1" fill="none" fill-rule="evenodd">
        <g id="14-Try-For-Free---Sign-Up-with-Email---Form" transform="translate(-847.000000, -574.000000)" stroke="#595656" stroke-width="2">
            <g id="Sign-Up-with-Email---Form" transform="translate(432.000000, 170.000000)">
                <g id="Form" transform="translate(132.000000, 187.000000)">
                    <g id="3" transform="translate(0.000000, 195.000000)">
                        <g id="Eye-Icon" transform="translate(284.000000, 20.000000)">
                            <path d="M0.1684,10.6539 C-0.0706,10.3459 -0.0516,9.9159 0.2034,9.6209 C1.5134,8.1109 5.8484,3.6699 11.5704,3.6699 C16.5624,3.6699 20.7244,8.1239 22.0484,9.7119 C22.3124,10.0279 22.3014,10.4919 22.0224,10.7949 C20.6104,12.3289 16.2044,16.6759 11.5704,16.6759 C6.4454,16.6759 1.7544,12.6889 0.1684,10.6539 Z" id="Stroke-1"></path>
                            <path d="M14.9955,10.1729 C14.9955,12.3129 13.2605,14.0479 11.1195,14.0479 C8.9785,14.0479 7.2435,12.3129 7.2435,10.1729 C7.2435,8.0319 8.9785,6.2969 11.1195,6.2969 C13.2605,6.2969 14.9955,8.0319 14.9955,10.1729 Z" id="Stroke-3"></path>
                        </g>
                    </g>
                </g>
            </g>
        </g>
    </g>
</svg>