<?xml version="1.0" encoding="UTF-8"?>
<svg width="20px" height="21px" viewBox="0 0 20 21" version="1.1" xmlns="http://www.w3.org/2000/svg" xmlns:xlink="http://www.w3.org/1999/xlink">
    <!-- Generator: Sketch 63.1 (92452) - https://sketch.com -->
    <title>Fill 23</title>
    <desc>Created with Sketch.</desc>
    <g id="Desktop" stroke="none" stroke-width="1" fill="none" fill-rule="evenodd">
        <g id="13-Try-For-Free---Sign-Up" transform="translate(-628.000000, -306.000000)" fill="#FFFFFE">
            <g id="Sign-Up" transform="translate(432.000000, 170.000000)">
                <g id="Google" transform="translate(153.000000, 123.000000)">
                    <g id="Group" transform="translate(43.000000, 13.000000)">
                        <path d="M0.0062773885,10.41316 C-0.193754114,5.05122023 4.41577465,0.096548202 9.6831535,0.0319594878 C12.3680834,-0.201277536 14.9797623,0.861206813 17.0114203,2.59397848 C16.1781905,3.5272854 15.3305218,4.45054519 14.424041,5.31459866 C12.6360833,4.20726103 10.482223,3.36330184 8.39175293,4.11288975 C5.02009518,5.09104994 2.97857648,9.14722119 4.22595602,12.5083461 C5.25886517,16.0183839 9.44931385,17.9449217 12.7332817,16.4701461 C14.4339017,15.8497356 15.5545007,14.2511649 16.0468318,12.5331051 C14.0975811,12.4936342 12.1486826,12.5183932 10.1997842,12.4638517 C10.1948538,11.282237 10.1899234,10.1052871 10.1948538,8.92367248 C13.4446614,8.91900773 16.6997515,8.9089606 19.9544894,8.93874318 C20.1545209,11.8330352 19.7354408,14.9311405 17.8886711,17.2545401 C15.3597517,20.5711706 10.6868327,21.5443072 6.88623414,20.2435623 C2.85179595,18.8929405 -0.081412478,14.7524451 0.0062773885,10.41316" id="Fill-23"></path>
                    </g>
                </g>
            </g>
        </g>
    </g>
</svg>