<?xml version="1.0" encoding="UTF-8"?>
<svg width="24px" height="18px" viewBox="0 0 24 18" version="1.1" xmlns="http://www.w3.org/2000/svg" xmlns:xlink="http://www.w3.org/1999/xlink">
    <!-- Generator: Sketch 63.1 (92452) - https://sketch.com -->
    <title>Combined shape 10904</title>
    <desc>Created with Sketch.</desc>
    <g id="Desktop" stroke="none" stroke-width="1" fill="none" fill-rule="evenodd" opacity="0.5">
        <g id="07-Case-Studies-Inner-Page" transform="translate(-1151.000000, -1733.000000)" fill="#414141">
            <g id="Case-Study" transform="translate(117.000000, 267.000000)">
                <g id="righ-content-copy" transform="translate(906.000000, 668.000000)">
                    <g id="Social-copy" transform="translate(4.000000, 741.000000)">
                        <g id="Links" transform="translate(0.000000, 54.000000)">
                            <path d="M133.276916,3.81854 C135.61923,3.81854 137.742156,4.7347 139.292692,6.22006 L139.292692,6.22006 L137.351376,8.2827 C136.312572,7.2562 134.870794,6.61972 133.276916,6.61972 C130.111806,6.61972 127.545814,9.12826 127.545814,12.22234 C127.545814,15.31752 130.111728,17.8256 133.276916,17.8256 C135.843168,17.8256 138.015026,16.17648 138.745262,13.90386 L138.745262,13.90386 L133.850086,13.90386 L133.850086,11.28852 L141.873634,11.28852 L141.873634,13.90386 C141.07702,17.7396 137.435928,20.62746 133.276916,20.62746 C128.529186,20.62746 124.680354,16.86454 124.680354,12.22234 C124.680354,7.5819 128.529186,3.81832 133.276916,3.81854 Z M145.44255,9.68028 L145.44255,11.28496 L147.0838,11.28496 L147.0838,12.66042 L145.44255,12.66042 L145.44255,14.2642 L144.035794,14.2642 L144.035794,12.66042 L142.394544,12.66042 L142.394544,11.28496 L144.035794,11.28496 L144.035794,9.68028 L145.44255,9.68028 Z" id="Combined-shape-10904"></path>
                        </g>
                    </g>
                </g>
            </g>
        </g>
    </g>
</svg>