<?xml version="1.0" encoding="UTF-8"?>
<svg width="22px" height="21px" viewBox="0 0 22 21" version="1.1" xmlns="http://www.w3.org/2000/svg" xmlns:xlink="http://www.w3.org/1999/xlink">
    <!-- Generator: Sketch 63.1 (92452) - https://sketch.com -->
    <title>Combined shape 10905</title>
    <desc>Created with Sketch.</desc>
    <g id="Desktop" stroke="none" stroke-width="1" fill="none" fill-rule="evenodd" opacity="0.5">
        <g id="07-Case-Studies-Inner-Page" transform="translate(-1200.000000, -1731.000000)" fill="#414141">
            <g id="Case-Study" transform="translate(117.000000, 267.000000)">
                <g id="righ-content-copy" transform="translate(906.000000, 668.000000)">
                    <g id="Social-copy" transform="translate(4.000000, 741.000000)">
                        <g id="Links" transform="translate(0.000000, 54.000000)">
                            <path d="M188.575984,1.577639 C191.64496,1.577639 194.141776,4.073668 194.141608,7.143156 L194.141608,7.143156 L194.141608,16.179396 C194.141608,19.247987 191.64496,21.74558 188.575984,21.74558 L188.575984,21.74558 L179.539312,21.74558 C176.470528,21.74558 173.973952,19.247987 173.973952,16.179396 L173.973952,16.179396 L173.973952,7.143156 C173.973952,4.073668 176.470528,1.577639 179.539312,1.577639 L179.539312,1.577639 Z M188.575984,3.367062 L179.539312,3.367062 C177.457216,3.367062 175.763368,5.061311 175.763368,7.143156 L175.763368,7.143156 L175.763368,16.179396 C175.763368,18.261448 177.457216,19.955927 179.539312,19.955927 L179.539312,19.955927 L188.57608,19.955927 C190.658248,19.955927 192.35236,18.261448 192.35236,16.179396 L192.352288,16.179396 L192.352288,7.143156 C192.352288,5.061311 190.658152,3.367062 188.575984,3.367062 L188.575984,3.367062 Z M184.057768,6.465576 C186.923248,6.465576 189.254392,8.796304 189.254392,11.661161 C189.254392,14.527122 186.923248,16.85808 184.057768,16.85808 C181.19224,16.85808 178.861072,14.527122 178.861072,11.661161 C178.861072,8.796304 181.19224,6.465576 184.057768,6.465576 Z M184.057768,8.254332 C182.178952,8.254332 180.650464,9.78305 180.650464,11.661161 C180.650464,13.539709 182.179024,15.069324 184.057768,15.069324 C185.93644,15.069324 187.465,13.539709 187.465,11.661161 C187.465,9.78305 185.936536,8.254332 184.057768,8.254332 Z M189.472408,4.947369 C189.818296,4.947369 190.157176,5.087002 190.400584,5.332067 C190.645024,5.575108 190.78468,5.913576 190.78468,6.259841 C190.78468,6.604772 190.645024,6.943424 190.400584,7.188052 C190.155952,7.431116 189.818296,7.572083 189.472408,7.572083 C189.12772,7.572083 188.788864,7.431116 188.545432,7.188052 C188.300896,6.943424 188.160232,6.604772 188.160232,6.259841 C188.160232,5.913576 188.300824,5.575108 188.545432,5.332067 C188.788936,5.087002 189.12772,4.947369 189.472408,4.947369 Z" id="Combined-shape-10905"></path>
                        </g>
                    </g>
                </g>
            </g>
        </g>
    </g>
</svg>