<?xml version="1.0" standalone="no"?>
<!DOCTYPE svg PUBLIC "-//W3C//DTD SVG 1.1//EN" "http://www.w3.org/Graphics/SVG/1.1/DTD/svg11.dtd" >
<svg xmlns="http://www.w3.org/2000/svg">
<metadata>
This is a custom SVG webfont generated by Font Squirrel.
Copyright   : Copyright c The Font Bureau Inc 2003 All rights reserved
Designer    : David Berlow
Foundry     : The Font Bureau Inc
Foundry URL : httpwwwfontbureaucom
</metadata>
<defs>
<font id="BelizioMedium" horiz-adv-x="1726" >
<font-face units-per-em="2048" ascent="1628" descent="-420" />
<missing-glyph horiz-adv-x="708" />
<glyph unicode=" "  horiz-adv-x="708" />
<glyph unicode="&#x09;" horiz-adv-x="708" />
<glyph unicode="&#xa0;" horiz-adv-x="708" />
<glyph unicode="!" horiz-adv-x="684" d="M160 160q0 74 56 126t134 52q74 0 128 -54.5t54 -130t-54 -129t-130 -53.5q-78 0 -133 55.5t-55 133.5zM197 1329q0 283 153 283q156 0 156 -283q0 -51 -6 -112.5t-12.5 -97.5t-20.5 -116.5t-18 -101.5q-29 -172 -29 -452h-137q0 238 -31 452q-6 35 -22.5 130t-24.5 165 t-8 133z" />
<glyph unicode="&#x22;" horiz-adv-x="1026" d="M152 1384q0 88 35.5 144.5t103.5 56.5q70 0 104.5 -55t34.5 -146q0 -88 -43 -282q-27 -123 -27 -289h-137q0 158 -26 289q-4 23 -15.5 72t-15.5 74.5t-9 64t-5 71.5zM590 1384q0 88 36 144.5t103 56.5q70 0 105.5 -55t35.5 -146q0 -106 -43 -282q-29 -123 -28 -289h-137 q0 158 -25 289q-6 31 -19.5 91t-20.5 104t-7 87z" />
<glyph unicode="#" horiz-adv-x="1822" d="M113 473v150h387l153 338h-411v151h481l211 465h162l-213 -465h340l211 465h161l-213 -465h334v-151h-401l-156 -338h428v-150h-495l-215 -473h-160l213 473h-338l-215 -473h-160l215 473h-319zM659 623h340l154 338h-338z" />
<glyph unicode="$" horiz-adv-x="1331" d="M68 389q0 82 55 136.5t135 54.5q72 0 116 -42t44 -112q0 -111 -123 -133q49 -150 291 -164v543l-103 24q-399 96 -399 420q0 197 142.5 316.5t359.5 138.5v96h139v-96q225 -18 360.5 -119.5t135.5 -243.5q0 -203 -177 -202q-78 0 -122.5 42t-44.5 113q0 98 114 131 q-51 133 -266 154v-535l88 -24q236 -66 340 -160t104 -254q0 -215 -144 -336t-388 -137v-244h-139v242q-229 12 -373.5 116.5t-144.5 274.5zM311 1186q0 -92 64.5 -148.5t210.5 -93.5v502q-125 -16 -200 -86t-75 -174zM725 133q293 23 293 266q0 92 -65.5 145.5t-227.5 96.5 v-508z" />
<glyph unicode="%" horiz-adv-x="2115" d="M66 1087q0 213 126.5 350.5t309.5 137.5q180 0 302 -139.5t122 -327.5q0 -209 -125 -354.5t-309 -145.5q-180 0 -303 142t-123 337zM299 1092q0 -365 195 -365q102 0 148 103.5t46 261.5q0 365 -194 364q-100 0 -147.5 -100t-47.5 -264zM627 0l714 1577h154l-721 -1577 h-147zM1198 469q0 213 127 350t311 137q180 0 301 -139t121 -330q0 -207 -125 -352t-309 -145q-180 0 -303 141t-123 338zM1432 473q0 -365 194 -364q102 0 148.5 103t46.5 261q0 362 -194.5 362t-194.5 -362z" />
<glyph unicode="&#x26;" horiz-adv-x="1918" d="M55 471q0 182 116 313t331 207q-27 106 -27 209q0 178 104.5 294t274.5 116q150 0 242 -79t92 -212q0 -219 -391 -367q51 -121 157 -293q90 -143 224 -280q154 166 153 366q0 37 -20.5 57.5t-53.5 20.5l-102 2v140h561v-144h-129q-41 0 -63.5 -23.5t-32.5 -82.5 q-45 -268 -203 -449q123 -98 223 -98q104 0 165 73.5t61 192.5v31h149v-33q0 -205 -116.5 -327.5t-317.5 -122.5q-207 0 -362 122q-195 -125 -469 -124q-242 0 -404 141t-162 350zM356 539q0 -172 107.5 -277.5t279.5 -105.5q106 0 209 61q-123 113 -234.5 282t-174.5 345 q-98 -59 -142.5 -130t-44.5 -175zM709 1288q0 -102 36 -203q113 55 174.5 111.5t61.5 132.5q0 59 -34 98t-95 39q-68 0 -105.5 -49t-37.5 -129z" />
<glyph unicode="'" horiz-adv-x="555" d="M135 1380q0 84 39 141.5t109 57.5q68 0 105.5 -57.5t37.5 -141.5q0 -35 -5 -74.5t-9 -62t-16.5 -76t-16.5 -71.5q-27 -123 -27 -289h-139q0 150 -31 289q-47 214 -47 284z" />
<glyph unicode="(" horiz-adv-x="991" d="M111 709q0 297 184 530.5t496 374.5l59 -92q-422 -242 -422 -842q0 -297 92 -479.5t330 -333.5l-64 -92q-344 180 -509.5 403.5t-165.5 530.5z" />
<glyph unicode=")" horiz-adv-x="991" d="M137 1522l64 92q311 -141 494.5 -374.5t183.5 -530.5q0 -307 -165 -530.5t-509 -403.5l-66 92q238 152 331 334t93 479q0 598 -426 842z" />
<glyph unicode="*" horiz-adv-x="1058" d="M27 1135l108 329l109 -37l-19 -65q-14 -33 27 -47l213 -70v215q0 39 -39 39l-68 2v113h349v-113l-70 -2q-39 0 -39 -39v-215l209 68q39 12 27 47l-21 65l111 37l106 -332l-108 -34l-23 63q-10 33 -49 23l-211 -66l133 -180q25 -31 55 -8l56 39l65 -97l-280 -202l-68 94 l57 41q27 18 5 53l-132 180l-127 -182q-25 -31 7 -53l55 -39l-70 -92l-280 200l65 95l58 -39q33 -20 53 10l131 180l-211 68q-37 12 -49 -23l-25 -65z" />
<glyph unicode="+" horiz-adv-x="1357" d="M143 674v170h453v450h176v-450h451v-170h-451v-463h-176v463h-453z" />
<glyph unicode="," horiz-adv-x="626" d="M94 -172h29q76 0 120 36t44 87q0 43 -49 69l-27 15q-49 25 -70.5 55.5t-21.5 83.5q0 72 50 121t128 49q98 0 159.5 -67.5t61.5 -180.5q0 -168 -109.5 -278.5t-271.5 -110.5h-43v121z" />
<glyph unicode="-" horiz-adv-x="993" d="M160 571v240h665v-240h-665z" />
<glyph unicode="." horiz-adv-x="626" d="M125 162q0 78 55.5 134t133 56t133 -56t55.5 -134t-55.5 -132.5t-133 -54.5t-133 54.5t-55.5 132.5z" />
<glyph unicode="/" horiz-adv-x="987" d="M37 0l756 1577h161l-755 -1577h-162z" />
<glyph unicode="0" horiz-adv-x="1345" d="M70 776q0 344 173 581.5t441 237.5q260 0 426 -231t166 -584q0 -340 -172 -569t-440 -229q-260 0 -427 229t-167 565zM395 780q0 -367 65.5 -512t211 -145t212 145.5t66.5 511.5q0 379 -65.5 528.5t-213 149.5t-212 -148.5t-64.5 -529.5z" />
<glyph unicode="1" horiz-adv-x="1097" d="M68 975v139q193 18 324.5 147.5t166.5 315.5h223v-1327q0 -59 24.5 -86t82.5 -27h153v-137h-868v137h213q57 0 81 26.5t24 86.5v895q-137 -160 -424 -170z" />
<glyph unicode="2" horiz-adv-x="1310" d="M100 0v174q0 162 86 293t318 252q6 4 31.5 19.5t37.5 21.5q166 90 231.5 180t65.5 223q0 139 -69.5 214t-202.5 75q-129 0 -200.5 -66.5t-75.5 -160.5q20 4 47 4q61 -2 101 -46t40 -104q0 -74 -54.5 -120t-133.5 -46q-104 0 -163 65.5t-59 197.5q0 164 149.5 290.5 t393.5 126.5q258 0 406.5 -117.5t148.5 -316.5q0 -166 -113.5 -279.5t-398.5 -238.5q-10 -4 -39 -14.5t-43 -16.5q-328 -150 -336 -352q0 -4 -1 -18.5t-1 -16.5q29 80 106 127t169 47q100 0 235 -88q51 -31 72.5 -44t52.5 -24.5t60 -11.5q117 0 116 197v82h148v-125 q0 -195 -85 -300.5t-235 -105.5q-147 0 -268 101q-113 96 -205 96q-68 0 -107.5 -46t-39.5 -128h-185z" />
<glyph unicode="3" horiz-adv-x="1310" d="M86 367q0 100 54.5 160.5t142.5 60.5q72 0 117.5 -41t45.5 -113q0 -59 -35.5 -95t-103.5 -36q37 -174 271 -174q291 0 290 315q0 281 -297 281h-88v149h86q133 0 207 69t74 206q0 162 -72.5 235.5t-191.5 73.5q-115 0 -177.5 -48t-74.5 -124q68 -2 105.5 -35.5 t37.5 -91.5q0 -68 -45 -107.5t-115 -39.5q-86 0 -139 57t-53 162q0 147 142.5 255.5t361.5 108.5q233 0 383.5 -114.5t150.5 -311.5q0 -152 -92 -241.5t-256 -118.5q170 -27 273.5 -126t103.5 -243q0 -213 -163 -335.5t-443 -122.5q-227 0 -363.5 112.5t-136.5 272.5z" />
<glyph unicode="4" horiz-adv-x="1374" d="M92 446v177l707 954h243v-975h222v-156h-222v-198q0 -59 24 -85t81 -26h127v-137h-819v137h192q57 0 82 25.5t25 85.5v198h-662zM272 602h486v662z" />
<glyph unicode="5" horiz-adv-x="1259" d="M74 371q0 106 57 163.5t148 57.5q80 0 128 -43t48 -117q0 -127 -138 -147q4 -70 71 -121t177 -51q287 0 287 440q0 172 -79 268.5t-222 96.5q-100 0 -155.5 -48.5t-65.5 -113.5h-168l57 825q104 4 127 6q8 -14 43 -30.5t117 -31t188 -14.5q119 0 210 18.5t141.5 40 t58.5 21.5q10 2 15 -3t3 -17q-6 -31 -44 -84t-95 -92q-168 -111 -412 -111q-47 0 -101 5t-87 10.5t-37 9.5l-24 -367q100 121 323 121q229 0 376.5 -143.5t147.5 -360.5q0 -266 -163.5 -422.5t-411.5 -156.5q-240 0 -380 114.5t-140 276.5z" />
<glyph unicode="6" horiz-adv-x="1284" d="M86 741q0 406 183.5 629t455.5 223q190 0 313 -94t123 -235q0 -92 -50 -141.5t-138 -49.5q-80 0 -126 42t-46 114q0 100 108 125q-39 104 -202 104q-143 0 -225.5 -140t-82.5 -419q0 -70 2 -94q41 66 126 113t196 47q221 0 358.5 -132.5t137.5 -340.5q0 -223 -159 -370 t-384 -147q-260 0 -425 209t-165 557zM428 477q0 -180 69.5 -274t182.5 -94q109 0 176.5 94t67.5 268t-70 261t-180 87q-115 0 -180.5 -87t-65.5 -255z" />
<glyph unicode="7" horiz-adv-x="1298" d="M104 989v178q0 209 75 324t216 115q72 0 134.5 -33t99.5 -71t92 -70.5t115 -32.5q78 0 119.5 56t41.5 140h189q6 -12 15 -100t9 -152q0 -143 -52 -252.5t-191 -279.5q-106 -129 -143.5 -231.5t-39.5 -235.5q-4 -217 -35.5 -292t-134.5 -75q-164 0 -163 244 q0 125 40.5 225.5t143.5 219.5q49 61 131 143q170 178 223 275.5t53 226.5q0 45 -10 59q-33 -111 -109.5 -171t-170.5 -60q-68 0 -127.5 29.5t-95 65.5t-77.5 65.5t-79 29.5q-115 0 -115 -207v-133h-154z" />
<glyph unicode="8" horiz-adv-x="1318" d="M86 395q0 250 301 379q-272 127 -272 385q0 186 153.5 310t395.5 124q223 0 374.5 -105.5t151.5 -277.5q0 -240 -264 -360q162 -70 233.5 -173.5t71.5 -215.5q0 -221 -171 -351t-429 -130q-238 0 -391.5 113.5t-153.5 301.5zM330 408q0 -131 81 -208t222 -77 q150 0 229.5 74.5t79.5 201.5q0 158 -225 242q-127 49 -164 49q-55 0 -139 -78.5t-84 -203.5zM379 1208q0 -43 18.5 -78.5t59.5 -65.5t72.5 -46.5t88.5 -42.5q80 -37 140 -49q178 72 178 266q0 115 -72.5 187.5t-208.5 72.5q-121 0 -198.5 -67.5t-77.5 -176.5z" />
<glyph unicode="9" horiz-adv-x="1306" d="M76 1085q0 223 162.5 370t394.5 147q252 0 420 -202t168 -564q0 -418 -182.5 -636t-463.5 -218q-201 0 -325.5 89t-124.5 234q0 90 55.5 139.5t141.5 49.5q72 0 115.5 -43t43.5 -111q0 -49 -29.5 -83t-80.5 -42q37 -104 207 -104q158 0 242.5 140t84.5 419q0 63 -2 88 q-49 -74 -137 -115t-188 -41q-227 0 -364.5 132t-137.5 351zM371 1100q0 -170 70.5 -264.5t181.5 -94.5q127 0 192.5 92.5t65.5 262.5t-71 267t-187 97q-119 0 -185.5 -96t-66.5 -264z" />
<glyph unicode=":" horiz-adv-x="641" d="M131 168q0 78 56.5 131t136.5 53q76 0 132 -56t56 -132q0 -78 -55.5 -132.5t-132.5 -54.5q-82 0 -137.5 55.5t-55.5 135.5zM131 872q0 76 57.5 130.5t135.5 54.5q76 0 132 -57.5t56 -133.5q0 -78 -55.5 -132t-132.5 -54q-80 0 -136.5 55t-56.5 137z" />
<glyph unicode=";" horiz-adv-x="641" d="M104 -172h31q76 0 119 36t43 87q0 45 -47 69l-29 15q-90 45 -90 139q0 72 50 121t128 49q98 0 158.5 -66.5t60.5 -181.5q0 -168 -108.5 -278.5t-269.5 -110.5h-46v121zM135 872q0 76 57.5 130.5t137.5 54.5q76 0 131 -56.5t55 -134.5t-55 -132t-133 -54q-80 0 -136.5 55 t-56.5 137z" />
<glyph unicode="&#x3c;" horiz-adv-x="1263" d="M219 625v145l699 541l98 -133l-592 -465l604 -443l-106 -159z" />
<glyph unicode="=" horiz-adv-x="1263" d="M152 428v168h978v-168h-978zM152 791v167h978v-167h-978z" />
<glyph unicode="&#x3e;" horiz-adv-x="1263" d="M213 246l596 438l-594 469l109 154l694 -537v-145l-703 -514z" />
<glyph unicode="?" horiz-adv-x="1138" d="M92 1247q0 147 129 253t322 106q215 0 351 -104.5t136 -276.5q0 -123 -55 -211t-184 -183q-133 -98 -182.5 -158.5t-49.5 -135.5l4 -84q-137 -6 -155 -7q-10 57 -11 109q0 102 48.5 183t170.5 192q131 119 132 303q0 113 -60.5 177.5t-161.5 64.5q-94 0 -150.5 -40 t-68.5 -104q76 0 119 -39t43 -104q0 -70 -49 -114t-129 -44q-88 0 -143.5 57.5t-55.5 159.5zM309 154q0 74 56.5 126t132 52t129 -53.5t53.5 -129t-52.5 -127t-130 -51.5t-133 53.5t-55.5 129.5z" />
<glyph unicode="@" horiz-adv-x="2107" d="M117 678q0 412 286.5 672t718.5 260q383 0 634 -193.5t251 -531.5q0 -293 -155.5 -479.5t-378.5 -186.5q-88 0 -141.5 50t-45.5 139q-82 -197 -340 -197q-182 0 -294.5 108.5t-112.5 325.5q0 244 154.5 406.5t363.5 162.5q168 0 250 -116l43 104h198l-129 -659 q-41 -203 78 -203q156 0 267.5 146.5t111.5 396.5q0 283 -206 445.5t-548 162.5q-174 0 -331.5 -57.5t-277.5 -160t-190.5 -259t-70.5 -340.5q0 -336 226.5 -538t584.5 -202q246 0 419 63.5t341 205.5l65 -101q-193 -152 -382 -218t-443 -66q-422 0 -684 232.5t-262 627.5z M795 610q0 -147 44 -212.5t138 -65.5q80 0 137 53t76 160l78 436q-57 113 -183 113q-115 0 -202.5 -143.5t-87.5 -340.5z" />
<glyph unicode="A" horiz-adv-x="1847" d="M18 0v145h45q86 0 121 25t70 113l512 1294h315l512 -1286q35 -88 70 -117t106 -29h62v-145h-799v145h154q72 0 88 28q7 11 6 27q0 24 -14 58l-82 215h-662l-80 -205q-18 -47 -18 -74q0 -15 6 -24q16 -25 94 -25h142v-145h-648zM578 621h548l-272 704z" />
<glyph unicode="B" horiz-adv-x="1677" d="M72 0v145h143q61 0 80.5 24t19.5 87v1051q0 68 -20.5 96.5t-79.5 28.5h-143v145h876q285 0 443.5 -102.5t158.5 -303.5q0 -152 -92 -246t-246 -118q168 -12 276.5 -117.5t108.5 -267.5q0 -139 -89 -237.5t-215 -141.5t-269 -43h-952zM641 254q0 -61 25.5 -86t89.5 -25 h174q147 0 225 76t78 217q0 135 -81 212t-214 77h-297v-471zM641 870h266q139 0 218 76t79 209q0 135 -75.5 207t-213.5 72h-180q-59 0 -76.5 -21.5t-17.5 -89.5v-453z" />
<glyph unicode="C" horiz-adv-x="1665" d="M84 793q0 164 52 310t150.5 261t253 181.5t345.5 66.5q100 0 193 -26.5t154.5 -55.5t76.5 -31q29 -4 44 17.5t21 72.5h152v-608h-170v49q0 176 -124 297t-314 121q-459 0 -459 -651q0 -674 465 -674q207 0 322.5 117.5t125.5 339.5l2 43h170v-41q0 -279 -179 -449 t-484 -170q-254 0 -438.5 116t-271.5 300.5t-87 413.5z" />
<glyph unicode="D" horiz-adv-x="1880" d="M72 0v145h149q59 0 76.5 31t17.5 100v1041q0 68 -17 91.5t-77 23.5h-149v145h893q369 0 607 -210t238 -566q0 -365 -230 -583t-605 -218h-903zM643 293q0 -78 22.5 -110.5t88.5 -32.5h180q279 0 393.5 163.5t114.5 489.5q0 281 -130 454t-360 173h-196q-68 0 -90.5 -26 t-22.5 -101v-1010z" />
<glyph unicode="E" horiz-adv-x="1679" d="M72 0v145h143q59 0 79.5 24t20.5 87v1065q0 63 -20.5 87t-79.5 24h-143v145h1511v-588h-162l-2 141q-2 301 -295 302h-381q-61 0 -81.5 -24t-20.5 -87v-447h209q139 0 143 158l4 148h150v-772h-150l-4 188q-2 131 -145 131h-207v-471q0 -63 18.5 -87t79.5 -24h332 q199 0 276.5 76t86.5 291l4 102h161v-614h-1527z" />
<glyph unicode="F" horiz-adv-x="1622" d="M72 0v145h143q59 0 79.5 27t20.5 92v1039q0 66 -21.5 97.5t-78.5 31.5h-143v145h1493v-621h-166l-2 179q-2 166 -79 231.5t-231 65.5h-344q-59 0 -79.5 -29t-20.5 -96v-445h178q68 0 110 46t44 120l4 143h147v-763h-147l-4 147q-4 162 -154 162h-178v-461q0 -63 21.5 -87 t83.5 -24h215v-145h-891z" />
<glyph unicode="G" horiz-adv-x="1824" d="M76 793q0 340 222 579.5t579 239.5q106 0 196 -24.5t154.5 -54.5t81.5 -34q29 -6 45 18.5t18 71.5h152v-608h-170l-6 94q-12 178 -125 275.5t-310 97.5q-211 0 -336.5 -157.5t-125.5 -491.5t124.5 -505t337.5 -171q154 0 255.5 93t101.5 239v45q0 72 -22.5 100.5 t-84.5 28.5h-190v147h807v-141h-101q-100 0 -100 -123v-516h-135l-68 194q-160 -227 -497 -227q-356 0 -579.5 239t-223.5 591z" />
<glyph unicode="H" horiz-adv-x="2007" d="M72 0v145h143q59 0 79.5 27t20.5 92v1051q0 63 -20.5 90t-79.5 27h-143v145h802v-145h-131q-59 0 -79.5 -26t-20.5 -91v-430h723v430q0 63 -20.5 90t-79.5 27h-129v145h800v-145h-145q-59 0 -79.5 -27t-20.5 -90v-1051q0 -66 20.5 -92.5t79.5 -26.5h145v-145h-800v145 h129q59 0 79.5 27t20.5 92v457h-723v-457q0 -66 19.5 -92.5t80.5 -26.5h131v-145h-802z" />
<glyph unicode="I" horiz-adv-x="956" d="M72 0v145h149q59 0 76.5 22.5t17.5 88.5v1051q0 68 -20.5 96.5t-79.5 28.5h-143v145h813v-145h-146q-59 0 -76.5 -26t-17.5 -91v-1051q0 -66 20.5 -92.5t79.5 -26.5h140v-145h-813z" />
<glyph unicode="J" horiz-adv-x="1269" d="M41 328q0 98 57.5 162.5t151.5 64.5q86 0 134 -45t48 -119q0 -104 -94 -135q-25 -10 -25 -29q0 -37 48.5 -67.5t121.5 -30.5q188 0 189 279v899q0 66 -23.5 95.5t-85.5 29.5h-178v145h840v-145h-117q-61 0 -85 -30t-24 -95v-867q0 -213 -136 -339t-357 -126 q-203 0 -334 97.5t-131 255.5z" />
<glyph unicode="K" horiz-adv-x="1955" d="M72 0v145h143q59 0 79.5 27t20.5 92v1051q0 63 -20.5 90t-79.5 27h-143v145h813v-145h-152q-57 0 -74.5 -26t-17.5 -91v-539l604 543q45 39 45 72q0 41 -59 41h-111v145h711v-145h-111q-53 0 -94 -18.5t-100 -72.5l-447 -389l557 -688q96 -119 201 -119h88v-145h-842v145 h134q76 0 75 48q0 33 -32 71l-406 490l-213 -189v-303q0 -68 16.5 -92.5t75.5 -24.5h135v-145h-796z" />
<glyph unicode="L" horiz-adv-x="1599" d="M72 0v145h143q59 0 79.5 27t20.5 92v1051q0 63 -20.5 90t-79.5 27h-143v145h868v-145h-197q-59 0 -79.5 -26t-20.5 -91v-1051q0 -72 20.5 -95.5t92.5 -23.5h276q180 0 259 85t85 290l4 146h160v-666h-1468z" />
<glyph unicode="M" horiz-adv-x="2392" d="M72 0v145h125q119 0 118 140v1011q0 135 -118 136h-125v145h667l465 -1147l451 1147h657v-145h-135q-59 0 -79.5 -26t-20.5 -91v-1051q0 -66 19.5 -92.5t80.5 -26.5h135v-145h-796v145h141q61 0 81.5 27t20.5 92v1092l-545 -1356h-170l-550 1354v-1069q0 -139 118 -140 h125v-145h-665z" />
<glyph unicode="N" horiz-adv-x="2017" d="M70 0v145h131q115 0 114 131v1020q0 135 -114 136h-131v145h600l850 -1258v984q0 129 -115 129h-170v145h719v-145h-125q-115 0 -115 -129v-1303h-344l-862 1255v-979q0 -131 113 -131h165v-145h-716z" />
<glyph unicode="O" horiz-adv-x="1816" d="M76 795q0 344 233.5 579.5t601.5 235.5q371 0 600.5 -234.5t229.5 -574.5q0 -225 -99.5 -414.5t-292 -306.5t-442.5 -117q-375 0 -603 242t-228 590zM449 801q0 -328 123.5 -502t340.5 -174t336 172t119 498q0 317 -124 486t-341 169q-207 0 -330.5 -166t-123.5 -483z " />
<glyph unicode="P" horiz-adv-x="1622" d="M72 0v145h131q113 0 112 131v1008q0 76 -25.5 112t-86.5 36h-131v145h856q299 0 463.5 -120t164.5 -327q0 -225 -154.5 -348t-438.5 -123h-320v-383q0 -131 115 -131h205v-145h-891zM643 815h207q186 0 263 82t77 229q0 143 -77 226.5t-230 83.5h-119q-121 0 -121 -133 v-488z" />
<glyph unicode="Q" horiz-adv-x="1824" d="M76 795q0 344 231.5 580.5t597.5 236.5q248 0 438.5 -111.5t289 -295t98.5 -404.5q0 -238 -113 -435.5t-313 -302.5q39 -109 80.5 -147.5t107.5 -38.5q70 0 108.5 58.5t38.5 146.5v20h142v-34q0 -158 -92.5 -258.5t-249.5 -100.5q-322 0 -385 275q-86 -14 -156 -15 q-373 0 -598 239t-225 587zM446 801q0 -190 72 -338q33 86 114 136t183 50q137 0 233.5 -74.5t161.5 -240.5q152 162 152 461q0 317 -125 487t-340 170q-207 0 -329 -167t-122 -484zM580 322q104 -190 327 -191q61 0 117 12q-63 346 -266 346q-68 0 -120 -41.5t-58 -125.5z " />
<glyph unicode="R" horiz-adv-x="1855" d="M72 0v145h131q113 0 112 131v1008q0 76 -25.5 112t-86.5 36h-131v145h921q276 0 438 -113.5t162 -312.5q0 -172 -116.5 -266t-302.5 -127q150 -25 226.5 -128.5t80.5 -254.5l2 -76q2 -96 25.5 -135t70.5 -39q51 0 73.5 39t22.5 127v74h133v-72q0 -160 -77.5 -245 t-229.5 -85q-135 0 -226 65.5t-104 211.5q-4 47 -24 204q-31 256 -283 256h-223v-428q0 -127 115 -127h133v-145h-817zM641 852h231q362 0 363 291q0 147 -96.5 220t-251.5 73h-131q-63 0 -89 -32t-26 -101v-451z" />
<glyph unicode="S" horiz-adv-x="1501" d="M104 1128q0 207 165 344.5t433 137.5q115 0 202 -25.5t139.5 -51.5t82.5 -26q59 0 62 74h147v-561h-164v49q0 168 -115.5 273.5t-320.5 105.5q-147 0 -239.5 -59.5t-92.5 -180.5q0 -104 73 -154t267 -89l211 -43q219 -45 337 -146.5t118 -294.5q0 -233 -181 -367 t-442 -134q-117 0 -212 25.5t-156.5 51t-95.5 25.5q-57 0 -58 -82h-141v602h162v-37q0 -197 126 -311.5t334 -114.5q172 0 272.5 72t100.5 197q0 96 -81 149t-300 96l-198 39q-201 39 -318 147.5t-117 288.5z" />
<glyph unicode="T" horiz-adv-x="1697" d="M72 913v664h1556v-664h-164v265q0 123 -68.5 189.5t-193.5 66.5h-186v-1149q0 -139 121 -140h204v-145h-979v145h203q121 0 121 140v1149h-188q-125 0 -193.5 -67t-68.5 -189v-265h-164z" />
<glyph unicode="U" horiz-adv-x="1875" d="M59 1432v145h785v-145h-139q-57 0 -78 -27t-21 -90v-764q0 -215 109.5 -312.5t296.5 -97.5q193 0 295 108.5t102 309.5v750q0 66 -21.5 94.5t-78.5 28.5h-133v145h634v-145h-110q-61 0 -81 -29t-20 -96v-701q0 -639 -638 -639q-680 0 -680 600v748q0 66 -19.5 91.5 t-79.5 25.5h-123z" />
<glyph unicode="V" horiz-adv-x="1808" d="M14 1432v145l779 -4v-148h-154q-74 0 -74 -58q0 -24 13 -58l393 -1055l391 1042q13 37 13 64q0 19 -7 33q-16 33 -65 32h-138v148l631 4v-145h-70q-70 0 -105.5 -30t-61.5 -102l-498 -1300h-324l-493 1292q-31 82 -62.5 111t-105.5 29h-62z" />
<glyph unicode="W" horiz-adv-x="2613" d="M14 1432v145l738 -4v-148h-101q-68 0 -85 -24q-8 -11 -7 -28q0 -22 12 -56l375 -1051l279 766l-117 307q-20 53 -44 69.5t-81 16.5h-70v148h725v-148h-114q-68 0 -84 -25q-7 -11 -7 -28q0 -24 13 -59l371 -1051l374 1049q13 35 14 59q0 16 -6 28q-15 28 -79 27h-135v148 l612 4v-145h-64q-61 0 -96 -30t-59 -99l-471 -1303h-320l-272 770l-285 -770h-319l-465 1292q-27 76 -65 108t-103 32h-64z" />
<glyph unicode="X" horiz-adv-x="1794" d="M23 0v145h51q115 0 188 88l463 547l-430 549q-80 102 -199 103h-55v145l795 -4v-148h-97q-61 0 -74 -33q-4 -9 -4 -19q0 -27 27 -60l270 -342l297 360q25 31 25 54q0 7 -2 14q-10 27 -57 26h-127v148l651 4v-145h-84q-94 0 -170 -91l-422 -505l459 -580q88 -111 184 -111 h57v-145h-796v145h139q49 0 62 26q3 7 3 15q0 23 -26 58l-313 397l-314 -383q-29 -34 -29 -62q0 -8 3 -16q10 -35 65 -35h113v-145h-653z" />
<glyph unicode="Y" horiz-adv-x="1763" d="M18 1432v145l785 -4v-150h-125q-57 0 -73 -30q-5 -10 -5 -23q0 -27 23 -65l340 -547l342 563q16 25 16 47q0 13 -6 25q-16 31 -70 30h-135v150l633 4v-145h-76q-96 0 -147 -82l-473 -779v-286q0 -139 120 -140h213v-145h-987v145h209q117 0 117 140v293l-473 759 q-59 94 -162 95h-66z" />
<glyph unicode="Z" horiz-adv-x="1613" d="M84 0v174l1071 1258h-528q-188 0 -267 -82t-79 -271v-86h-160v584h1413v-164l-1081 -1268h534q209 0 294 85t85 274v108h158v-612h-1440z" />
<glyph unicode="[" horiz-adv-x="954" d="M217 -330v1907h571v-141h-206q-51 0 -74 -34t-23 -112v-1339q0 -78 22.5 -112t74.5 -34h206v-135h-571z" />
<glyph unicode="\" horiz-adv-x="993" d="M37 1577h162l755 -1577h-161z" />
<glyph unicode="]" horiz-adv-x="954" d="M168 -195h205q53 0 74.5 33t21.5 113v1339q0 78 -22.5 112t-73.5 34h-205v141h569v-1907h-569v135z" />
<glyph unicode="^" horiz-adv-x="1257" d="M129 1137l379 440h248l379 -440l-117 -99l-387 353l-385 -353z" />
<glyph unicode="_" horiz-adv-x="1351" d="M0 -236h1352v-161h-1352v161z" />
<glyph unicode="`" horiz-adv-x="972" d="M229 1346l148 176l282 -299l-88 -107z" />
<glyph unicode="a" horiz-adv-x="1271" d="M68 258q0 59 23.5 105.5t53 73t84 47t89 28.5t94.5 18l112 21q125 23 173 57.5t48 114.5q0 205 -196 205q-176 0 -182 -103q33 -6 56 -32.5t23 -67.5q0 -59 -38.5 -96t-114.5 -37q-70 0 -115 43t-45 129q0 131 126 208t310 77q190 0 308 -81t118 -231v-504 q0 -115 64 -114q70 0 69 119v92h121v-105q0 -111 -62.5 -180.5t-180.5 -69.5q-109 0 -166.5 40t-83.5 122q-119 -162 -342 -162q-160 0 -253 75t-93 208zM340 270q0 -74 40 -116.5t122 -42.5q102 0 171.5 87t69.5 203v134q-70 -76 -241 -107q-162 -31 -162 -158z" />
<glyph unicode="b" horiz-adv-x="1290" d="M-18 1450v127l434 6v-725q41 70 128 122t214 52q197 0 324.5 -133t127.5 -381q0 -242 -140 -391.5t-355 -149.5q-262 0 -361 199l-39 -176l-149 2v1362q0 86 -80 86h-104zM416 649q-4 -90 -4 -153q0 -79 6 -115q43 -266 252 -266q244 0 243 413q0 174 -62.5 266.5 t-178.5 92.5q-98 0 -168 -70t-88 -168z" />
<glyph unicode="c" horiz-adv-x="1118" d="M66 516q0 229 157.5 376.5t386.5 147.5q176 0 300 -90t124 -223q0 -88 -44 -142.5t-132 -54.5q-72 0 -116 40t-44 102q0 49 34 79.5t77 34.5q-14 53 -65.5 89t-137.5 36q-121 0 -183.5 -102t-62.5 -295q0 -195 72 -296t207 -101q117 0 188.5 72.5t83.5 175.5h154 q0 -4 -1 -8.5t-1 -8.5q-8 -158 -127 -262t-326 -104q-242 0 -393 149t-151 385z" />
<glyph unicode="d" horiz-adv-x="1341" d="M72 504q0 242 144 384t345 142q104 0 186 -44t127 -109v477q0 47 -20 65.5t-66 18.5h-151v135l489 2v-1362q0 -78 72 -78l109 -2v-133l-420 -6v170q-37 -86 -132.5 -139.5t-219.5 -53.5q-203 0 -333 144.5t-130 388.5zM358 524q0 -197 70 -299t188 -102q109 0 175.5 78 t80.5 209q6 64 6 123q0 47 -4 92q-10 121 -81.5 193.5t-176.5 72.5q-117 0 -187.5 -96.5t-70.5 -270.5z" />
<glyph unicode="e" horiz-adv-x="1165" d="M66 508q0 231 154.5 381.5t387.5 150.5q211 0 350.5 -135t141.5 -360v-64h-748q2 -25 2 -37q2 -143 79 -233t210 -90q127 0 201 71.5t82 172.5h166q-4 -154 -131 -268.5t-345 -114.5q-236 0 -393 144t-157 382zM356 596h482q0 12 -2 16q0 123 -56.5 208t-177.5 85 q-117 0 -179.5 -85t-66.5 -206v-18z" />
<glyph unicode="f" horiz-adv-x="831" d="M61 0v131l134 4q35 2 48 15.5t13 52.5v661h-188v131h135q55 0 55 60v73q0 221 102.5 345t301.5 124q156 0 243.5 -76.5t87.5 -189.5q0 -76 -42 -120t-109 -44q-61 0 -100.5 36t-39.5 87q0 70 56 101q16 10 16 22q0 63 -112 64q-74 0 -113 -53.5t-39 -147.5v-281h240v-131 h-242v-647q0 -49 16.5 -64.5t63.5 -17.5l166 -4v-131h-693z" />
<glyph unicode="g" horiz-adv-x="1234" d="M55 -154q0 164 201 211q-150 55 -150 185q0 61 49.5 115.5t143.5 84.5q-88 39 -136 98.5t-48 166.5q0 141 122.5 232t350.5 91q145 0 256 -59q-27 43 -27 106q0 90 58.5 152.5t154.5 62.5q78 0 118 -37.5t40 -97t-33 -90.5t-88 -31q-37 0 -67.5 19.5t-43.5 46.5 q-20 -25 -20 -94q0 -63 37 -113q80 -53 80 -182q0 -158 -127 -243t-330 -85q-51 0 -91 4t-65.5 10.5t-31.5 6.5q-31 -4 -55.5 -26t-24.5 -54q0 -37 20.5 -56.5t69.5 -28t99 -9.5t142.5 -2t163.5 -7q186 -14 279.5 -92t93.5 -194q0 -178 -164 -266.5t-434 -88.5 q-242 0 -392.5 71.5t-150.5 192.5zM270 -125q0 -178 328 -178q176 0 262 51t86 125q0 72 -65.5 106.5t-255.5 36.5q-170 4 -209 9q-61 -14 -103.5 -53.5t-42.5 -96.5zM389 702q0 -213 194.5 -213t194.5 213q0 219 -194.5 219t-194.5 -219z" />
<glyph unicode="h" horiz-adv-x="1398" d="M51 1444v133l430 6v-762q47 100 146.5 154.5t222.5 54.5q156 0 246 -83t90 -232v-506q0 -43 12 -58.5t53 -15.5h111v-135h-592v135h102q33 0 48.5 16.5t15.5 59.5v459q0 90 -49 143t-133 53q-127 0 -199 -98t-72 -299v-250q0 -47 18.5 -65.5t61.5 -18.5h78v-135h-584v135 h105q39 0 55 15.5t16 60.5v1155q0 41 -15 59.5t-52 18.5h-115z" />
<glyph unicode="i" horiz-adv-x="716" d="M61 0v135h119q39 0 53.5 15.5t14.5 60.5v569q0 39 -22.5 61.5t-57.5 22.5h-107v131l437 4v-788q0 -43 19.5 -59.5t62.5 -16.5h100v-135h-619zM172 1401q0 74 53.5 127t128.5 53q74 0 127.5 -53t53.5 -127q0 -76 -53.5 -128t-127.5 -52q-76 0 -129 52t-53 128z" />
<glyph unicode="j" horiz-adv-x="673" d="M-43 -242q0 66 40 111t109 45q66 0 102 -37t36 -86q0 -70 -43 -84q6 -41 51 -41q41 0 68.5 45t27.5 121t-45 187.5t-45 170.5v582q0 92 -76 92h-125v131l453 4v-696q0 -74 16.5 -188.5t16.5 -180.5q0 -190 -85 -289.5t-233 -99.5q-119 0 -193.5 58.5t-74.5 154.5z M195 1401q0 74 53 127t127 53q76 0 129 -53t53 -127t-53 -127t-129 -53q-74 0 -127 53t-53 127z" />
<glyph unicode="k" horiz-adv-x="1425" d="M51 1444v133l438 4v-1055l347 271q29 23 22.5 45t-39.5 22h-114v127l602 4v-131h-72q-51 0 -75.5 -9t-86.5 -46q-14 -10 -37.5 -27.5t-73 -55.5t-81.5 -62l-31 -27l330 -412q72 -90 178 -90h43v-135h-604v135h73q37 0 46.5 24.5t-13.5 53.5l-233 293l-127 -98 q-53 -43 -54 -97v-98q0 -45 15.5 -61.5t58.5 -16.5h96v-135h-602v135h121q35 0 48.5 16.5t13.5 57.5v1151q0 84 -78 84h-111z" />
<glyph unicode="l" horiz-adv-x="729" d="M61 0v135h115q76 0 76 82v1147q0 80 -76 80h-108v133l436 6v-1364q0 -84 82 -84h106v-135h-631z" />
<glyph unicode="m" horiz-adv-x="2066" d="M68 864v131h426v-217q41 117 136 184.5t216 67.5q141 0 225 -61.5t98 -184.5q45 117 140.5 181.5t220.5 64.5q152 0 241 -76.5t89 -228.5v-483q0 -106 82 -107h88v-135h-578v133h88q74 0 74 84v451q0 92 -45 145t-131 53q-121 0 -188.5 -110.5t-67.5 -311.5v-204 q0 -102 80 -105l75 -2v-133h-567v133l88 2q76 2 76 86v447q0 92 -46 145t-130 53q-121 0 -189.5 -109.5t-68.5 -305.5v-218q0 -100 84 -100h80v-133h-594v135h102q80 0 80 88v553q0 88 -78 88h-106z" />
<glyph unicode="n" horiz-adv-x="1417" d="M68 864v131l426 6v-182q49 104 148 157.5t226 53.5q158 0 247 -82t89 -231v-486q0 -96 82 -96h94v-135h-587v135h81q80 0 80 92v443q0 90 -48 143t-132 53q-127 0 -199.5 -97t-72.5 -288v-256q0 -90 78 -90h84v-135h-594v135h98q84 0 84 96v543q0 90 -78 90h-106z" />
<glyph unicode="o" horiz-adv-x="1241" d="M66 510q0 227 161.5 378.5t403.5 151.5q240 0 393.5 -145t153.5 -369q0 -227 -160 -385.5t-399.5 -158.5t-396 153.5t-156.5 374.5zM356 520q0 -207 77 -306t190 -99q115 0 189.5 94t74.5 301q0 205 -76 301t-188 96q-115 0 -191 -92t-76 -295z" />
<glyph unicode="p" horiz-adv-x="1327" d="M23 -266h104q78 0 78 86v954q0 90 -80 90h-96v131h417v-135q43 76 132.5 123t212.5 47q209 0 341 -144.5t132 -377.5q0 -256 -141.5 -394.5t-342.5 -138.5q-115 0 -204 47.5t-121 110.5v-307q0 -92 86 -92h151v-131h-669v131zM452 505q3 -132 9 -163q23 -104 89 -165.5 t167 -61.5q117 0 188.5 98t71.5 272q0 190 -71.5 293t-192.5 103q-109 0 -174.5 -59.5t-83.5 -145.5q-4 -26 -4 -93q0 -34 1 -78z" />
<glyph unicode="q" horiz-adv-x="1290" d="M68 502q0 236 148.5 384t356.5 148q254 0 355 -198l49 180l141 -8v-1190q0 -84 84 -84h111v-131h-670v129l148 4q80 4 79 80v329q-37 -68 -127 -119t-206 -51q-201 0 -335 134.5t-134 392.5zM354 485q0 -172 71 -268t187 -96q86 0 156 59.5t98 165.5q6 27 7 137 q0 12 1 24q0 91 -8 128q-45 250 -256 250q-119 0 -187.5 -106t-68.5 -294z" />
<glyph unicode="r" horiz-adv-x="1132" d="M61 0v135h109q78 0 78 84v551q0 41 -20.5 67.5t-59.5 26.5h-107v131l426 6v-204q39 104 127 168.5t195 64.5q121 0 198.5 -67.5t77.5 -182.5q0 -88 -45 -141t-120 -53q-68 0 -112 33.5t-44 91.5q0 45 24.5 69.5t57.5 28.5l-2 8q-4 8 -10.5 18.5t-15.5 19.5t-28.5 16.5 t-44.5 7.5q-106 0 -177.5 -121t-71.5 -289v-244q0 -90 98 -90h143v-135h-676z" />
<glyph unicode="s" horiz-adv-x="1044" d="M94 721q0 139 105.5 229t287.5 90q154 0 281 -75q23 -2 35 14t14 47h107v-377h-125q-2 41 -2 47q-2 98 -79 157.5t-194 59.5q-203 0 -202 -127q0 -51 36.5 -74.5t141.5 -49.5l194 -48q150 -37 220.5 -110.5t70.5 -190.5q0 -160 -121 -246.5t-295 -86.5q-170 0 -305 77 q-23 4 -37 -13t-14 -44h-117v401h129q2 -39 2 -45q6 -111 92.5 -180.5t215.5 -69.5q94 0 149 42t55 104q0 59 -41 94t-157 62l-135 30q-160 37 -236 101.5t-76 181.5z" />
<glyph unicode="t" horiz-adv-x="931" d="M31 864v131h47q119 0 171 72t56 283h158v-355h336v-131h-338v-565q0 -180 135 -180q70 0 104.5 58.5t34.5 154.5v143h131v-131q0 -369 -329 -369q-174 0 -250 91.5t-76 263.5v534h-180z" />
<glyph unicode="u" horiz-adv-x="1366" d="M31 864v131h418v-673q0 -90 50 -140.5t136 -50.5q121 0 193.5 106.5t72.5 297.5v235q0 94 -86 94h-100v131h436v-774q0 -86 74 -86h104v-135h-420v213q-45 -117 -144 -179.5t-222 -62.5q-154 0 -249 73t-95 224v502q0 94 -86 94h-82z" />
<glyph unicode="v" horiz-adv-x="1216" d="M10 864v131h574v-129l-99 -2q-33 0 -47 -20.5t0 -59.5l226 -587l229 585q9 24 9 41q0 41 -52 41h-92v131h444v-129l-49 -2q-47 -2 -70.5 -21.5t-42.5 -70.5l-311 -772h-256l-305 770q-37 94 -109 94h-49z" />
<glyph unicode="w" horiz-adv-x="1814" d="M10 864v131h547v-129l-72 -2q-57 -3 -56 -42q0 -14 7 -34l223 -595l179 512q2 8 -21 79q-29 82 -92 82h-45v129h532v-127l-84 -2q-59 -3 -58 -42q0 -14 7 -33l226 -598l208 585q10 27 11 49q0 39 -54 39h-96v129h434v-129l-37 -2q-47 -2 -70.5 -22.5t-41.5 -69.5 l-293 -772h-248l-203 512l-194 -512h-248l-295 772q-35 92 -100 92h-66z" />
<glyph unicode="x" horiz-adv-x="1263" d="M27 0v135h30q86 0 164 88l256 293l-237 268q-70 80 -164 80h-35v131h598v-129l-74 -2q-31 -2 -40 -25.5t14 -50.5l163 -186l175 197q18 23 9 43t-36 22l-66 2v129h441v-131h-43q-74 0 -125 -63l-262 -301l229 -258q53 -59 90 -82t82 -23h39v-137h-600v135h98 q31 0 36 23.5t-13 42.5l-189 215l-190 -219q-16 -25 -6 -43.5t35 -18.5h67v-135h-446z" />
<glyph unicode="y" horiz-adv-x="1187" d="M6 -188q0 72 42 116.5t116 44.5q61 0 98 -35.5t37 -89.5q0 -57 -53 -96q12 -57 71 -57q70 0 121 60.5t115 248.5h-57l-314 752q-25 59 -48 83.5t-62 24.5h-62v131h561v-131h-86q-58 0 -57 -40q0 -16 8 -38l223 -546l211 538q8 18 9 43q0 43 -54 43h-88v131h441v-131h-39 q-59 0 -81 -23.5t-59 -115.5l-284 -711q-100 -248 -185.5 -342t-240.5 -94q-125 0 -204 67t-79 167z" />
<glyph unicode="z" horiz-adv-x="1058" d="M59 0v143l631 721h-317q-70 0 -112 -48t-42 -122v-73h-131v374h913v-135l-639 -727h322q190 0 190 154v116h134v-403h-949z" />
<glyph unicode="{" horiz-adv-x="923" d="M78 557v158h84q74 0 100.5 35.5t26.5 121.5v418q0 145 95 216t237 71h221v-139h-131q-84 0 -115 -34t-31 -118v-352q0 -141 -39 -213t-125 -70l-98 2v-28h96q90 -4 128 -73t38 -237v-419q0 -86 31 -120t115 -34h131v-139h-221q-141 0 -236.5 70.5t-95.5 217.5v494 q0 96 -26.5 134t-100.5 38h-84z" />
<glyph unicode="|" horiz-adv-x="860" d="M350 -414v2081h166v-2081h-166z" />
<glyph unicode="}" horiz-adv-x="923" d="M82 -258h131q84 0 113.5 34t29.5 120v419q0 166 39 236t127 74h99v26h-99q-86 -2 -126 71t-40 212v352q0 86 -28.5 119t-114.5 33h-131v139h221q141 0 236.5 -70.5t95.5 -216.5v-418q0 -86 26.5 -121.5t100.5 -35.5h84v-158h-84q-74 0 -100.5 -38t-26.5 -134v-494 q0 -147 -94.5 -217.5t-237.5 -70.5h-221v139z" />
<glyph unicode="~" horiz-adv-x="954" d="M98 1182v118q0 86 51.5 152t145.5 66q63 0 198.5 -84t149.5 -88q35 0 51.5 27.5t16.5 60.5v69h139v-110q0 -100 -47 -159.5t-133 -59.5q-66 0 -205 81.5t-170 81.5q-53 0 -53 -80v-75h-144z" />
<glyph unicode="&#xa1;" horiz-adv-x="684" d="M164 1075q0 76 54 130.5t130 54.5q78 0 133.5 -55.5t55.5 -135.5q0 -74 -56.5 -126t-134.5 -52q-74 0 -128 54t-54 130zM190 -96q0 51 6.5 111.5t12.5 97.5t20 115l19 102q29 172 28 452h138q0 -233 30 -452q6 -45 22.5 -131t26 -159t9.5 -136q0 -283 -156 -283t-156 283 z" />
<glyph unicode="&#xa2;" horiz-adv-x="1148" d="M74 692q0 219 130 359.5t324 167.5v133h138v-129q162 -16 268 -104.5t106 -211.5q0 -88 -48 -142t-134 -54q-70 0 -113 38.5t-43 100.5q0 51 32 83t75 38q-51 117 -193 116q-121 0 -185 -98t-64 -282q0 -406 274 -406q115 0 185.5 75t76.5 167h166v-19 q0 -125 -117.5 -235.5t-285.5 -126.5v-180h-138v184q-207 31 -330.5 175t-123.5 351z" />
<glyph unicode="&#xa3;" horiz-adv-x="1439" d="M66 231q0 106 83.5 179t204.5 73q92 0 164 -22q-25 68 -84 157h-2h-2h-2h-2h-2h-2h-2h-2h-2h-2h-2h-2h-2h-2h-3h-2h-2h-2h-2h-2h-2h-2h-2h-2h-2h-2h-2h-2h-2h-2h-2h-4h-2h-3h-2h-2h-2h-4h-2h-2h-2h-4h-2h-2h-4h-2h-2h-4h-2h-2h-5h-2h-2h-4h-2h-4h-2h-4h-2h-2h-4h-2h-4h-2 h-5h-2h-4h-4h-2h-4h-2h-4h-2h-4h-4h-2h-4h-5h-2h-4h-4h-2h-4h-4h-2h-4h-4h-2h-4h-4h-5h-2h-4h-4h-4h-4h-2h-4h-4h-4h-19v132h195q-152 217 -152 389q0 215 170 343t408 128q233 0 378.5 -121t145.5 -307q0 -119 -57.5 -185.5t-159.5 -66.5q-86 0 -139.5 44t-53.5 120 q0 72 52.5 112.5t136.5 22.5q-12 233 -266 233q-143 0 -224.5 -84t-81.5 -245q0 -158 97 -383h364v-132q-309 2 -309 0q45 -111 55 -186q2 -8 3 -24.5t1 -24.5q47 -23 116 -69t119 -70.5t99 -24.5q88 0 130 53.5t42 167.5v68h150v-76q0 -453 -316 -452q-37 0 -70.5 5 t-65.5 21.5t-53.5 26.5t-52 37.5t-44 38t-47 45t-41.5 43.5q-31 -104 -113 -162t-199 -58q-127 0 -207.5 70.5t-80.5 183.5zM213 231q0 -53 39 -84.5t98 -31.5q162 0 187 186q-76 49 -172 49q-70 0 -111 -34t-41 -85z" />
<glyph unicode="&#xa4;" horiz-adv-x="1468" d="M31 500v153h108q-8 59 -8 140q0 14 1 42.5t1 45.5h-102v149h127q59 258 239.5 420t456.5 162q92 0 184 -22.5t172 -66.5t130.5 -119t50.5 -169q0 -80 -42 -135.5t-132 -55.5q-92 0 -132.5 44.5t-40.5 113.5q0 55 36 88t81 41q-59 143 -295 144q-322 0 -379 -445h416v-149 h-428q-2 -27 -2 -84q0 -80 6 -144h424v-153h-405q72 -377 364 -377q170 0 277.5 115.5t109.5 341.5v43h168v-41q0 -305 -165 -462t-423 -157q-248 0 -424 138.5t-239 398.5h-135z" />
<glyph unicode="&#xa5;" horiz-adv-x="1650" d="M57 1434v143h711v-143h-119q-51 0 -65.5 -33t14.5 -86l305 -551l303 567q25 43 12.5 73t-61.5 30h-125v143h570v-143h-70q-90 0 -135 -82q-150 -274 -168 -303h332v-150h-412q-57 -119 -139 -258h524v-156h-555v-215q0 -133 100 -133h195v-137h-873v137h185 q100 0 100 133v215h-563v156h534l-139 258h-422v150h340l-162 290q-53 94 -149 95h-68z" />
<glyph unicode="&#xa6;" d="M180 604l350 334l-86 467l420 -227l420 227l-90 -471l350 -332l-479 -59l-205 -430l-203 432zM528 719l234 -29l100 -215l101 213l233 29l-168 160l43 235l-205 -111l-211 113l45 -233z" />
<glyph unicode="&#xa7;" horiz-adv-x="1263" d="M123 799q0 143 158 270q-63 76 -64 199q0 141 124 228t294 87q158 0 270.5 -70.5t112.5 -171.5q0 -70 -45 -113.5t-111 -43.5q-70 0 -110.5 30.5t-40.5 85.5q0 78 75 109q-8 29 -47 53.5t-106 24.5q-80 0 -124 -45t-44 -121t60.5 -124t209.5 -89q223 -61 308 -135 t85 -211q0 -141 -157 -264q66 -78 65 -205q0 -147 -119.5 -231.5t-300.5 -84.5q-158 0 -270.5 71t-112.5 171q0 72 45.5 117t110.5 45q68 0 111 -32t43 -87q0 -76 -76 -110q8 -29 46 -53.5t108 -24.5q78 0 122.5 46t44.5 122q0 78 -60 125t-210 88q-223 61 -309 135t-86 209 zM297 874q0 -66 57.5 -104.5t202.5 -75.5q244 -63 346 -135q55 61 55 129q0 66 -58 104.5t-204 75.5q-229 57 -344 136q-55 -67 -55 -130z" />
<glyph unicode="&#xa8;" horiz-adv-x="972" d="M135 1282q0 53 39 91t90 38q53 0 92 -38t39 -91t-39 -92t-92 -39t-91 39t-38 92zM573 1282q0 53 39 91t92.5 38t91.5 -38t38 -91t-38 -92t-91.5 -39t-92.5 39t-39 92z" />
<glyph unicode="&#xa9;" horiz-adv-x="2054" d="M143 702.5q0 364.5 259.5 623.5t625.5 259q365 0 624 -259t259 -623.5t-259 -622.5t-624 -258q-367 0 -626 258t-259 622.5zM252 702.5q0 -321.5 227.5 -549t549 -227.5t548.5 227.5t227 549t-227 549t-548.5 227.5t-549 -227.5t-227.5 -549zM502 694q0 217 140 378 t378 161q88 0 183 -37t100 -37q41 0 40 64h99v-396h-115v29q0 109 -80 190.5t-207 81.5q-141 0 -221 -111.5t-80 -316.5q0 -438 316 -438q133 0 206.5 80t73.5 209v33h123v-33q0 -168 -110.5 -280.5t-300.5 -112.5q-260 0 -402.5 157.5t-142.5 378.5z" />
<glyph unicode="&#xaa;" horiz-adv-x="1259" d="M152 983q0 47 21.5 83t46 55.5t75.5 36t75.5 20.5t82.5 14l90 14q106 16 147 44t41 93q0 170 -168 170q-150 0 -155 -83q68 -12 67 -78q0 -45 -37 -76t-94 -31t-97 35t-40 102q0 106 108.5 166t264.5 60q150 0 258 -62.5t108 -183.5v-404q0 -86 55 -86q63 0 64 89v73h88 v-84q0 -90 -54.5 -145t-152.5 -55q-88 0 -133 29.5t-78 99.5q-61 -72 -125.5 -100.5t-160.5 -28.5q-141 0 -219 61t-78 172zM184 563v105h856v-105h-856zM389 991q0 -57 35 -93t100 -36q86 0 144.5 67.5t58.5 157.5v105q-47 -49 -188 -78q-80 -16 -115 -43t-35 -80z" />
<glyph unicode="&#xab;" horiz-adv-x="1560" d="M96 512v111l776 467v-138l-514 -385l514 -385v-137zM684 512v111l774 467v-138l-512 -385l512 -385v-137z" />
<glyph unicode="&#xac;" horiz-adv-x="1232" d="M113 276v469h133l2 -96q0 -59 63 -59h213v207q0 66 -59 65h-94v133h489v-133h-86q-63 0 -63 -65v-207h211q66 0 65 59l2 96h131v-469h-131l-2 78q-4 68 -65 68h-211v-221q0 -66 63 -66h86v-135h-489v135h94q33 0 46 14.5t13 49.5v223h-211q-61 0 -65 -68l-2 -78h-133z " />
<glyph unicode="&#xad;" horiz-adv-x="993" d="M160 571v240h665v-240h-665z" />
<glyph unicode="&#xae;" horiz-adv-x="2054" d="M143 702.5q0 364.5 259.5 623.5t625.5 259q365 0 624 -259t259 -623.5t-259 -622.5t-624 -258q-367 0 -626 258t-259 622.5zM252 702.5q0 -321.5 227.5 -549t549 -227.5t548.5 227.5t227 549t-227 549t-548.5 227.5t-549 -227.5t-227.5 -549zM537 238v92h67q76 0 76 90 v581q0 92 -76 93h-67v92h567q164 0 263 -68.5t99 -183.5q0 -104 -72.5 -164.5t-183.5 -79.5q94 -20 134 -80.5t45 -158.5l2 -35q2 -57 16 -80t43 -23q63 0 63 97v45h76v-43q0 -106 -48 -152.5t-144 -46.5q-182 0 -199 170q-2 16 -5 44t-3 42q-8 100 -50 147.5t-130 47.5 h-136v-244q0 -90 78 -90h76v-92h-491zM874 750h150q219 0 219 172q0 88 -59.5 135t-153.5 47h-80q-76 0 -76 -92v-262z" />
<glyph unicode="&#xaf;" horiz-adv-x="972" d="M150 1151v180h673v-180h-673z" />
<glyph unicode="&#x2c9;" horiz-adv-x="972" d="M150 1151v180h673v-180h-673z" />
<glyph unicode="&#xb0;" horiz-adv-x="874" d="M88 1263.5q0 145.5 102.5 248t248 102.5t247.5 -102.5t102 -248t-103 -248t-246.5 -102.5t-247 102.5t-103.5 248zM219 1264q0 -88 65.5 -152.5t153.5 -64.5q90 0 153.5 64.5t63.5 152.5q0 90 -63.5 154.5t-153.5 64.5t-154.5 -65.5t-64.5 -153.5z" />
<glyph unicode="&#xb1;" horiz-adv-x="2109" d="M63 0v135h125q68 0 68 80v649h-188v131h120q70 0 70 74v59q0 231 121 352.5t354 121.5q123 0 213 -38t125 -98q123 135 348 136q158 0 262 -60l211 35v-1354q0 -49 15.5 -68.5t56.5 -19.5h109v-135h-594v135h98q39 0 53.5 17.5t14.5 62.5v950q0 4 -4.5 4t-9.5 -1t-9 -1 q-47 6 -78 39t-31 78q0 86 74 119q-4 12 -19.5 27.5t-56.5 33t-96 17.5q-94 0 -154.5 -61.5t-60.5 -180.5v-244h232v-131h-234v-637q0 -51 17.5 -71.5t60.5 -20.5h90v-135h-575v135h92q70 0 69 80v649h-446v-637q0 -53 17.5 -72.5t62.5 -19.5h90v-135h-613zM508 995h373 q63 0 67 56q6 92 6 112q-59 2 -93 37t-34 86q0 84 72 117q-6 12 -23.5 27.5t-60.5 33t-96 17.5q-88 0 -149.5 -54.5t-61.5 -152.5v-279z" />
<glyph unicode="&#xb2;" d="M180 604l350 334l-86 467l420 -227l420 227l-90 -471l350 -332l-479 -59l-205 -430l-203 432zM528 719l234 -29l100 -215l101 213l233 29l-168 160l43 235l-205 -111l-211 113l45 -233z" />
<glyph unicode="&#xb3;" d="M180 604l350 334l-86 467l420 -227l420 227l-90 -471l350 -332l-479 -59l-205 -430l-203 432zM528 719l234 -29l100 -215l101 213l233 29l-168 160l43 235l-205 -111l-211 113l45 -233z" />
<glyph unicode="&#xb4;" horiz-adv-x="972" d="M293 1221l282 299l150 -177l-342 -229z" />
<glyph unicode="&#xb5;" d="M180 604l350 334l-86 467l420 -227l420 227l-90 -471l350 -332l-479 -59l-205 -430l-203 432zM528 719l234 -29l100 -215l101 213l233 29l-168 160l43 235l-205 -111l-211 113l45 -233z" />
<glyph unicode="&#x3bc;" d="M180 604l350 334l-86 467l420 -227l420 227l-90 -471l350 -332l-479 -59l-205 -430l-203 432zM528 719l234 -29l100 -215l101 213l233 29l-168 160l43 235l-205 -111l-211 113l45 -233z" />
<glyph unicode="&#xb6;" horiz-adv-x="1562" d="M123 1110q0 225 163 346t425 121h762v-133h-105q-55 0 -77.5 -29t-22.5 -106v-1356h-115v1431q0 41 -18.5 57.5t-65.5 16.5q-90 0 -90 -82v-1423h-111v676h-206q-250 0 -394.5 126t-144.5 355zM471 1124q0 -180 61.5 -278t219.5 -98h116v555q0 92 -26.5 121.5t-91.5 29.5 h-37q-113 0 -177.5 -84t-64.5 -246z" />
<glyph unicode="&#xb7;" horiz-adv-x="720" d="M170 782q0 78 59.5 132.5t141.5 54.5q78 0 135 -58.5t57 -138.5q0 -78 -57 -133t-137 -55q-82 0 -140.5 58t-58.5 140z" />
<glyph unicode="&#x2219;" horiz-adv-x="720" d="M170 782q0 78 59.5 132.5t141.5 54.5q78 0 135 -58.5t57 -138.5q0 -78 -57 -133t-137 -55q-82 0 -140.5 58t-58.5 140z" />
<glyph unicode="&#xb8;" horiz-adv-x="972" d="M344 -367l18 66q43 -25 82 -25q31 0 49.5 17.5t18.5 46.5q0 74 -115 102l39 140h78l-20 -76q14 0 38 -13q143 -51 144 -157q0 -63 -47 -102.5t-129 -39.5q-70 0 -156 41z" />
<glyph unicode="&#xb9;" d="M180 604l350 334l-86 467l420 -227l420 227l-90 -471l350 -332l-479 -59l-205 -430l-203 432zM528 719l234 -29l100 -215l101 213l233 29l-168 160l43 235l-205 -111l-211 113l45 -233z" />
<glyph unicode="&#xba;" horiz-adv-x="1210" d="M141 1180q0 180 139.5 303t333.5 123q197 0 327 -119t130 -297q0 -180 -135 -308t-331.5 -128t-330 125t-133.5 301zM186 563v105h842v-105h-842zM389 1186q0 -166 61.5 -245t157.5 -79q98 0 157.5 76t59.5 242t-59 241.5t-157.5 75.5t-159 -73.5t-60.5 -237.5z" />
<glyph unicode="&#xbb;" horiz-adv-x="1560" d="M96 45v137l514 385l-514 385v138l776 -467v-111zM686 45v137l514 385l-514 385v138l772 -467v-111z" />
<glyph unicode="&#xbc;" d="M180 604l350 334l-86 467l420 -227l420 227l-90 -471l350 -332l-479 -59l-205 -430l-203 432zM528 719l234 -29l100 -215l101 213l233 29l-168 160l43 235l-205 -111l-211 113l45 -233z" />
<glyph unicode="&#xbd;" d="M180 604l350 334l-86 467l420 -227l420 227l-90 -471l350 -332l-479 -59l-205 -430l-203 432zM528 719l234 -29l100 -215l101 213l233 29l-168 160l43 235l-205 -111l-211 113l45 -233z" />
<glyph unicode="&#xbe;" d="M180 604l350 334l-86 467l420 -227l420 227l-90 -471l350 -332l-479 -59l-205 -430l-203 432zM528 719l234 -29l100 -215l101 213l233 29l-168 160l43 235l-205 -111l-211 113l45 -233z" />
<glyph unicode="&#xbf;" horiz-adv-x="1138" d="M129 2q0 123 55.5 210t184.5 183q133 98 182 158.5t49 134.5l-8 86q137 6 158 6q10 -55 10 -108q0 -102 -48 -182t-173 -195q-129 -117 -129 -303q0 -113 60 -177.5t161 -64.5q94 0 150.5 41t66.5 105q-76 0 -118 38.5t-42 102.5q0 72 48 115t130 43q88 0 144.5 -57.5 t56.5 -157.5q0 -147 -130 -253t-323 -106q-215 0 -350 103.5t-135 277.5zM475 1077q0 76 54.5 129.5t129.5 53.5q78 0 133.5 -54.5t55.5 -132.5q0 -74 -57.5 -126t-133.5 -52q-74 0 -128 53t-54 129z" />
<glyph unicode="&#xc0;" horiz-adv-x="1847" d="M18 0v145h45q86 0 121 25t70 113l512 1294h315l512 -1286q35 -88 70 -117t106 -29h62v-145h-799v145h154q72 0 88 28t-8 85l-82 215h-662l-80 -205q-29 -74 -12.5 -98.5t94.5 -24.5h142v-145h-648zM520 1886l148 176l282 -299l-88 -106zM578 621h548l-272 704z" />
<glyph unicode="&#xc1;" horiz-adv-x="1847" d="M18 0v145h45q86 0 121 25t70 113l512 1294h315l512 -1286q35 -88 70 -117t106 -29h62v-145h-799v145h154q72 0 88 28t-8 85l-82 215h-662l-80 -205q-29 -74 -12.5 -98.5t94.5 -24.5h142v-145h-648zM578 621h548l-272 704zM829 1759l283 299l150 -176l-342 -229z" />
<glyph unicode="&#xc2;" horiz-adv-x="1847" d="M18 0v145h45q86 0 121 25t70 113l512 1294h315l512 -1286q35 -88 70 -117t106 -29h62v-145h-799v145h154q72 0 88 28t-8 85l-82 215h-662l-80 -205q-29 -74 -12.5 -98.5t94.5 -24.5h142v-145h-648zM553 1722l270 263h156l274 -263l-75 -86l-277 179l-270 -181zM578 621 h548l-272 704z" />
<glyph unicode="&#xc3;" horiz-adv-x="1847" d="M18 0v145h45q86 0 121 25t70 113l512 1294h315l512 -1286q35 -88 70 -117t106 -29h62v-145h-799v145h154q72 0 88 28t-8 85l-82 215h-662l-80 -205q-29 -74 -12.5 -98.5t94.5 -24.5h142v-145h-648zM518 1700q2 4 9.5 19.5t13.5 29.5t6 18q82 168 221 168q76 0 182 -65 q113 -72 156 -72q72 0 115 70q20 31 26 43l68 -47q-4 -12 -31 -68q-41 -90 -92 -128t-131 -38t-176 66q-102 70 -160 69q-70 0 -117 -73l-24 -37zM578 621h548l-272 704z" />
<glyph unicode="&#xc4;" horiz-adv-x="1847" d="M18 0v145h45q86 0 121 25t70 113l512 1294h315l512 -1286q35 -88 70 -117t106 -29h62v-145h-799v145h154q72 0 88 28t-8 85l-82 215h-662l-80 -205q-29 -74 -12.5 -98.5t94.5 -24.5h142v-145h-648zM571 1759q0 51 38 90t91.5 39t92 -38t38.5 -91t-38.5 -92t-92 -39 t-91.5 39t-38 92zM578 621h548l-272 704zM1010 1759q0 53 38.5 91t92 38t91.5 -38t38 -91t-38 -92t-91.5 -39t-92 39t-38.5 92z" />
<glyph unicode="&#xc5;" horiz-adv-x="1847" d="M18 0v145h45q72 0 116 31t75 107l496 1251q-98 68 -99 192q0 111 80 190t189 79q113 0 190.5 -79t77.5 -190q0 -119 -90 -188l495 -1247q31 -76 71 -111t105 -35h62v-145h-801v145h152q127 0 82 113l-84 215h-658l-80 -205q-27 -61 -8 -92t90 -31h140v-145h-646zM578 621 h544l-270 700zM776 1726.5q0 -59.5 42 -102.5t101.5 -43t103.5 43t44 102.5t-44 102.5t-103.5 43t-101.5 -43t-42 -102.5z" />
<glyph unicode="&#xc6;" horiz-adv-x="2502" d="M-6 0v145h43q72 0 119 31t96 105l682 1042q31 45 15.5 77t-68.5 32h-84v145h1618v-588h-164v86q0 197 -81 277t-269 80h-285q-59 0 -79.5 -24t-20.5 -87v-447h165q70 0 115 44.5t45 113.5v148h148v-772h-148v161q0 70 -46 114t-116 44h-163v-471q0 -63 19 -87t79 -24h287 q199 0 282.5 80t83.5 287v102h164v-614h-1464v154h143q61 0 77.5 22.5t16.5 87.5v221h-606l-133 -202q-84 -129 55 -129h121v-154h-647zM692 633h512v788z" />
<glyph unicode="&#xc7;" horiz-adv-x="1665" d="M84 793q0 164 52 310t150.5 261t253 181.5t345.5 66.5q100 0 193 -26.5t154.5 -55.5t76.5 -31q29 -4 44 17.5t21 72.5h152v-608h-170v49q0 176 -124 297t-314 121q-459 0 -459 -651q0 -674 465 -674q207 0 322.5 117.5t125.5 339.5l2 43h170v-41q0 -270 -170 -439.5 t-461 -179.5l-14 -51q14 0 39 -12q143 -51 143 -158q0 -63 -47 -102t-129 -39q-70 0 -155 41l18 65q43 -25 82 -24q31 0 49.5 17t18.5 46q0 74 -115 102l33 115q-358 16 -555 251t-197 579z" />
<glyph unicode="&#xc8;" horiz-adv-x="1679" d="M72 0v145h143q59 0 79.5 24t20.5 87v1065q0 63 -20.5 87t-79.5 24h-143v145h1511v-588h-162l-2 141q-2 301 -295 302h-381q-61 0 -81.5 -24t-20.5 -87v-447h209q139 0 143 158l4 148h150v-772h-150l-4 188q-2 131 -145 131h-207v-471q0 -63 18.5 -87t79.5 -24h332 q199 0 276.5 76t86.5 291l4 102h161v-614h-1527zM551 1882l147 176l283 -299l-88 -106z" />
<glyph unicode="&#xc9;" horiz-adv-x="1679" d="M72 0v145h143q59 0 79.5 24t20.5 87v1065q0 63 -20.5 87t-79.5 24h-143v145h1511v-588h-162l-2 141q-2 301 -295 302h-381q-61 0 -81.5 -24t-20.5 -87v-447h209q139 0 143 158l4 148h150v-772h-150l-4 188q-2 131 -145 131h-207v-471q0 -63 18.5 -87t79.5 -24h332 q199 0 276.5 76t86.5 291l4 102h161v-614h-1527zM745 1761l283 299l150 -176l-342 -229z" />
<glyph unicode="&#xca;" horiz-adv-x="1679" d="M72 0v145h143q59 0 79.5 24t20.5 87v1065q0 63 -20.5 87t-79.5 24h-143v145h1511v-588h-162l-2 141q-2 301 -295 302h-381q-61 0 -81.5 -24t-20.5 -87v-447h209q139 0 143 158l4 148h150v-772h-150l-4 188q-2 131 -145 131h-207v-471q0 -63 18.5 -87t79.5 -24h332 q199 0 276.5 76t86.5 291l4 102h161v-614h-1527zM530 1729l271 262h155l275 -262l-76 -87l-276 179l-271 -181z" />
<glyph unicode="&#xcb;" horiz-adv-x="1679" d="M72 0v145h143q59 0 79.5 24t20.5 87v1065q0 63 -20.5 87t-79.5 24h-143v145h1511v-588h-162l-2 141q-2 301 -295 302h-381q-61 0 -81.5 -24t-20.5 -87v-447h209q139 0 143 158l4 148h150v-772h-150l-4 188q-2 131 -145 131h-207v-471q0 -63 18.5 -87t79.5 -24h332 q199 0 276.5 76t86.5 291l4 102h161v-614h-1527zM526 1759q0 51 38 90t91.5 39t92 -38t38.5 -91t-38.5 -92t-92 -39t-91.5 39t-38 92zM965 1759q0 53 38.5 91t92 38t91.5 -38t38 -91t-38 -92t-91.5 -39t-92 39t-38.5 92z" />
<glyph unicode="&#xcc;" horiz-adv-x="956" d="M72 0v145h149q59 0 76.5 22.5t17.5 88.5v1051q0 68 -20.5 96.5t-79.5 28.5h-143v145h813v-145h-146q-59 0 -76.5 -26t-17.5 -91v-1051q0 -66 20.5 -92.5t79.5 -26.5h140v-145h-813zM131 1886l148 176l282 -299l-88 -106z" />
<glyph unicode="&#xcd;" horiz-adv-x="956" d="M72 0v145h149q59 0 76.5 22.5t17.5 88.5v1051q0 68 -20.5 96.5t-79.5 28.5h-143v145h813v-145h-146q-59 0 -76.5 -26t-17.5 -91v-1051q0 -66 20.5 -92.5t79.5 -26.5h140v-145h-813zM360 1761l283 299l150 -176l-342 -229z" />
<glyph unicode="&#xce;" horiz-adv-x="956" d="M72 0v145h149q59 0 76.5 22.5t17.5 88.5v1051q0 68 -20.5 96.5t-79.5 28.5h-143v145h813v-145h-146q-59 0 -76.5 -26t-17.5 -91v-1051q0 -66 20.5 -92.5t79.5 -26.5h140v-145h-813zM119 1737l270 262h156l274 -262l-76 -86l-276 178l-270 -180z" />
<glyph unicode="&#xcf;" horiz-adv-x="956" d="M72 0v145h149q59 0 76.5 22.5t17.5 88.5v1051q0 68 -20.5 96.5t-79.5 28.5h-143v145h813v-145h-146q-59 0 -76.5 -26t-17.5 -91v-1051q0 -66 20.5 -92.5t79.5 -26.5h140v-145h-813zM133 1761.5q0 53.5 38 91t91 37.5t92 -37.5t39 -91t-39 -92.5t-92 -39t-91 39t-38 92.5z M571 1761.5q0 53.5 39 91t92.5 37.5t91 -37.5t37.5 -91t-37.5 -92.5t-91 -39t-92.5 39t-39 92.5z" />
<glyph unicode="&#xd0;" horiz-adv-x="1880" d="M72 0v145h149q59 0 76.5 31t17.5 100v429h-227v182h227v430q0 68 -17 91.5t-77 23.5h-149v145h893q369 0 607 -210t238 -566q0 -365 -230 -583t-605 -218h-903zM643 293q0 -78 22.5 -110.5t88.5 -32.5h180q279 0 393.5 163.5t114.5 489.5q0 281 -130 454t-360 173h-196 q-68 0 -90.5 -26t-22.5 -101v-416h318v-182h-318v-412z" />
<glyph unicode="&#xd1;" horiz-adv-x="2017" d="M70 0v145h131q115 0 114 131v1020q0 135 -114 136h-131v145h600l850 -1258v984q0 129 -115 129h-170v145h719v-145h-125q-115 0 -115 -129v-1303h-344l-862 1255v-979q0 -131 113 -131h165v-145h-716zM639 1688q2 4 9 19t13.5 29.5t6.5 18.5q82 168 221 168q76 0 182 -65 q113 -72 156 -72q72 0 114 69q20 31 27 43l68 -47q-2 -12 -31 -67q-41 -90 -92 -128t-131 -38t-176 65q-102 70 -160 70q-70 0 -117 -74l-24 -37z" />
<glyph unicode="&#xd2;" horiz-adv-x="1816" d="M76 795q0 344 233.5 579.5t601.5 235.5q371 0 600.5 -234.5t229.5 -574.5q0 -225 -99.5 -414.5t-292 -306.5t-442.5 -117q-375 0 -603 242t-228 590zM449 801q0 -328 123.5 -502t340.5 -174t336 172t119 498q0 317 -124 486t-341 169q-207 0 -330.5 -166t-123.5 -483z M530 1890l148 176l283 -299l-89 -106z" />
<glyph unicode="&#xd3;" horiz-adv-x="1816" d="M76 795q0 344 233.5 579.5t601.5 235.5q371 0 600.5 -234.5t229.5 -574.5q0 -225 -99.5 -414.5t-292 -306.5t-442.5 -117q-375 0 -603 242t-228 590zM449 801q0 -328 123.5 -502t340.5 -174t336 172t119 498q0 317 -124 486t-341 169q-207 0 -330.5 -166t-123.5 -483z M805 1765l282 299l150 -176l-342 -229z" />
<glyph unicode="&#xd4;" horiz-adv-x="1816" d="M76 795q0 344 233.5 579.5t601.5 235.5q371 0 600.5 -234.5t229.5 -574.5q0 -225 -99.5 -414.5t-292 -306.5t-442.5 -117q-375 0 -603 242t-228 590zM449 801q0 -328 123.5 -502t340.5 -174t336 172t119 498q0 317 -124 486t-341 169q-207 0 -330.5 -166t-123.5 -483z M555 1745l270 262h156l274 -262l-75 -86l-277 178l-270 -180z" />
<glyph unicode="&#xd5;" horiz-adv-x="1816" d="M76 795q0 344 233.5 579.5t601.5 235.5q371 0 600.5 -234.5t229.5 -574.5q0 -225 -99.5 -414.5t-292 -306.5t-442.5 -117q-375 0 -603 242t-228 590zM449 801q0 -328 123.5 -502t340.5 -174t336 172t119 498q0 317 -124 486t-341 169q-207 0 -330.5 -166t-123.5 -483z M504 1708q2 4 9 19.5t13 30t6 18.5q82 168 222 168q76 0 182 -66q113 -72 156 -72q72 0 114 70q20 31 27 43l67 -47q-2 -12 -30 -68q-41 -90 -92.5 -128t-131 -38t-176.5 66q-102 70 -159 70q-70 0 -117 -74l-25 -37z" />
<glyph unicode="&#xd6;" horiz-adv-x="1816" d="M76 795q0 344 233.5 579.5t601.5 235.5q371 0 600.5 -234.5t229.5 -574.5q0 -225 -99.5 -414.5t-292 -306.5t-442.5 -117q-375 0 -603 242t-228 590zM449 801q0 -328 123.5 -502t340.5 -174t336 172t119 498q0 317 -124 486t-341 169q-207 0 -330.5 -166t-123.5 -483z M551 1763q0 51 38 90t91 39t92 -37.5t39 -91t-39 -92.5t-92 -39t-91 39t-38 92zM989 1763.5q0 53.5 39 91t92.5 37.5t91 -37.5t37.5 -91t-37.5 -92.5t-91 -39t-92.5 39t-39 92.5z" />
<glyph unicode="&#xd7;" d="M180 604l350 334l-86 467l420 -227l420 227l-90 -471l350 -332l-479 -59l-205 -430l-203 432zM528 719l234 -29l100 -215l101 213l233 29l-168 160l43 235l-205 -111l-211 113l45 -233z" />
<glyph unicode="&#xd8;" horiz-adv-x="1816" d="M76 795q0 344 233.5 580.5t601.5 236.5q307 0 531 -176l186 194l88 -88l-182 -188q207 -229 207 -553q0 -225 -99.5 -414.5t-292 -306.5t-442.5 -117q-307 0 -534 180l-183 -190l-90 88l183 186q-207 232 -207 568zM449 801q0 -184 67 -330l746 776q-119 205 -359 205 q-207 0 -330.5 -167t-123.5 -484zM557 334q119 -209 356 -209q217 0 336 172t119 498q0 176 -65 317z" />
<glyph unicode="&#xd9;" horiz-adv-x="1875" d="M59 1432v145h785v-145h-139q-57 0 -78 -27t-21 -90v-764q0 -215 109.5 -312.5t296.5 -97.5q193 0 295 108.5t102 309.5v750q0 66 -21.5 94.5t-78.5 28.5h-133v145h634v-145h-110q-61 0 -81 -29t-20 -96v-701q0 -639 -638 -639q-680 0 -680 600v748q0 66 -19.5 91.5 t-79.5 25.5h-123zM651 1886l148 176l282 -299l-88 -106z" />
<glyph unicode="&#xda;" horiz-adv-x="1875" d="M59 1432v145h785v-145h-139q-57 0 -78 -27t-21 -90v-764q0 -215 109.5 -312.5t296.5 -97.5q193 0 295 108.5t102 309.5v750q0 66 -21.5 94.5t-78.5 28.5h-133v145h634v-145h-110q-61 0 -81 -29t-20 -96v-701q0 -639 -638 -639q-680 0 -680 600v748q0 66 -19.5 91.5 t-79.5 25.5h-123zM879 1759l282 299l150 -176l-342 -229z" />
<glyph unicode="&#xdb;" horiz-adv-x="1875" d="M59 1432v145h785v-145h-139q-57 0 -78 -27t-21 -90v-764q0 -215 109.5 -312.5t296.5 -97.5q193 0 295 108.5t102 309.5v750q0 66 -21.5 94.5t-78.5 28.5h-133v145h634v-145h-110q-61 0 -81 -29t-20 -96v-701q0 -639 -638 -639q-680 0 -680 600v748q0 66 -19.5 91.5 t-79.5 25.5h-123zM635 1737l270 262h156l274 -262l-75 -86l-277 178l-270 -180z" />
<glyph unicode="&#xdc;" horiz-adv-x="1875" d="M59 1432v145h785v-145h-139q-57 0 -78 -27t-21 -90v-764q0 -215 109.5 -312.5t296.5 -97.5q193 0 295 108.5t102 309.5v750q0 66 -21.5 94.5t-78.5 28.5h-133v145h634v-145h-110q-61 0 -81 -29t-20 -96v-701q0 -639 -638 -639q-680 0 -680 600v748q0 66 -19.5 91.5 t-79.5 25.5h-123zM639 1763q0 51 39 90t90 39q53 0 92 -37.5t39 -91t-39 -92.5t-92 -39t-91 39t-38 92zM1077 1763.5q0 53.5 39 91t92.5 37.5t91 -37.5t37.5 -91t-37.5 -92.5t-91 -39t-92.5 39t-39 92.5z" />
<glyph unicode="&#xdd;" horiz-adv-x="1763" d="M18 1432v145l785 -4v-150h-125q-57 0 -72.5 -30.5t17.5 -87.5l340 -547l342 563q27 41 10 71.5t-70 30.5h-135v150l633 4v-145h-76q-96 0 -147 -82l-473 -779v-286q0 -139 120 -140h213v-145h-987v145h209q117 0 117 140v293l-473 759q-59 94 -162 95h-66zM829 1761 l283 299l150 -176l-342 -229z" />
<glyph unicode="&#xde;" horiz-adv-x="1613" d="M72 0v145h108q123 0 123 144v983q0 160 -123 160h-108v145h805v-141h-150q-96 0 -96 -113v-51h319q274 0 434 -121t160 -317q0 -225 -155.5 -349.5t-438.5 -124.5h-319v-102q0 -113 96 -113h223v-145h-878zM631 512h200q340 0 340 317q0 137 -75.5 219t-227.5 82h-129 q-109 0 -108 -131v-487z" />
<glyph unicode="&#xdf;" horiz-adv-x="1540" d="M63 0v135h132q37 0 49 15.5t12 58.5v655h-188v131h120q70 0 70 74v59q0 221 147.5 352.5t374.5 131.5q223 0 357.5 -110.5t134.5 -311.5q0 -113 8 -157t37 -64v-178h-121q-43 123 -197 122q-80 0 -127 -32.5t-47 -94.5q0 -59 38 -85.5t155 -53.5l180 -41 q283 -63 283 -295q0 -156 -117 -245t-272 -89q-90 0 -193.5 40t-116.5 40q-41 0 -41 -57h-112v393h125q10 -127 92 -204.5t211 -77.5q84 0 137 39.5t53 101.5q0 59 -39 90t-155 55l-140 31q-150 33 -228.5 101.5t-78.5 191.5q0 137 104.5 231.5t264.5 94.5q68 0 117 -17 q47 74 47 172q0 133 -89 209t-251 76q-133 0 -211 -79t-78 -212v-1196h-447z" />
<glyph unicode="&#xe0;" horiz-adv-x="1271" d="M68 258q0 59 23.5 105.5t53 73t84 47t89 28.5t94.5 18l112 21q125 23 173 57.5t48 114.5q0 205 -196 205q-176 0 -182 -103q33 -6 56 -32.5t23 -67.5q0 -59 -38.5 -96t-114.5 -37q-70 0 -115 43t-45 129q0 131 126 208t310 77q190 0 308 -81t118 -231v-504 q0 -115 64 -114q70 0 69 119v92h121v-105q0 -111 -62.5 -180.5t-180.5 -69.5q-109 0 -166.5 40t-83.5 122q-119 -162 -342 -162q-160 0 -253 75t-93 208zM252 1346l147 176l283 -299l-88 -107zM340 270q0 -74 40 -116.5t122 -42.5q102 0 171.5 87t69.5 203v134 q-70 -76 -241 -107q-162 -31 -162 -158z" />
<glyph unicode="&#xe1;" horiz-adv-x="1271" d="M68 258q0 59 23.5 105.5t53 73t84 47t89 28.5t94.5 18l112 21q125 23 173 57.5t48 114.5q0 205 -196 205q-176 0 -182 -103q33 -6 56 -32.5t23 -67.5q0 -59 -38.5 -96t-114.5 -37q-70 0 -115 43t-45 129q0 131 126 208t310 77q190 0 308 -81t118 -231v-504 q0 -115 64 -114q70 0 69 119v92h121v-105q0 -111 -62.5 -180.5t-180.5 -69.5q-109 0 -166.5 40t-83.5 122q-119 -162 -342 -162q-160 0 -253 75t-93 208zM340 270q0 -74 40 -116.5t122 -42.5q102 0 171.5 87t69.5 203v134q-70 -76 -241 -107q-162 -31 -162 -158zM453 1221 l282 299l150 -177l-342 -229z" />
<glyph unicode="&#xe2;" horiz-adv-x="1271" d="M68 258q0 59 23.5 105.5t53 73t84 47t89 28.5t94.5 18l112 21q125 23 173 57.5t48 114.5q0 205 -196 205q-176 0 -182 -103q33 -6 56 -32.5t23 -67.5q0 -59 -38.5 -96t-114.5 -37q-70 0 -115 43t-45 129q0 131 126 208t310 77q190 0 308 -81t118 -231v-504 q0 -115 64 -114q70 0 69 119v92h121v-105q0 -111 -62.5 -180.5t-180.5 -69.5q-109 0 -166.5 40t-83.5 122q-119 -162 -342 -162q-160 0 -253 75t-93 208zM209 1198l270 262h156l274 -262l-75 -86l-277 178l-270 -180zM340 270q0 -74 40 -116.5t122 -42.5q102 0 171.5 87 t69.5 203v134q-70 -76 -241 -107q-162 -31 -162 -158z" />
<glyph unicode="&#xe3;" horiz-adv-x="1271" d="M68 258q0 59 23.5 105.5t53 73t84 47t89 28.5t94.5 18l112 21q125 23 173 57.5t48 114.5q0 205 -196 205q-176 0 -182 -103q33 -6 56 -32.5t23 -67.5q0 -59 -38.5 -96t-114.5 -37q-70 0 -115 43t-45 129q0 131 126 208t310 77q190 0 308 -81t118 -231v-504 q0 -115 64 -114q70 0 69 119v92h121v-105q0 -111 -62.5 -180.5t-180.5 -69.5q-109 0 -166.5 40t-83.5 122q-119 -162 -342 -162q-160 0 -253 75t-93 208zM184 1157q2 4 9.5 19.5t13.5 30t6 18.5q82 168 221 168q76 0 182 -66q113 -72 156 -72q72 0 115 70q20 31 26 43 l68 -47q-2 -12 -31 -68q-41 -90 -92 -128t-131 -38t-176 66q-102 70 -160 70q-70 0 -117 -74l-24 -37zM340 270q0 -74 40 -116.5t122 -42.5q102 0 171.5 87t69.5 203v134q-70 -76 -241 -107q-162 -31 -162 -158z" />
<glyph unicode="&#xe4;" horiz-adv-x="1271" d="M68 258q0 59 23.5 105.5t53 73t84 47t89 28.5t94.5 18l112 21q125 23 173 57.5t48 114.5q0 205 -196 205q-176 0 -182 -103q33 -6 56 -32.5t23 -67.5q0 -59 -38.5 -96t-114.5 -37q-70 0 -115 43t-45 129q0 131 126 208t310 77q190 0 308 -81t118 -231v-504 q0 -115 64 -114q70 0 69 119v92h121v-105q0 -111 -62.5 -180.5t-180.5 -69.5q-109 0 -166.5 40t-83.5 122q-119 -162 -342 -162q-160 0 -253 75t-93 208zM211 1241q0 53 38 91t91 38t92 -38t39 -91t-39 -92t-92 -39t-91 39t-38 92zM340 270q0 -74 40 -116.5t122 -42.5 q102 0 171.5 87t69.5 203v134q-70 -76 -241 -107q-162 -31 -162 -158zM649 1241q0 53 39 91t92.5 38t91 -38t37.5 -91t-37.5 -92t-91 -39t-92.5 39t-39 92z" />
<glyph unicode="&#xe5;" horiz-adv-x="1271" d="M68 258q0 59 23.5 105.5t53 73t84 47t89 28.5t94.5 18l112 21q125 23 173 57.5t48 114.5q0 205 -196 205q-176 0 -182 -103q33 -6 56 -32.5t23 -67.5q0 -59 -38.5 -96t-114.5 -37q-70 0 -115 43t-45 129q0 131 126 208t310 77q190 0 308 -81t118 -231v-504 q0 -115 64 -114q70 0 69 119v92h121v-105q0 -111 -62.5 -180.5t-180.5 -69.5q-109 0 -166.5 40t-83.5 122q-119 -162 -342 -162q-160 0 -253 75t-93 208zM303 1370.5q0 110.5 79 189t189.5 78.5t189.5 -77.5t79 -190.5q0 -111 -79 -189.5t-190 -78.5q-109 0 -188.5 79 t-79.5 189.5zM340 270q0 -74 40 -116.5t122 -42.5q102 0 171.5 87t69.5 203v134q-70 -76 -241 -107q-162 -31 -162 -158zM428 1370.5q0 -59.5 42 -101.5t101.5 -42t102.5 42t43 101.5t-43 103.5t-103 44q-57 0 -100 -44t-43 -103.5z" />
<glyph unicode="&#xe6;" horiz-adv-x="1777" d="M68 246q0 236 344 286l112 17q119 16 170 54t51 110q0 117 -50 164t-160 47q-162 0 -173 -99q33 -6 57.5 -34.5t24.5 -65.5q0 -59 -37.5 -96t-113.5 -37q-70 0 -115 43t-45 129q0 129 124 203.5t300 74.5q213 0 320 -151q139 150 354 149q213 0 347 -131t136 -358v-66 h-733q2 -25 2 -39q2 -143 77 -234t206 -91q133 0 198.5 57.5t77.5 186.5h164q-39 -383 -467 -383q-139 0 -253 62t-163 163q-125 -227 -409 -227q-164 0 -255 66.5t-91 199.5zM330 248q0 -133 166 -133q106 0 176.5 74.5t70.5 179.5v149q-70 -53 -245 -86 q-168 -32 -168 -184zM985 602h475q0 18 -2 25q0 119 -55 198.5t-178 79.5q-117 0 -176.5 -80t-63.5 -200v-23z" />
<glyph unicode="&#xe7;" horiz-adv-x="1118" d="M66 516q0 229 157.5 376.5t386.5 147.5q176 0 300 -90t124 -223q0 -88 -44 -142.5t-132 -54.5q-72 0 -116 40t-44 102q0 49 34 79.5t77 34.5q-14 53 -65.5 89t-137.5 36q-121 0 -183.5 -102t-62.5 -295q0 -195 72 -296t207 -101q117 0 188.5 72.5t83.5 175.5h154 q0 -4 -1 -8.5t-1 -8.5q-8 -156 -124 -260t-316 -106l-17 -60q14 0 39 -12q143 -51 143 -158q0 -63 -47 -102t-129 -39q-70 0 -155 41l18 65q43 -25 82 -24q31 0 49.5 17.5t18.5 45.5q0 74 -115 103l35 127q-213 20 -346 166.5t-133 363.5z" />
<glyph unicode="&#xe8;" horiz-adv-x="1165" d="M66 508q0 231 154.5 381.5t387.5 150.5q211 0 350.5 -135t141.5 -360v-64h-748q2 -25 2 -37q2 -143 79 -233t210 -90q127 0 201 71.5t82 172.5h166q-4 -154 -131 -268.5t-345 -114.5q-236 0 -393 144t-157 382zM252 1346l147 176l283 -299l-88 -107zM356 596h482 q0 12 -2 16q0 123 -56.5 208t-177.5 85q-117 0 -179.5 -85t-66.5 -206v-18z" />
<glyph unicode="&#xe9;" horiz-adv-x="1165" d="M66 508q0 231 154.5 381.5t387.5 150.5q211 0 350.5 -135t141.5 -360v-64h-748q2 -25 2 -37q2 -143 79 -233t210 -90q127 0 201 71.5t82 172.5h166q-4 -154 -131 -268.5t-345 -114.5q-236 0 -393 144t-157 382zM356 596h482q0 12 -2 16q0 123 -56.5 208t-177.5 85 q-117 0 -179.5 -85t-66.5 -206v-18zM475 1221l283 299l149 -177l-342 -229z" />
<glyph unicode="&#xea;" horiz-adv-x="1165" d="M66 508q0 231 154.5 381.5t387.5 150.5q211 0 350.5 -135t141.5 -360v-64h-748q2 -25 2 -37q2 -143 79 -233t210 -90q127 0 201 71.5t82 172.5h166q-4 -154 -131 -268.5t-345 -114.5q-236 0 -393 144t-157 382zM246 1198l270 262h156l274 -262l-76 -86l-276 178 l-270 -180zM356 596h482q0 12 -2 16q0 123 -56.5 208t-177.5 85q-117 0 -179.5 -85t-66.5 -206v-18z" />
<glyph unicode="&#xeb;" horiz-adv-x="1165" d="M66 508q0 231 154.5 381.5t387.5 150.5q211 0 350.5 -135t141.5 -360v-64h-748q2 -25 2 -37q2 -143 79 -233t210 -90q127 0 201 71.5t82 172.5h166q-4 -154 -131 -268.5t-345 -114.5q-236 0 -393 144t-157 382zM244 1223q0 51 37.5 90t91 39t92.5 -38t39 -91.5t-39 -92 t-92.5 -38.5t-91 39t-37.5 92zM356 596h482q0 12 -2 16q0 123 -56.5 208t-177.5 85q-117 0 -179.5 -85t-66.5 -206v-18zM682 1222.5q0 53.5 39 91.5t92 38t91 -38t38 -91.5t-38 -92t-91 -38.5t-92 38.5t-39 92z" />
<glyph unicode="&#xec;" horiz-adv-x="716" d="M-45 1346l147 176l283 -299l-88 -107zM61 0v135h113q41 0 57.5 18.5t16.5 63.5v563q0 39 -22.5 61.5t-57.5 22.5h-107v131l437 4v-782q0 -82 84 -82h98v-135h-619z" />
<glyph unicode="&#xed;" horiz-adv-x="716" d="M61 0v135h113q41 0 57.5 18.5t16.5 63.5v563q0 39 -22.5 61.5t-57.5 22.5h-107v131l437 4v-782q0 -82 84 -82h98v-135h-619zM184 1221l283 299l149 -177l-342 -229z" />
<glyph unicode="&#xee;" horiz-adv-x="716" d="M-16 1198l270 262h156l274 -262l-76 -86l-276 178l-271 -180zM61 0v135h113q41 0 57.5 18.5t16.5 63.5v563q0 39 -22.5 61.5t-57.5 22.5h-107v131l437 4v-782q0 -82 84 -82h98v-135h-619z" />
<glyph unicode="&#xef;" horiz-adv-x="716" d="M-31 1219q0 51 38 90t91.5 39t92 -38t38.5 -91.5t-38.5 -92.5t-92 -39t-91.5 39.5t-38 92.5zM61 0v135h113q41 0 57.5 18.5t16.5 63.5v563q0 39 -22.5 61.5t-57.5 22.5h-107v131l437 4v-782q0 -82 84 -82h98v-135h-619zM408 1218.5q0 53.5 38.5 91.5t92 38t91.5 -38 t38 -91.5t-38 -92.5t-91.5 -39t-92 39t-38.5 92.5z" />
<glyph unicode="&#xf0;" horiz-adv-x="1271" d="M70 512q0 233 155.5 380.5t378.5 147.5q182 0 281 -120q-18 227 -94 360l-46 -31l-94 -57l-45 -31l-84 111l180 117q-72 59 -174 59q-121 0 -211 -57l-71 116q115 90 317 90q174 0 309 -100l140 92l84 -112l-117 -76q201 -236 201 -703q0 -340 -161 -528t-417 -188 q-248 0 -390 147t-142 383zM360 518q0 -199 72 -300t188.5 -101t187.5 100t71 293q0 197 -74 298t-184 101q-117 0 -189 -99t-72 -292z" />
<glyph unicode="&#xf1;" horiz-adv-x="1417" d="M68 864v131l426 6v-182q49 104 148 157.5t226 53.5q158 0 247 -82t89 -231v-486q0 -96 82 -96h94v-135h-587v135h81q80 0 80 92v443q0 90 -48 143t-132 53q-127 0 -199.5 -97t-72.5 -288v-256q0 -90 78 -90h84v-135h-594v135h98q84 0 84 96v543q0 90 -78 90h-106z M301 1159q2 4 9 19.5t13.5 30t6.5 18.5q82 168 221 168q76 0 182 -66q113 -72 156 -72q72 0 115 70q20 31 26 43l68 -47q-4 -12 -31 -68q-41 -90 -92 -127.5t-131 -37.5t-176 65q-102 70 -160 70q-70 0 -117 -74l-24 -37z" />
<glyph unicode="&#xf2;" horiz-adv-x="1241" d="M66 510q0 227 161.5 378.5t403.5 151.5q240 0 393.5 -145t153.5 -369q0 -227 -160 -385.5t-399.5 -158.5t-396 153.5t-156.5 374.5zM270 1346l148 176l282 -299l-88 -107zM356 520q0 -207 77 -306t190 -99q115 0 189.5 94t74.5 301q0 205 -76 301t-188 96 q-115 0 -191 -92t-76 -295z" />
<glyph unicode="&#xf3;" horiz-adv-x="1241" d="M66 510q0 227 161.5 378.5t403.5 151.5q240 0 393.5 -145t153.5 -369q0 -227 -160 -385.5t-399.5 -158.5t-396 153.5t-156.5 374.5zM356 520q0 -207 77 -306t190 -99q115 0 189.5 94t74.5 301q0 205 -76 301t-188 96q-115 0 -191 -92t-76 -295zM496 1221l282 299 l150 -177l-342 -229z" />
<glyph unicode="&#xf4;" horiz-adv-x="1241" d="M66 510q0 227 161.5 378.5t403.5 151.5q240 0 393.5 -145t153.5 -369q0 -227 -160 -385.5t-399.5 -158.5t-396 153.5t-156.5 374.5zM266 1198l271 262h155l275 -262l-76 -86l-277 178l-270 -180zM356 520q0 -207 77 -306t190 -99q115 0 189.5 94t74.5 301q0 205 -76 301 t-188 96q-115 0 -191 -92t-76 -295z" />
<glyph unicode="&#xf5;" horiz-adv-x="1241" d="M66 510q0 227 161.5 378.5t403.5 151.5q240 0 393.5 -145t153.5 -369q0 -227 -160 -385.5t-399.5 -158.5t-396 153.5t-156.5 374.5zM223 1159q2 4 9.5 19.5t13.5 30t6 18.5q82 168 221 168q76 0 182 -66q113 -72 156 -72q72 0 115 70q20 31 26 43l68 -47q-4 -12 -31 -68 q-41 -90 -92 -127.5t-131 -37.5t-176 65q-102 70 -160 70q-70 0 -117 -74l-24 -37zM356 520q0 -207 77 -306t190 -99q115 0 189.5 94t74.5 301q0 205 -76 301t-188 96q-115 0 -191 -92t-76 -295z" />
<glyph unicode="&#xf6;" horiz-adv-x="1241" d="M66 510q0 227 161.5 378.5t403.5 151.5q240 0 393.5 -145t153.5 -369q0 -227 -160 -385.5t-399.5 -158.5t-396 153.5t-156.5 374.5zM281 1219q0 51 37.5 90t91 39t92.5 -38t39 -91.5t-39 -92.5t-92.5 -39t-91 39.5t-37.5 92.5zM356 520q0 -207 77 -306t190 -99 q115 0 189.5 94t74.5 301q0 205 -76 301t-188 96q-115 0 -191 -92t-76 -295zM719 1218.5q0 53.5 39 91.5t92 38t91 -38t38 -91.5t-38 -92.5t-91 -39t-92 39t-39 92.5z" />
<glyph unicode="&#xf7;" horiz-adv-x="1357" d="M143 674v172h1080v-172h-1080zM528 367q0 61 45 106t107 45q63 0 109.5 -45t46.5 -106q0 -63 -46.5 -108.5t-109.5 -45.5q-61 0 -106.5 45.5t-45.5 108.5zM528 1151q0 63 45 108.5t107 45.5q63 0 109.5 -45.5t46.5 -108.5q0 -61 -46.5 -105.5t-109.5 -44.5 q-61 0 -106.5 44.5t-45.5 105.5z" />
<glyph unicode="&#xf8;" horiz-adv-x="1241" d="M66 510q0 227 161.5 378.5t403.5 151.5q188 0 330 -98l112 117l78 -70q-94 -98 -109 -115q135 -139 136 -348q0 -227 -160 -385.5t-400 -158.5q-188 0 -329 104l-105 -106l-78 69l101 103q-141 151 -141 358zM352 520q0 -102 31 -184l442 461q-72 115 -202 114 q-117 0 -194 -93t-77 -298zM420 223q76 -113 203 -112q115 0 190.5 95t75.5 304q0 102 -27 176z" />
<glyph unicode="&#xf9;" horiz-adv-x="1366" d="M33 864v131h418v-673q0 -90 50 -140.5t136 -50.5q121 0 193.5 106.5t72.5 297.5v235q0 94 -86 94h-100v131h436v-774q0 -86 74 -86h104v-135h-420v213q-45 -117 -144 -179.5t-222 -62.5q-154 0 -249 73t-95 224v502q0 94 -86 94h-82zM303 1346l148 176l282 -299l-88 -107 z" />
<glyph unicode="&#xfa;" horiz-adv-x="1366" d="M31 864v131h418v-673q0 -90 50 -140.5t136 -50.5q121 0 193.5 106.5t72.5 297.5v235q0 94 -86 94h-100v131h436v-774q0 -86 74 -86h104v-135h-420v213q-45 -117 -144 -179.5t-222 -62.5q-154 0 -249 73t-95 224v502q0 94 -86 94h-82zM510 1221l283 299l149 -177 l-342 -229z" />
<glyph unicode="&#xfb;" horiz-adv-x="1366" d="M31 864v131h418v-673q0 -90 50 -140.5t136 -50.5q121 0 193.5 106.5t72.5 297.5v235q0 94 -86 94h-100v131h436v-774q0 -86 74 -86h104v-135h-420v213q-45 -117 -144 -179.5t-222 -62.5q-154 0 -249 73t-95 224v502q0 94 -86 94h-82zM289 1196l270 262h156l274 -262 l-76 -86l-276 178l-270 -180z" />
<glyph unicode="&#xfc;" horiz-adv-x="1366" d="M31 864v131h418v-673q0 -90 50 -140.5t136 -50.5q121 0 193.5 106.5t72.5 297.5v235q0 94 -86 94h-100v131h436v-774q0 -86 74 -86h104v-135h-420v213q-45 -117 -144 -179.5t-222 -62.5q-154 0 -249 73t-95 224v502q0 94 -86 94h-82zM295 1219q0 51 39 90t90 39 q53 0 92 -38t39 -91.5t-39 -92.5t-92 -39t-91 39.5t-38 92.5zM733 1218.5q0 53.5 39 91.5t92.5 38t91 -38t37.5 -91.5t-37.5 -92.5t-91 -39t-92.5 39t-39 92.5z" />
<glyph unicode="&#xfd;" horiz-adv-x="1187" d="M6 -188q0 72 42 116.5t116 44.5q61 0 98 -35.5t37 -89.5q0 -57 -53 -96q12 -57 71 -57q70 0 121 60.5t115 248.5h-57l-314 752q-25 59 -48 83.5t-62 24.5h-62v131h561v-131h-86q-80 0 -49 -78l223 -546l211 538q8 18 9 43q0 43 -54 43h-88v131h441v-131h-39 q-59 0 -81 -23.5t-59 -115.5l-284 -711q-100 -248 -185.5 -342t-240.5 -94q-125 0 -204 67t-79 167zM541 1221l282 299l150 -177l-342 -229z" />
<glyph unicode="&#xfe;" horiz-adv-x="1329" d="M18 -266h97q86 0 86 96v1518q0 96 -76 96h-107v133h428v-707q96 160 340 160q209 0 342.5 -144.5t133.5 -377.5q0 -256 -142.5 -394.5t-343.5 -138.5q-115 0 -205 47.5t-120 110.5v-299q0 -100 81 -100h156v-131h-670v131zM445.5 505q3.5 -134 9.5 -163 q23 -104 90 -165.5t168 -61.5q115 0 186.5 99t71.5 271q0 190 -71 293t-191 103q-109 0 -175.5 -60.5t-82.5 -144.5q-9 -37 -5.5 -171z" />
<glyph unicode="&#xff;" horiz-adv-x="1187" d="M6 -188q0 72 42 116.5t116 44.5q61 0 98 -35.5t37 -89.5q0 -57 -53 -96q12 -57 71 -57q70 0 121 60.5t115 248.5h-57l-314 752q-25 59 -48 83.5t-62 24.5h-62v131h561v-131h-86q-80 0 -49 -78l223 -546l211 538q8 18 9 43q0 43 -54 43h-88v131h441v-131h-39 q-59 0 -81 -23.5t-59 -115.5l-284 -711q-100 -248 -185.5 -342t-240.5 -94q-125 0 -204 67t-79 167zM276 1219q0 51 38 90t91.5 39t92.5 -38t39 -91.5t-39 -92.5t-92.5 -39t-91.5 39.5t-38 92.5zM715 1218.5q0 53.5 39 91.5t92 38t91 -38t38 -91.5t-38 -92.5t-91 -39t-92 39 t-39 92.5z" />
<glyph unicode="&#x152;" horiz-adv-x="2586" d="M76 793q0 350 233.5 584.5t595.5 234.5q160 0 290 -17.5t208 -17.5h1091v-588h-163v86q0 197 -81 277t-270 80h-270q-61 0 -88 -31t-27 -94v-433h166q70 0 115 44.5t45 113.5v148h147v-772h-147v161q0 70 -46 114t-116 44h-164v-457q0 -66 26 -95.5t85 -29.5h274 q199 0 283 80t84 287v102h162v-614h-1071q-106 0 -244.5 -11.5t-296.5 -11.5q-369 0 -595 237t-226 579zM444 801q0 -326 125 -496t344 -170q217 0 294 62.5t77 261.5v624q0 117 -12 181.5t-53 110.5t-115 61.5t-201 15.5q-207 0 -333 -167t-126 -484z" />
<glyph unicode="&#x153;" horiz-adv-x="1970" d="M68 510q0 229 161.5 379.5t405.5 150.5q258 0 395 -184q47 88 144.5 136t230.5 48q211 0 344 -135t135 -360q0 -16 1 -34.5t1 -29.5h-733q2 -25 2 -37q2 -145 75 -234t206 -89q125 0 196.5 71.5t77.5 172.5h168q-14 -162 -134 -272.5t-335 -110.5q-125 0 -227.5 49 t-163.5 141q-143 -190 -397 -190q-240 0 -396.5 153.5t-156.5 374.5zM358 520q0 -207 77 -306t192 -99q113 0 187.5 94t74.5 301q0 205 -75 301t-187 96q-115 0 -192 -92t-77 -295zM1157 596h475q0 12 -2 16q-2 125 -57 209t-176 84q-115 0 -175.5 -84t-64.5 -207v-18z" />
<glyph unicode="&#x178;" horiz-adv-x="1763" d="M18 1432v145l785 -4v-150h-125q-57 0 -72.5 -30.5t17.5 -87.5l340 -547l342 563q27 41 10 71.5t-70 30.5h-135v150l633 4v-145h-76q-96 0 -147 -82l-473 -779v-286q0 -139 120 -140h213v-145h-987v145h209q117 0 117 140v293l-473 759q-59 94 -162 95h-66zM590 1761.5 q0 53.5 39 91t90 37.5q53 0 92 -37.5t39 -91t-39 -92.5t-92 -39t-91 39t-38 92.5zM1028 1761.5q0 53.5 39 91t92 37.5t91 -37.5t38 -91t-38 -92.5t-91 -39t-92 39t-39 92.5z" />
<glyph unicode="&#x2c6;" horiz-adv-x="972" d="M135 1192l271 262h155l275 -262l-76 -86l-277 178l-270 -180z" />
<glyph unicode="&#x2dc;" horiz-adv-x="972" d="M119 1169q2 4 9 19.5t13 30t6 18.5q82 168 222 168q76 0 182 -66q113 -72 156 -71q72 0 114 69q20 31 27 43l67 -47q-2 -12 -30 -67q-41 -90 -92.5 -128t-131 -38t-176.5 65q-102 70 -159 70q-70 0 -117 -74l-25 -37z" />
<glyph unicode="&#x2013;" horiz-adv-x="1478" d="M229 541v178h1033v-178h-1033z" />
<glyph unicode="&#x2014;" horiz-adv-x="1898" d="M61 541v178h1776v-178h-1776z" />
<glyph unicode="&#x2018;" horiz-adv-x="595" d="M106 1202q0 164 108 269.5t292 105.5v-115q-82 0 -132 -33.5t-50 -82.5q0 -39 57 -74q53 -33 76.5 -63.5t23.5 -73.5q0 -70 -48 -115t-120 -45q-92 0 -149.5 60.5t-57.5 166.5z" />
<glyph unicode="&#x2019;" horiz-adv-x="610" d="M100 993v115q84 0 134.5 34t50.5 83q0 39 -60 73q-100 57 -100 140q0 70 47 114.5t121 44.5q92 0 148.5 -60t56.5 -169q0 -166 -107 -270.5t-291 -104.5z" />
<glyph unicode="&#x201a;" horiz-adv-x="610" d="M100 -156q82 0 133.5 35t51.5 82q0 39 -60 74q-100 57 -100 139q0 68 47 114t121 46q92 0 148.5 -60.5t56.5 -169.5q0 -162 -109.5 -268t-288.5 -106v114z" />
<glyph unicode="&#x201c;" horiz-adv-x="1095" d="M106 1202q0 164 108 269.5t292 105.5v-115q-78 0 -130 -33.5t-52 -82.5q0 -39 57 -74q53 -33 76.5 -63.5t23.5 -73.5q0 -70 -48 -115t-120 -45q-92 0 -149.5 60.5t-57.5 166.5zM600 1202q0 166 106.5 270.5t288.5 104.5v-115q-78 0 -130 -33.5t-52 -82.5q0 -43 59 -74 q100 -53 101 -137q0 -70 -47 -115t-123 -45q-90 0 -146.5 60.5t-56.5 166.5z" />
<glyph unicode="&#x201d;" horiz-adv-x="1095" d="M96 993v115q84 0 134.5 31.5t50.5 85.5q0 39 -58 73q-100 57 -100 140q0 70 47 114.5t121 44.5q90 0 147.5 -60t57.5 -169q0 -164 -111 -269.5t-289 -105.5zM590 993v115q80 0 131 31.5t51 85.5q0 39 -57 73q-53 33 -78 64t-25 76q0 70 47.5 114.5t122.5 44.5 q92 0 148.5 -60t56.5 -169q0 -164 -108.5 -269.5t-288.5 -105.5z" />
<glyph unicode="&#x201e;" horiz-adv-x="1095" d="M96 -156q84 0 134.5 34t50.5 83q0 39 -58 74q-100 57 -100 139q0 68 47 114t121 46q90 0 147.5 -60.5t57.5 -169.5q0 -162 -111 -268t-289 -106v114zM590 -156q84 0 133 34t49 83q0 37 -57 74q-53 33 -78 63.5t-25 75.5q0 68 48.5 114t121.5 46q92 0 148.5 -60.5 t56.5 -169.5q0 -164 -108.5 -269t-288.5 -105v114z" />
<glyph unicode="&#x2022;" horiz-adv-x="1247" d="M178 641q0 184 130 314t314.5 130t314.5 -130t130 -314q0 -182 -130 -312t-314.5 -130t-314.5 130t-130 312z" />
<glyph unicode="&#x2026;" horiz-adv-x="1935" d="M137 153.5q0 77.5 55.5 133t135.5 55.5q78 0 133 -56.5t55 -131.5q0 -78 -55 -132.5t-133 -54.5q-80 0 -135.5 54.5t-55.5 132zM782 153.5q0 77.5 56.5 133t134.5 55.5q76 0 132 -56.5t56 -131.5q0 -78 -55 -132.5t-133 -54.5t-134.5 54.5t-56.5 132zM1427 154 q0 76 56.5 132t132.5 56q80 0 135 -55.5t55 -133t-55 -132t-135 -54.5q-78 0 -133.5 54.5t-55.5 132.5z" />
<glyph unicode="&#x2039;" horiz-adv-x="968" d="M98 512v111l776 467v-138l-514 -387l514 -383v-137z" />
<glyph unicode="&#x203a;" horiz-adv-x="968" d="M96 45v137l514 383l-514 387v138l776 -467v-111z" />
<glyph unicode="&#x20ac;" horiz-adv-x="1468" d="M31 500v153h108q-8 59 -8 140q0 14 1 42.5t1 45.5h-102v149h127q59 258 239.5 420t456.5 162q92 0 184 -22.5t172 -66.5t130.5 -119t50.5 -169q0 -80 -42 -135.5t-132 -55.5q-92 0 -132.5 44.5t-40.5 113.5q0 55 36 88t81 41q-59 143 -295 144q-322 0 -379 -445h416v-149 h-428q-2 -27 -2 -84q0 -80 6 -144h424v-153h-405q72 -377 364 -377q170 0 277.5 115.5t109.5 341.5v43h168v-41q0 -305 -165 -462t-423 -157q-248 0 -424 138.5t-239 398.5h-135z" />
<glyph unicode="&#x2122;" horiz-adv-x="2191" d="M90 1225v354h819v-354h-88v125q0 66 -36.5 100.5t-100.5 34.5h-106v-588q0 -82 63 -82h102v-96h-489v96h104q61 0 62 82v588h-107q-66 0 -101.5 -35t-35.5 -100v-125h-86zM936 719v96h65q63 0 64 82v506q0 80 -64 80h-59v96h354l240 -623l238 623h335v-96h-59 q-61 0 -61 -80v-506q0 -82 61 -82h59v-96h-403v96h63q59 0 60 82v576l-293 -754h-80l-295 749v-571q0 -82 64 -82h63v-96h-352z" />
<glyph unicode="&#xe000;" horiz-adv-x="995" d="M0 995h995v-995h-995v995z" />
<glyph unicode="&#xfb01;" horiz-adv-x="1415" d="M63 0v135h132q37 0 49 15.5t12 60.5v653h-188v131h118q72 0 72 78v55q0 213 123 343.5t373 130.5q197 0 311.5 -81t114.5 -204q0 -78 -43 -120t-117 -42q-70 0 -113 36t-43 95q0 88 74 115q-31 31 -47.5 43t-55 24.5t-94.5 12.5q-102 0 -168.5 -63.5t-66.5 -164.5v-258 h692v-782q0 -47 11.5 -62.5t52.5 -15.5h116v-135h-590v135h103q39 0 50 15.5t11 62.5v580q0 41 -12 56t-49 15h-387v-643q0 -53 13 -69.5t56 -16.5h103v-135h-613z" />
<glyph unicode="&#xfb02;" horiz-adv-x="1413" d="M63 0v135h132q37 0 49 15.5t12 60.5v653h-188v131h116q74 0 74 74v59q0 231 122 352.5t343 121.5q162 0 266 -60l209 35v-1360q0 -49 12.5 -65.5t53.5 -16.5h114v-135h-592v135h105q39 0 50 14.5t11 61.5v954q-57 2 -95 36t-38 83q0 39 23.5 75t66.5 48q-16 23 -31.5 36 t-53.5 25.5t-95 12.5q-104 0 -163.5 -60.5t-59.5 -181.5v-244h233v-131h-235v-645q0 -51 14 -67.5t57 -16.5h103v-135h-615z" />
<glyph unicode="&#xfb03;" horiz-adv-x="2379" d="M1724 0v135h119q39 0 53.5 15.5t14.5 60.5v569q0 39 -22.5 61.5t-57.5 22.5h-107v131l437 4v-788q0 -43 19.5 -59.5t62.5 -16.5h100v-135h-619zM1835 1401q0 74 53.5 127t128.5 53q74 0 127.5 -53t53.5 -127q0 -76 -53.5 -128t-127.5 -52q-76 0 -129 52t-53 128zM892 0 v131l134 4q35 2 48 15.5t13 52.5v661h-188v131h135q55 0 55 60v73q0 221 102.5 345t301.5 124q156 0 243.5 -76.5t87.5 -189.5q0 -76 -42 -120t-109 -44q-61 0 -100.5 36t-39.5 87q0 70 56 101q16 10 16 22q0 63 -112 64q-74 0 -113 -53.5t-39 -147.5v-281h240v-131h-242 v-647q0 -49 16.5 -64.5t63.5 -17.5l166 -4v-131h-693zM61 0v131l134 4q35 2 48 15.5t13 52.5v661h-188v131h135q55 0 55 60v73q0 221 102.5 345t301.5 124q156 0 243.5 -76.5t87.5 -189.5q0 -76 -42 -120t-109 -44q-61 0 -100.5 36t-39.5 87q0 70 56 101q16 10 16 22 q0 63 -112 64q-74 0 -113 -53.5t-39 -147.5v-281h240v-131h-242v-647q0 -49 16.5 -64.5t63.5 -17.5l166 -4v-131h-693z" />
<glyph unicode="&#xfb04;" horiz-adv-x="2392" d="M1724 0v135h115q76 0 76 82v1147q0 80 -76 80h-108v133l436 6v-1364q0 -84 82 -84h106v-135h-631zM892 0v131l134 4q35 2 48 15.5t13 52.5v661h-188v131h135q55 0 55 60v73q0 221 102.5 345t301.5 124q156 0 243.5 -76.5t87.5 -189.5q0 -76 -42 -120t-109 -44 q-61 0 -100.5 36t-39.5 87q0 70 56 101q16 10 16 22q0 63 -112 64q-74 0 -113 -53.5t-39 -147.5v-281h240v-131h-242v-647q0 -49 16.5 -64.5t63.5 -17.5l166 -4v-131h-693zM61 0v131l134 4q35 2 48 15.5t13 52.5v661h-188v131h135q55 0 55 60v73q0 221 102.5 345t301.5 124 q156 0 243.5 -76.5t87.5 -189.5q0 -76 -42 -120t-109 -44q-61 0 -100.5 36t-39.5 87q0 70 56 101q16 10 16 22q0 63 -112 64q-74 0 -113 -53.5t-39 -147.5v-281h240v-131h-242v-647q0 -49 16.5 -64.5t63.5 -17.5l166 -4v-131h-693z" />
</font>
</defs>
</svg>
