<?xml version="1.0" standalone="no"?>
<!DOCTYPE svg PUBLIC "-//W3C//DTD SVG 1.1//EN" "http://www.w3.org/Graphics/SVG/1.1/DTD/svg11.dtd" >
<svg xmlns="http://www.w3.org/2000/svg">
<metadata>
This is a custom SVG webfont generated by Font Squirrel.
Copyright   : Copyright c The Font Bureau Inc 2003 All rights reserved
Designer    : David Berlow
Foundry     : The Font Bureau Inc
Foundry URL : httpwwwfontbureaucom
</metadata>
<defs>
<font id="BelizioRegular" horiz-adv-x="1206" >
<font-face units-per-em="2048" ascent="1628" descent="-420" />
<missing-glyph horiz-adv-x="700" />
<glyph unicode=" "  horiz-adv-x="700" />
<glyph unicode="&#x09;" horiz-adv-x="700" />
<glyph unicode="&#xa0;" horiz-adv-x="700" />
<glyph unicode="!" horiz-adv-x="585" d="M145 114.5q0 61.5 44 104.5t104 43q61 0 105 -43t44 -104.5t-44 -103.5t-105.5 -42t-104.5 42t-43 103.5zM174 1329q0 283 121 283t121 -283q0 -84 -20.5 -242.5t-22.5 -185.5q-27 -301 -27 -514h-98q0 227 -29 514q-4 45 -17.5 132t-20.5 160t-7 136z" />
<glyph unicode="&#x22;" horiz-adv-x="952" d="M154 1380q0 199 116 199q115 0 115 -199q0 -63 -41 -272q-23 -113 -22 -301h-103q0 168 -22 301q-6 31 -18.5 91.5t-18.5 100t-6 80.5zM567 1380q0 199 117 199q115 0 115 -199q0 -63 -41 -272q-23 -113 -23 -301h-100q0 170 -25 301q-4 25 -14 72t-15.5 71.5t-9.5 60 t-4 68.5z" />
<glyph unicode="#" horiz-adv-x="1777" d="M90 467v125h373l182 399h-428v125h485l211 461h138l-211 -461h381l209 461h139l-211 -461h334v-125h-389l-185 -399h447v-125h-502l-213 -467h-137l211 467h-379l-213 -467h-137l213 467h-318zM602 592h379l182 399h-379z" />
<glyph unicode="$" horiz-adv-x="1263" d="M74 377q0 72 48 120t118 48q66 0 103.5 -40t37.5 -108q0 -61 -40 -89.5t-91 -28.5q47 -174 315 -189v617l-114 30q-362 98 -363 400q0 190 136 307t341 129v94h109v-94q211 -14 345 -117.5t134 -245.5q0 -182 -147 -182q-70 0 -110 37t-40 109q0 55 40 86.5t81 31.5 q-20 76 -98 128.5t-205 62.5v-617l90 -28q240 -76 331 -161t91 -241q0 -197 -141.5 -309.5t-370.5 -124.5v-235h-109v233q-223 10 -357 109.5t-134 267.5zM252 1182q0 -106 71.5 -173t241.5 -114v588q-137 -12 -225 -91t-88 -210zM674 92q168 10 258 88t90 221 q0 102 -76 162t-272 117v-588z" />
<glyph unicode="%" horiz-adv-x="2136" d="M92 1087q0 213 126 350.5t308 137.5q180 0 303 -139.5t123 -327.5q0 -209 -125 -354.5t-309 -145.5q-182 0 -304 142t-122 337zM276 1092q0 -182 59.5 -291t184.5 -109q121 0 182.5 118t61.5 282q0 174 -60.5 286.5t-183.5 112.5q-125 0 -184.5 -112.5t-59.5 -286.5z M651 0l717 1577h121l-721 -1577h-117zM1196 469q0 213 127 350t311 137q180 0 301 -139t121 -330q0 -207 -125 -352t-309 -145q-180 0 -303 141t-123 338zM1380 473q0 -180 59.5 -289.5t184.5 -109.5q123 0 184.5 117.5t61.5 281.5q0 174 -60.5 286.5t-185.5 112.5 q-123 0 -183.5 -112.5t-60.5 -286.5z" />
<glyph unicode="&#x26;" horiz-adv-x="1800" d="M68 451q0 342 393 526q-35 129 -35 250q0 172 91 276.5t239 104.5q131 0 212 -75t81 -198q0 -106 -99.5 -196t-285.5 -189q59 -150 172 -325q119 -188 229 -306q197 217 197 490q0 39 -20.5 61.5t-49.5 22.5h-113v102h535v-102h-135q-41 0 -62.5 -22.5t-27.5 -77.5 q-35 -324 -242 -555q141 -121 254 -121q127 0 190.5 78.5t63.5 212.5v22h108v-24q0 -193 -104.5 -304.5t-284.5 -111.5q-186 0 -348 133q-184 -143 -465 -143q-213 0 -353 142.5t-140 328.5zM285 522q0 -184 106.5 -295.5t280.5 -111.5q137 0 262 88q-127 121 -247 296 t-191 363q-121 -72 -166 -145.5t-45 -194.5zM594 1282q0 -113 33 -223q145 74 202.5 131t57.5 147q0 68 -36 114t-106 46q-151 0 -151 -215z" />
<glyph unicode="'" horiz-adv-x="495" d="M135 1380q0 199 117 199t117 -199q0 -82 -41 -272q-25 -113 -25 -301h-100q0 170 -25 301q-4 25 -14 72t-15.5 71.5t-9.5 60t-4 68.5z" />
<glyph unicode="(" horiz-adv-x="985" d="M111 709q0 295 183 522t497 383l38 -70q-242 -131 -369.5 -332.5t-127.5 -531.5q0 -172 29.5 -299t97 -225.5t152.5 -169t218 -148.5l-43 -63q-340 186 -507.5 408.5t-167.5 525.5z" />
<glyph unicode=")" horiz-adv-x="985" d="M156 -162q133 80 217 150.5t151.5 168t97 224.5t29.5 299q0 330 -128 531.5t-367 332.5l39 70q313 -156 496 -383t183 -522q0 -303 -167.5 -525.5t-507.5 -408.5z" />
<glyph unicode="*" horiz-adv-x="1048" d="M25 1139l110 331l82 -28l-22 -78q-16 -39 28 -55l254 -82v256q0 45 -45 45l-78 2v84h353v-84l-80 -2q-47 0 -47 -45v-258l245 80q43 14 27 57l-23 76l84 28l109 -333l-84 -25l-25 72q-14 41 -57 28l-242 -80l154 -215q27 -35 66 -6l59 45l51 -73l-285 -205l-49 71l66 50 q33 25 8 61l-158 215l-153 -217q-25 -37 10 -61l63 -48l-53 -69l-282 203l51 71l63 -45q37 -27 64 8l153 217l-249 80q-41 14 -56 -28l-28 -74z" />
<glyph unicode="+" horiz-adv-x="1306" d="M137 721v115h459v446h117v-446h456v-115h-456v-461h-117v461h-459z" />
<glyph unicode="," horiz-adv-x="544" d="M96 -197h19q74 0 116.5 37t42.5 90q0 35 -12 53.5t-47 30.5l-20 9q-76 29 -76 118q0 59 40 100.5t99 41.5q84 0 134 -57.5t50 -164.5q0 -137 -97 -242.5t-226 -105.5h-23v90z" />
<glyph unicode="-" horiz-adv-x="993" d="M160 655v152h665v-152h-665z" />
<glyph unicode="." horiz-adv-x="544" d="M117 131.5q0 63.5 46 109.5t109.5 46t109.5 -46t46 -109.5t-45 -109t-110.5 -45.5t-110.5 45.5t-45 109z" />
<glyph unicode="/" horiz-adv-x="980" d="M57 0l754 1577h123l-756 -1577h-121z" />
<glyph unicode="0" horiz-adv-x="1245" d="M76 793q0 336 156.5 567t390 231t390 -231.5t156.5 -566.5q0 -338 -157.5 -573.5t-389 -235.5t-389 235.5t-157.5 573.5zM301 793q0 -397 79 -553t242.5 -156t242.5 155.5t79 553.5q0 395 -79 550.5t-242.5 155.5t-242.5 -155.5t-79 -550.5z" />
<glyph unicode="1" horiz-adv-x="1011" d="M57 1034v82q188 16 319.5 144.5t168.5 316.5h147v-1364q0 -59 24.5 -85t82.5 -26h149v-102h-768v102h211q57 0 81 26t24 85v987q-156 -152 -439 -166z" />
<glyph unicode="2" horiz-adv-x="1234" d="M104 0v145q0 174 89.5 304.5t353.5 259.5q6 4 17 8t14 6q178 92 249.5 189.5t71.5 242.5q0 160 -82 245t-233 85q-158 0 -245 -86t-87 -205q20 10 57 10q57 0 95 -38t38 -93q0 -61 -45 -98t-110 -37q-180 0 -181 231q0 156 138.5 287t363.5 131q227 0 368.5 -118.5 t141.5 -305.5q0 -158 -108.5 -272.5t-386.5 -255.5q-4 -4 -14.5 -8t-16.5 -9q-193 -96 -272.5 -178t-88.5 -180q0 -4 -1 -14t-1 -17q27 55 92.5 89t135.5 34q72 0 125 -24.5t127 -77.5q129 -94 192 -94q137 0 137 252v77h107v-92q0 -205 -83 -309t-226 -104q-147 0 -258 112 q-98 102 -185 103q-156 0 -155 -195h-134z" />
<glyph unicode="3" horiz-adv-x="1232" d="M102 348q0 80 43 131t117 51q53 0 89 -33.5t36 -93.5q0 -51 -38 -79.5t-97 -20.5q14 -98 90 -154.5t211 -56.5q322 0 321 346q0 156 -92 231.5t-258 75.5h-88v109h86q152 0 239 81t87 220q0 172 -80 253t-205 81q-131 0 -200.5 -58.5t-77.5 -146.5q63 4 99 -23.5t36 -81 t-34 -85t-91 -31.5q-70 0 -110 51t-40 137q0 129 123 234.5t314 105.5q199 0 342 -118.5t143 -309.5q0 -143 -90 -233t-236 -123q158 -35 255.5 -135.5t97.5 -231.5q0 -209 -154 -330.5t-395 -121.5q-193 0 -318 106.5t-125 253.5z" />
<glyph unicode="4" horiz-adv-x="1263" d="M96 461v119l676 997h176v-1004h213v-112h-213v-248q0 -59 23.5 -85t81.5 -26h127v-102h-721v102h186q57 0 82 26t25 85v248h-656zM236 573h516v756z" />
<glyph unicode="5" horiz-adv-x="1185" d="M86 360q0 90 47 141.5t127 51.5q66 0 106 -35t40 -98q0 -59 -39 -94t-105 -39q0 -80 76 -145.5t221 -65.5q150 0 234 120.5t84 360.5q0 180 -94.5 287.5t-254.5 107.5q-117 0 -178 -59t-76 -141h-108l45 825q76 4 111 8q39 -80 299 -80q119 0 204.5 21.5t130.5 45 t54 25.5q12 2 16 -3t0 -17q-8 -31 -48 -81t-95 -79q-150 -78 -346 -78q-49 0 -108.5 6.5t-94.5 10.5l-35 6l-23 -424q113 121 322 121q217 0 355.5 -145.5t138.5 -340.5q0 -270 -157 -430.5t-382 -160.5q-217 0 -342 115.5t-125 262.5z" />
<glyph unicode="6" horiz-adv-x="1185" d="M96 743q0 401 162 623.5t408 222.5q170 0 286.5 -88t116.5 -227q0 -76 -43 -120t-115 -44q-66 0 -103.5 37t-37.5 100q0 53 38 86t85 33q-37 129 -234 129q-164 0 -256 -160.5t-92 -474.5v-84q45 72 132 124t202 52q215 0 345 -132t130 -341q0 -215 -145.5 -359.5 t-345.5 -144.5q-221 0 -377 200.5t-156 567.5zM348 477q0 -188 83 -297.5t208 -109.5q121 0 198.5 108.5t77.5 294.5q0 184 -82.5 282.5t-203.5 98.5q-123 0 -202 -100.5t-79 -276.5z" />
<glyph unicode="7" horiz-adv-x="1214" d="M115 1032v154q0 203 67.5 309.5t194.5 106.5q68 0 124 -34t90 -75t88 -75t118 -34q86 0 134 61.5t48 149.5h133v-231q0 -135 -52 -243.5t-210 -315.5q-113 -147 -143.5 -232.5t-30.5 -212.5q0 -246 -19.5 -314.5t-89.5 -68.5q-59 0 -84.5 51.5t-25.5 176.5t33.5 223 t121.5 215q8 8 55.5 72.5t57.5 77.5q164 211 210 308t46 222v41q-94 -164 -233 -164q-72 0 -134.5 33t-96.5 71.5t-77 71.5t-82 33q-68 0 -100.5 -60.5t-32.5 -199.5v-117h-110z" />
<glyph unicode="8" horiz-adv-x="1239" d="M94 401q0 260 305 381q-147 66 -220 158t-73 231q0 166 143.5 291t366.5 125q195 0 337.5 -108.5t142.5 -268.5q0 -123 -75 -222t-206 -152q123 -47 201 -119t102.5 -134.5t24.5 -127.5q0 -215 -158 -344t-401 -129q-211 0 -350.5 117.5t-139.5 301.5zM274 414 q0 -156 86 -246t244 -90q166 0 255 88t89 233q0 94 -60.5 159t-199.5 116q-133 49 -164 49q-20 0 -58 -18.5t-82 -52.5t-77 -97t-33 -141zM287 1198q0 -94 70.5 -152.5t201.5 -113.5q63 -27 139 -51q215 94 215 309q0 129 -78.5 214t-232.5 85q-139 0 -227 -82t-88 -209z " />
<glyph unicode="9" d="M84 1096q0 219 143.5 361t352.5 142q223 0 375.5 -200.5t152.5 -567.5q0 -401 -162 -624t-407 -223q-172 0 -291 87t-119 224q0 76 44 122t118 46q63 0 99 -38t36 -97q0 -55 -36 -86t-87 -33q39 -129 242 -129q164 0 256 160.5t92 474.5v71q-53 -88 -142 -131t-192 -43 q-215 0 -345 136.5t-130 347.5zM289 1102q0 -186 83 -288.5t203 -102.5q123 0 202 104.5t79 282.5q0 188 -83 296.5t-208 108.5q-121 0 -198.5 -108.5t-77.5 -292.5z" />
<glyph unicode=":" horiz-adv-x="544" d="M117 133.5q0 63.5 46 109.5t109.5 46t109.5 -46t46 -109.5t-45 -108.5t-110.5 -45t-110.5 45t-45 108.5zM117 889q0 66 46 110.5t109.5 44.5t109.5 -45t46 -110q0 -63 -45 -108.5t-110.5 -45.5t-110.5 45.5t-45 108.5z" />
<glyph unicode=";" horiz-adv-x="544" d="M96 -197h19q74 0 116.5 37t42.5 90q0 35 -12 53.5t-47 30.5l-20 9q-76 29 -76 118q0 59 40 100.5t99 41.5q84 0 134 -57.5t50 -164.5q0 -137 -97 -242.5t-226 -105.5h-23v90zM125 889q0 66 46 110.5t109.5 44.5t109.5 -45t46 -110q0 -63 -45 -108.5t-110.5 -45.5 t-110.5 45.5t-45 108.5z" />
<glyph unicode="&#x3c;" horiz-adv-x="1167" d="M186 635v123l676 522l64 -92l-607 -477l625 -467l-74 -109z" />
<glyph unicode="=" horiz-adv-x="1167" d="M123 473v109h934v-109h-934zM123 803v110h934v-110h-934z" />
<glyph unicode="&#x3e;" horiz-adv-x="1167" d="M186 225l627 461l-620 490l77 98l672 -516v-123l-684 -500z" />
<glyph unicode="?" horiz-adv-x="1050" d="M100 1266q0 131 117 236.5t289 105.5q203 0 321.5 -100.5t118.5 -266.5q0 -121 -53 -209t-186.5 -204.5t-171 -177t-37.5 -136.5l10 -100q-84 -8 -111 -8q-18 74 -18 116q0 92 47 173t182 212q76 76 110 154t34 182q0 127 -68 195.5t-178.5 68.5t-176 -45t-77.5 -116 q72 2 113 -32t41 -91q0 -55 -39 -92t-109 -37t-114 47t-44 125zM317 114.5q0 61.5 43 104.5t104.5 43t104.5 -43t43 -104.5t-43 -103.5t-104.5 -42t-104.5 42t-43 103.5z" />
<glyph unicode="@" horiz-adv-x="2105" d="M127 678q0 281 136 496t362.5 326.5t498.5 111.5q389 0 634 -193.5t245 -529.5q0 -299 -155.5 -481.5t-383.5 -182.5q-74 0 -125 52.5t-41 146.5q-39 -100 -131 -155.5t-217 -55.5q-172 0 -279.5 104.5t-107.5 338t158 396t354 162.5q176 0 260 -131l45 121h150 l-129 -674q-43 -225 86 -225q180 0 306 152.5t126 431.5q0 305 -211 474t-584 169q-246 0 -451.5 -102.5t-332.5 -300t-127 -451.5q0 -350 235.5 -562t616.5 -212q262 0 431 60.5t349 207.5l43 -68q-213 -158 -390 -218t-433 -60q-414 0 -676 231.5t-262 620.5zM752 629 q0 -180 57 -258t168 -78q94 0 163.5 63.5t90.5 182.5l82 454q-74 137 -221 137q-127 0 -233.5 -148t-106.5 -353z" />
<glyph unicode="A" horiz-adv-x="1796" d="M18 0v102h45q102 0 134 25t75 135l521 1315h208l525 -1315q41 -102 75.5 -131t116.5 -29h60v-102h-701v102h144q84 0 100 27q6 9 6 23q0 26 -20 69l-105 268h-706l-101 -258q-23 -57 -23 -85q0 -13 5 -20q14 -24 100 -24h148v-102h-607zM537 598h622l-311 795z" />
<glyph unicode="B" horiz-adv-x="1595" d="M88 0v102h150q63 0 79.5 25t16.5 96v1112q0 74 -17.5 107t-78.5 33h-150v102h811q266 0 410.5 -105.5t144.5 -302.5q0 -141 -91 -236t-237 -128q156 -6 268.5 -114.5t112.5 -268.5q0 -139 -89 -238.5t-212 -141.5t-260 -42h-858zM553 223q0 -68 25.5 -94.5t91.5 -26.5 h237q170 0 256 85t86 237q0 147 -85 235.5t-234 88.5h-377v-525zM553 852h344q152 0 236 86t84 229q0 150 -84 229t-236 79h-248q-61 0 -78.5 -26t-17.5 -95v-502z" />
<glyph unicode="C" horiz-adv-x="1634" d="M88 793q0 152 48 293t140.5 260.5t247 192.5t350.5 73q111 0 213.5 -34t167 -66.5t84.5 -32.5q59 0 60 98h98v-594h-113v45q0 188 -152.5 328.5t-363.5 140.5q-252 0 -388 -176t-136 -528q0 -346 134 -534.5t390 -188.5q233 0 378 133t145 379v24h120v-22 q0 -289 -184 -458t-463 -169q-190 0 -341.5 69.5t-244 188.5t-141.5 266.5t-49 311.5z" />
<glyph unicode="D" horiz-adv-x="1828" d="M88 0v102h150q61 0 78.5 33t17.5 109v1116q0 70 -16.5 92.5t-79.5 22.5h-150v102h858q352 0 583.5 -221t231.5 -559q0 -352 -227 -574.5t-588 -222.5h-858zM553 244q0 -74 18.5 -108t77.5 -34h250q326 0 465 179.5t139 517.5q0 279 -152.5 477.5t-420.5 198.5h-266 q-68 0 -89.5 -24t-21.5 -91v-1116z" />
<glyph unicode="E" horiz-adv-x="1638" d="M88 0v102h150q63 0 79.5 25t16.5 96v1131q0 72 -16.5 96.5t-79.5 24.5h-150v102h1448v-563h-113l-4 160q-6 301 -303 301h-467q-61 0 -78.5 -26t-17.5 -95v-502h256q78 0 121 48t47 136l6 152h104v-782h-104l-6 196q-2 82 -43 115t-125 33h-256v-527q0 -70 17.5 -95.5 t78.5 -25.5h400q219 0 296.5 78t88.5 305l4 105h112v-590h-1462z" />
<glyph unicode="F" horiz-adv-x="1587" d="M88 0v102h150q63 0 79.5 25t16.5 96v1112q0 74 -17.5 107t-78.5 33h-150v102h1421v-592h-112l-4 174q-4 193 -85 254.5t-255 61.5h-404q-59 0 -77.5 -33t-18.5 -107v-499h229q80 0 129.5 50t51.5 134l4 158h104v-785h-104l-4 154q-6 184 -181 184h-229v-508 q0 -70 17.5 -95.5t78.5 -25.5h242v-102h-803z" />
<glyph unicode="G" horiz-adv-x="1798" d="M78 793q0 150 52 293t147.5 261.5t251 191.5t345.5 73q113 0 209.5 -29t166 -64.5t85.5 -39.5q29 -8 46.5 18.5t17.5 79.5h98v-594h-113l-6 119q-8 190 -144 292.5t-366 102.5q-240 0 -387 -174t-147 -530q0 -340 156.5 -531.5t408.5 -191.5q182 0 307 113.5t125 289.5 v41q0 82 -24.5 113.5t-94.5 31.5h-202v109h757v-102h-120q-55 0 -77 -28t-22 -89v-555h-96l-66 199q-154 -236 -495 -236q-190 0 -347 70.5t-257.5 188.5t-154.5 266.5t-54 310.5z" />
<glyph unicode="H" horiz-adv-x="1951" d="M88 0v102h150q63 0 79.5 25t16.5 96v1131q0 72 -16.5 96.5t-79.5 24.5h-150v102h711v-102h-150q-61 0 -78.5 -26t-17.5 -95v-490h846v490q0 70 -17.5 95.5t-78.5 25.5h-152v102h713v-102h-150q-63 0 -80.5 -26t-17.5 -95v-1131q0 -70 17.5 -95.5t80.5 -25.5h150v-102 h-713v102h152q61 0 78.5 26t17.5 95v520h-846v-520q0 -70 17.5 -95.5t78.5 -25.5h150v-102h-711z" />
<glyph unicode="I" horiz-adv-x="888" d="M88 0v102h150q63 0 79.5 25t16.5 96v1131q0 72 -16.5 96.5t-79.5 24.5h-150v102h713v-102h-152q-61 0 -78.5 -26t-17.5 -95v-1131q0 -70 17.5 -95.5t78.5 -25.5h152v-102h-713z" />
<glyph unicode="J" horiz-adv-x="1140" d="M51 279q0 72 42 122t114 50q66 0 105.5 -39t39.5 -95q0 -86 -84 -110q-10 -2 -10 -12q0 -41 53.5 -77t134.5 -36q193 0 193 295v977q0 70 -17.5 95.5t-80.5 25.5h-193v102h744v-102h-140q-61 0 -78.5 -26t-17.5 -95v-948q0 -205 -119 -318t-293 -113q-168 0 -280.5 92.5 t-112.5 211.5z" />
<glyph unicode="K" horiz-adv-x="1871" d="M88 0v102h150q63 0 79.5 25t16.5 96v1131q0 72 -16.5 96.5t-79.5 24.5h-150v102h713v-102h-152q-61 0 -78.5 -26t-17.5 -95v-598l686 618q45 39 45 68q0 33 -59 33h-119v102h631v-102h-86q-59 0 -97 -16.5t-102 -72.5l-528 -462l592 -686q117 -135 241 -136h76v-102h-748 v102h152q31 0 49.5 11.5t18.5 25.5q0 29 -31 66l-502 583l-219 -190v-375q0 -70 17.5 -95.5t78.5 -25.5h152v-102h-713z" />
<glyph unicode="L" horiz-adv-x="1554" d="M88 0v102h150q63 0 79.5 25t16.5 96v1131q0 72 -16.5 96.5t-79.5 24.5h-150v102h774v-102h-213q-61 0 -78.5 -26t-17.5 -95v-1131q0 -70 17.5 -95.5t78.5 -25.5h346q203 0 284 85t87 305l4 149h107v-641h-1389z" />
<glyph unicode="M" horiz-adv-x="2330" d="M88 0v102h129q117 0 117 142v1091q0 139 -117 140h-129v102h545l534 -1264l529 1264h547v-102h-152q-63 0 -79.5 -25t-16.5 -96v-1131q0 -72 16.5 -96.5t79.5 -24.5h152v-102h-725v102h161q63 0 80 25t17 96v1209l-611 -1432h-88l-614 1427v-1183q0 -141 117 -142h133 v-102h-625z" />
<glyph unicode="N" horiz-adv-x="1992" d="M88 0v102h127q117 0 117 142v1091q0 139 -117 140h-127v102h512l924 -1395v1153q0 139 -117 140h-186v102h684v-102h-125q-117 0 -117 -140v-1335h-258l-932 1378v-1134q0 -141 117 -142h176v-102h-678z" />
<glyph unicode="O" horiz-adv-x="1787" d="M78 792.5q0 217.5 103.5 403.5t293 300t422.5 114q240 0 428 -115t286.5 -298t98.5 -394q0 -217 -97 -407.5t-288.5 -313.5t-435.5 -123q-240 0 -428.5 120t-285.5 308t-97 405.5zM334 803q0 -328 158.5 -529.5t406.5 -201.5q252 0 403.5 198.5t151.5 522.5 q0 317 -159.5 510.5t-409.5 193.5q-233 0 -392 -190.5t-159 -503.5z" />
<glyph unicode="P" horiz-adv-x="1521" d="M88 0v102h129q117 0 117 142v1091q0 139 -117 140h-129v102h766q272 0 431 -124t159 -314q0 -219 -163 -341t-441 -122h-287v-432q0 -141 117 -142h215v-102h-797zM553 788h238q221 0 308 90.5t87 249.5q0 162 -88 254.5t-269 92.5h-159q-117 0 -117 -140v-547z" />
<glyph unicode="Q" horiz-adv-x="1808" d="M78 792.5q0 217.5 103.5 403.5t293 301t422.5 115q238 0 427 -116t287.5 -299t98.5 -394q0 -231 -115.5 -436t-318.5 -312q51 -135 97 -178t120 -43q84 0 127 68.5t43 179.5v16h109v-39q0 -158 -87.5 -256t-226.5 -98q-315 0 -379 277q-94 -23 -190 -23 q-240 0 -428.5 120t-285.5 308t-97 405.5zM334 803q0 -262 106 -449q29 104 122 171t216 67q164 0 269.5 -93t179.5 -306q227 195 227 600q0 317 -159.5 510.5t-409.5 193.5q-233 0 -392 -190.5t-159 -503.5zM524 236q154 -164 375 -164q80 0 143 20q-86 379 -299 379 q-86 0 -151.5 -58t-67.5 -177z" />
<glyph unicode="R" horiz-adv-x="1806" d="M88 0v102h129q117 0 117 142v1091q0 139 -117 140h-129v102h819q274 0 438 -114.5t164 -309.5q0 -156 -113.5 -254t-285.5 -141q145 -20 215 -131t78 -267l4 -77q6 -113 34.5 -158t82.5 -45q57 0 86.5 39t29.5 133v88h103v-70q0 -150 -66.5 -228.5t-191.5 -78.5 q-117 0 -205 66.5t-98 203.5q-8 88 -19 175q-18 162 -99 239.5t-243 77.5h-268v-481q0 -141 117 -142h157v-102h-739zM553 829h295q403 0 403 316q0 170 -109.5 250t-303.5 80h-168q-117 0 -117 -140v-506z" />
<glyph unicode="S" horiz-adv-x="1441" d="M119 1147q0 186 148.5 325.5t408.5 139.5q121 0 211 -29t144 -57.5t89 -28.5q55 0 56 82h100v-563h-115v47q0 186 -125 309t-354 123q-156 0 -258 -77t-102 -222q0 -131 89 -189.5t312 -97.5l145 -24q231 -39 355.5 -141.5t124.5 -297.5q0 -201 -175.5 -335t-424.5 -134 q-121 0 -211.5 29t-147.5 57.5t-96 28.5q-51 0 -51 -92h-103v602h115v-33q0 -215 134 -347t357 -132q182 0 293 86t111 236q0 115 -94 177t-340 103l-123 21q-473 80 -473 434z" />
<glyph unicode="T" horiz-adv-x="1658" d="M88 924v653h1485v-653h-115v299q0 121 -74.5 185.5t-199.5 64.5h-242v-1229q0 -141 117 -142h217v-102h-887v102h217q117 0 117 142v1229h-246q-127 0 -201.5 -65t-74.5 -185v-299h-113z" />
<glyph unicode="U" horiz-adv-x="1845" d="M70 1475v102h712v-102h-155q-59 0 -77 -25t-18 -94v-813q0 -246 120 -356.5t315 -110.5q217 0 328.5 121.5t111.5 353.5v805q0 70 -17.5 94.5t-76.5 24.5h-156v102h610v-102h-120q-66 0 -82.5 -24t-16.5 -95v-774q0 -623 -604 -623q-313 0 -471 150.5t-158 429.5v817 q0 70 -17 94.5t-77 24.5h-151z" />
<glyph unicode="V" horiz-adv-x="1769" d="M12 1475v102l701 -6v-105h-170q-49 0 -65 -20q-7 -9 -6 -27q0 -24 11 -63l455 -1163l432 1153q13 35 13 60q0 60 -76 60h-146v105l596 6v-102h-51q-88 0 -131 -34t-78 -126l-500 -1315h-206l-527 1315q-39 96 -73.5 128t-118.5 32h-60z" />
<glyph unicode="W" horiz-adv-x="2590" d="M12 1475v102l680 -6v-105h-123q-78 0 -95 -20q-7 -8 -7 -24q0 -24 16 -66l439 -1172l315 807l-150 375q-27 63 -54 81.5t-99 18.5h-57v105h661v-105h-121q-78 0 -96 -25q-8 -10 -8 -28q0 -25 16 -65l436 -1164l443 1162q17 40 17 66q0 15 -6 26q-15 29 -93 28h-141v105 l595 6v-102h-51q-80 0 -122 -35t-76 -125l-510 -1315h-207l-311 823l-324 -823h-209l-506 1315q-35 86 -78 123t-114 37h-60z" />
<glyph unicode="X" horiz-adv-x="1753" d="M25 0v102h53q133 0 213 95l485 581l-465 594q-80 102 -209 103h-55v102l711 -6v-105h-117q-85 0 -85 -41q0 -26 34 -69l323 -416l363 434q29 37 29 59q0 6 -2 11q-10 23 -62 22h-164v105l627 6v-102h-90q-102 0 -178 -93l-447 -540l488 -629q86 -111 194 -111h55v-102 h-712v102h178q53 0 65 23q3 5 3 13q0 23 -29 63l-377 479l-385 -465q-30 -37 -30 -64q0 -8 2 -16q11 -33 69 -33h141v-102h-626z" />
<glyph unicode="Y" horiz-adv-x="1722" d="M18 1475v102l711 -8v-105h-149q-55 0 -72 -27q-5 -9 -6 -22q0 -25 22 -65l398 -635l395 651q20 34 19 56q0 43 -72 42h-170v105l610 8v-102h-68q-113 0 -161 -82l-488 -811v-338q0 -141 117 -142h242v-102h-928v102h233q117 0 117 142v344l-496 792q-59 94 -174 95h-80z " />
<glyph unicode="Z" horiz-adv-x="1579" d="M96 0v121l1164 1354h-631q-219 0 -301 -84t-82 -306v-55h-113v547h1368v-115l-1167 -1360h653q217 0 300 85t83 305v110h113v-602h-1387z" />
<glyph unicode="[" horiz-adv-x="923" d="M217 -305v1882h496v-96h-221q-51 0 -73 -34t-22 -112v-1396q0 -80 21.5 -114t73.5 -34h221v-96h-496z" />
<glyph unicode="\" horiz-adv-x="993" d="M55 1577h123l758 -1577h-125z" />
<glyph unicode="]" horiz-adv-x="923" d="M213 -209h219q51 0 72.5 34t21.5 114v1396q0 78 -21.5 112t-72.5 34h-219v96h494v-1882h-494v96z" />
<glyph unicode="^" horiz-adv-x="1239" d="M131 1130l393 447h197l393 -447l-70 -77l-421 393l-422 -393z" />
<glyph unicode="_" horiz-adv-x="1263" d="M0 -266h1264v-127h-1264v127z" />
<glyph unicode="`" horiz-adv-x="972" d="M260 1346l115 135l262 -281l-51 -63z" />
<glyph unicode="a" d="M88 260q0 59 23.5 105.5t54.5 73t80 47t82.5 28.5t81.5 16l114 21q133 25 178.5 57.5t45.5 112.5q0 113 -59.5 169t-164.5 56q-217 0 -217 -131q37 0 63.5 -26.5t26.5 -69.5q0 -115 -123 -115q-55 0 -94 38t-39 118q0 131 114 205.5t271 74.5q170 0 285 -75.5t115 -225.5 v-528q0 -133 75 -133q86 0 86 133v88h91v-90q0 -100 -50.5 -167t-150.5 -67q-98 0 -147.5 41t-73.5 125q-113 -166 -326 -166q-158 0 -250 74t-92 211zM283 260q0 -86 47 -137t145 -51q119 0 197 96t78 229v164q-63 -80 -281 -121q-94 -18 -140 -60t-46 -120z" />
<glyph unicode="b" horiz-adv-x="1247" d="M-14 1481v96l366 8v-745q35 74 126 133t222 59q184 0 320.5 -136t136.5 -392q0 -229 -139 -381t-340 -152q-246 0 -338 211l-39 -182l-127 4v1385q0 43 -20.5 67.5t-57.5 24.5h-110zM350 530q-1 -26 0 -47q0 -65 4 -96q23 -141 95.5 -228t203.5 -87q139 0 214 117.5 t75 334.5q0 186 -77 298t-212 112q-111 0 -194.5 -82t-102.5 -197q-4 -23 -6 -125z" />
<glyph unicode="c" horiz-adv-x="1105" d="M76 518q0 225 158.5 373.5t363.5 148.5q168 0 291 -89t123 -214q0 -76 -38 -123t-106 -47q-57 0 -94 34t-37 85q0 55 38 84q31 24 67 24q8 0 16 -1q-57 152 -266 151q-145 0 -228 -114.5t-83 -315.5q0 -193 89 -311.5t244 -118.5q141 0 229.5 86t100.5 192h105v-4 q-4 -150 -123 -261t-324 -111q-223 0 -374.5 152.5t-151.5 379.5z" />
<glyph unicode="d" horiz-adv-x="1310" d="M78 504q0 252 151.5 389t339.5 137q121 0 208 -51t132 -123v512q0 55 -22.5 75.5t-71.5 20.5h-151v105l421 6v-1380q0 -88 80 -93l107 -2v-100l-354 -8v184q-37 -90 -136.5 -150.5t-232.5 -60.5q-207 0 -339 149.5t-132 389.5zM281 524q0 -215 86 -336.5t227 -121.5 q135 0 218 101t95 271q3 65 3 111.5t-3 75.5q-14 135 -103 221t-210 86q-139 0 -226 -113t-87 -295z" />
<glyph unicode="e" horiz-adv-x="1130" d="M74 508q0 238 149.5 385t372.5 147q190 0 326.5 -132t136.5 -373v-46h-778v-4q0 -174 92 -285.5t245 -111.5q141 0 227.5 81t98.5 185h105q0 -131 -124 -249.5t-319 -118.5q-221 0 -376.5 145.5t-155.5 376.5zM283 573h589v5q0 92 -24.5 168.5t-92 135t-171.5 58.5 q-143 0 -222 -107.5t-79 -252.5v-7z" />
<glyph unicode="f" horiz-adv-x="788" d="M78 0v98l131 4q37 2 49 17.5t12 58.5v715h-192v102h141q51 0 51 54v79q0 463 359 463q129 0 207.5 -72.5t78.5 -177.5q0 -57 -33.5 -93t-86.5 -36q-51 0 -83 30t-32 73q0 68 49 98q2 2 8 4t9.5 4t3.5 6q0 70 -125 70q-176 0 -176 -242v-260h251v-102h-254v-703 q0 -53 13.5 -69.5t58.5 -18.5l174 -4v-98h-614z" />
<glyph unicode="g" d="M68 -162q0 164 194 219q-82 31 -119 73t-37 118q0 51 46.5 102t128.5 88q-72 39 -113 96.5t-41 167.5q0 143 116.5 235.5t327.5 92.5q164 0 283 -80q-10 20 -10 72q0 96 60.5 161.5t156.5 65.5q66 0 99.5 -34.5t33.5 -92.5q0 -53 -34 -84.5t-91 -31.5q-43 0 -75.5 22.5 t-43.5 50.5q-25 -25 -24.5 -92t30.5 -123q45 -78 45 -162q0 -158 -122.5 -243.5t-303.5 -85.5q-66 0 -114.5 6t-71 13t-24.5 7q-33 0 -65 -28.5t-32 -71.5q0 -72 72 -94q54 -17 141 -17q27 0 58 1q42 2 90 3q95 0 211 -10q170 -14 245.5 -91t75.5 -185q0 -168 -165 -259 t-412 -91q-233 0 -374.5 79.5t-141.5 202.5zM233 -150q0 -106 85 -157t270 -51q209 0 310 62.5t101 154.5q0 55 -24.5 88t-112.5 56.5t-252 23.5q-170 0 -211 4q-166 -50 -166 -181zM326 698q0 -250 237 -249q240 0 240 249q0 256 -240 256q-237 0 -237 -256z" />
<glyph unicode="h" horiz-adv-x="1380" d="M68 0v102h118q43 0 58.5 17.5t15.5 64.5v1217q0 41 -13.5 57.5t-51.5 16.5h-127v102l364 10v-788q47 113 154.5 172t232.5 59q160 0 249 -83t89 -242v-521q0 -47 13.5 -64.5t54.5 -17.5h116v-102h-557v102h129q41 0 54.5 17.5t13.5 64.5v516q0 94 -59.5 154.5 t-159.5 60.5q-150 0 -237 -113.5t-87 -346.5v-271q0 -82 88 -82h105v-102h-563z" />
<glyph unicode="i" horiz-adv-x="679" d="M78 0v102h125q41 0 54 17.5t13 64.5v627q0 39 -21.5 60.5t-58.5 21.5h-112v102l368 6v-817q0 -45 19.5 -63.5t62.5 -18.5h113v-102h-563zM199 1423q0 59 42 101.5t99 42.5t100 -42t43 -102q0 -57 -42 -98t-101 -41t-100 41t-41 98z" />
<glyph unicode="j" horiz-adv-x="593" d="M-66 -315q0 55 34 94t93 39q55 0 87 -31t32 -76q0 -55 -28 -67q12 -23 43 -23q37 0 68.5 54.5t31.5 142.5q0 72 -26.5 160t-26.5 120v703q0 92 -74 92h-119v102l369 6v-747q0 -66 11 -169t11 -167q0 -190 -71.5 -295.5t-218.5 -105.5q-92 0 -154 47t-62 121zM172 1423 q0 59 42 101.5t99.5 42.5t99.5 -42t42 -102q0 -57 -41 -98t-100.5 -41t-100.5 41t-41 98z" />
<glyph unicode="k" horiz-adv-x="1378" d="M68 0v102h129q37 0 50 18.5t13 61.5v1200q0 41 -21.5 67t-58.5 26h-112v102l370 6v-1089l414 335q25 20 18.5 39t-36.5 19h-152v104l578 4v-102h-76q-57 0 -80 -6t-78 -41q-279 -227 -281 -228l379 -428q78 -88 203 -88h31v-102h-553v102h94q39 0 48 30t-15 54l-297 340 l-146 -116q-51 -41 -51 -111v-117q0 -43 14.5 -61.5t53.5 -18.5h125v-102h-563z" />
<glyph unicode="l" horiz-adv-x="679" d="M78 0v102h110q37 0 59.5 26t22.5 71v1183q0 41 -21.5 67t-58.5 26h-112v102l368 8v-1386q0 -43 25 -70t64 -27h106v-102h-563z" />
<glyph unicode="m" horiz-adv-x="2080" d="M88 0v102h105q88 0 88 103v594q0 41 -20.5 67.5t-59.5 26.5h-113v102h363v-233q47 123 144 195.5t218 72.5q145 0 235.5 -63.5t106.5 -194.5q51 121 145.5 189.5t212.5 68.5q160 0 252.5 -76.5t92.5 -232.5v-516q0 -102 88 -103h96v-102h-557v102h108q88 0 88 103v495 q0 96 -55 155.5t-153 59.5q-145 0 -230.5 -130t-85.5 -367v-213q0 -102 88 -103h96v-102h-557v102h109q88 0 88 103v495q0 96 -55.5 155.5t-153.5 59.5q-145 0 -230 -129t-85 -368v-213q0 -102 88 -103h104v-102h-561z" />
<glyph unicode="n" horiz-adv-x="1398" d="M88 0v102h105q88 0 88 103v594q0 41 -20.5 67.5t-59.5 26.5h-113v102l363 9v-193q53 106 156.5 162.5t228.5 56.5q164 0 253 -82t89 -241v-502q0 -102 86 -103h96v-102h-557v102h110q86 0 86 103v495q0 94 -59 154.5t-158 60.5q-150 0 -237.5 -112.5t-87.5 -345.5v-252 q0 -102 88 -103h104v-102h-561z" />
<glyph unicode="o" horiz-adv-x="1187" d="M74 516q0 217 154.5 370.5t373.5 153.5t365.5 -145t146.5 -365q0 -221 -153.5 -382.5t-368.5 -161.5q-219 0 -368.5 154.5t-149.5 375.5zM279 524q0 -221 96 -330.5t223 -109.5t220 102.5t93 323.5t-93 327.5t-220 106.5q-129 0 -224 -100.5t-95 -319.5z" />
<glyph unicode="p" horiz-adv-x="1310" d="M29 -301h106q86 0 86 100v998q0 96 -80 96h-112v102h364v-127q45 70 132 116t212 46q219 0 359.5 -151.5t140.5 -380.5q0 -254 -148.5 -391.5t-343.5 -137.5q-127 0 -219 52.5t-127 119.5v-342q0 -100 86 -100h160v-105h-616v105zM395 508q2 -137 8 -160 q27 -131 112 -205.5t200 -74.5q139 0 227 113.5t88 295.5q0 213 -87 333t-228 120q-129 0 -211 -73t-105 -171q-5 -31 -4 -116q-1 -28 0 -62z" />
<glyph unicode="q" horiz-adv-x="1255" d="M74 498q0 227 148.5 379.5t350.5 152.5q250 0 347 -194l43 172l118 -13v-1202q0 -94 88 -94h125v-105h-620v103l143 6q88 4 88 94v365q-35 -72 -129 -132.5t-221 -60.5q-205 0 -343 135.5t-138 393.5zM276 477q0 -182 87.5 -295.5t226.5 -113.5q104 0 188 71.5t121 194.5 q8 27 8 151.5t-8 165.5q-63 279 -309 279q-141 0 -227.5 -120t-86.5 -333z" />
<glyph unicode="r" horiz-adv-x="1093" d="M78 0v102h110q37 0 59.5 26t22.5 71v600q0 41 -20.5 67.5t-59.5 26.5h-112v102l364 11v-230q35 106 126 180t192 74q119 0 196.5 -65.5t77.5 -176.5q0 -76 -40 -123t-103.5 -47t-100 29t-36.5 84q0 53 36 82q31 25 66 25h10q-2 10 -6 26.5t-38 43t-87 26.5 q-125 0 -207 -148.5t-82 -355.5v-225q0 -47 25 -75t66 -28h163v-102h-622z" />
<glyph unicode="s" horiz-adv-x="1015" d="M115 739q0 127 98 213t272 86q39 0 77 -5t63.5 -12t53.5 -18.5t40 -18.5t29.5 -18.5t19.5 -11.5q49 0 49 76h78v-399h-90v47q0 123 -90 197.5t-221 74.5q-109 0 -169.5 -40t-60.5 -113q0 -66 44 -93.5t181 -62.5l148 -39q305 -80 305 -307q0 -106 -63.5 -181t-148.5 -106 t-175 -31q-150 0 -307 84q-41 0 -41 -61h-86v416h92v-41q0 -133 95 -219t249 -86q100 0 163.5 52t63.5 128t-47 118t-190 74l-98 23q-176 41 -255 99t-79 175z" />
<glyph unicode="t" horiz-adv-x="944" d="M29 893v102h61q125 0 175 65.5t57 272.5h98v-338h362v-102h-364v-594q0 -223 176 -223q88 0 134 73.5t46 186.5v129h92v-129q0 -164 -83 -263.5t-236 -99.5q-305 0 -305 342v578h-213z" />
<glyph unicode="u" horiz-adv-x="1341" d="M29 893v102h360v-700q0 -100 58.5 -157.5t158.5 -57.5q147 0 236.5 130t89.5 368v215q0 100 -90 100h-103v102h369v-798q0 -41 20.5 -68t59.5 -27h115v-102h-365v233q-47 -123 -148.5 -195.5t-224.5 -72.5q-160 0 -256 77t-96 232v519q0 100 -88 100h-96z" />
<glyph unicode="v" horiz-adv-x="1208" d="M10 893v102h531v-102h-127q-56 0 -56 -41q0 -16 9 -39l266 -670l264 664q9 25 9 42q0 44 -58 44h-107v102h451v-102h-55q-55 0 -80 -18.5t-45 -67.5l-332 -807h-162l-325 788q-43 104 -115 105h-68z" />
<glyph unicode="w" horiz-adv-x="1771" d="M10 893v102h502v-102h-88q-37 0 -50.5 -20.5t1.5 -59.5l266 -670l201 553l-37 92q-41 104 -115 105h-41v102h486v-102h-107q-58 0 -58 -42q0 -16 9 -38l266 -670l246 664q6 16 6 45q0 41 -55 41h-117v102h438v-102h-32q-57 0 -82 -18.5t-43 -67.5l-314 -807h-162 l-223 543l-219 -543h-162l-313 788q-41 104 -117 105h-86z" />
<glyph unicode="x" horiz-adv-x="1249" d="M29 0v102h30q47 0 102.5 33t96.5 78l266 301l-262 299q-70 80 -182 80h-37v102h551v-102h-94q-35 0 -44.5 -25.5t13.5 -50.5l203 -231l215 243q20 23 10 43.5t-39 20.5h-84v102h436v-102h-45q-90 0 -143 -62q-281 -324 -281 -325l263 -297q53 -59 89.5 -83t84.5 -24h43 v-102h-549v102h125q35 0 40 28t-14 44l-229 262l-234 -268q-20 -25 -9 -45.5t36 -20.5h84v-102h-442z" />
<glyph unicode="y" horiz-adv-x="1204" d="M10 893v102h520v-102h-108q-39 0 -52.5 -21.5t3.5 -56.5l274 -653l260 645q8 18 8 39q0 47 -53 47h-110v102h442v-102h-49q-61 0 -84 -23.5t-62 -115.5l-315 -758q-104 -248 -186 -340t-217 -92q-115 0 -189 60.5t-74 150.5q0 61 38 103t106 42q55 0 89 -33.5t34 -85.5 q0 -47 -56 -88q12 -59 68 -59q41 0 67.5 8t61.5 41t70.5 105.5t78.5 191.5h-40l-322 762q-31 70 -59.5 100.5t-69.5 30.5h-74z" />
<glyph unicode="z" horiz-adv-x="1013" d="M68 0v113l673 780h-389q-70 0 -109.5 -48t-39.5 -124v-78h-99v352h848v-100l-688 -793h393q94 0 147.5 42t53.5 114v141h96v-399h-886z" />
<glyph unicode="{" horiz-adv-x="874" d="M96 592v125h86q72 0 91.5 31.5t19.5 123.5v453q0 252 338 252h143v-92h-158q-80 0 -105.5 -30t-25.5 -124v-342q0 -164 -33.5 -241.5t-117.5 -81.5l-72 -4v-17l72 -4q86 -4 118.5 -78t32.5 -276v-434q0 -94 26 -124t105 -30h158v-105h-143q-338 0 -338 254v568 q0 106 -18.5 141t-92.5 35h-86z" />
<glyph unicode="|" horiz-adv-x="804" d="M350 -414v2081h111v-2081h-111z" />
<glyph unicode="}" horiz-adv-x="874" d="M100 -301h158q82 0 106.5 28.5t24.5 125.5v434q0 203 33 276.5t119 77.5l71 4v17l-71 4q-84 4 -118 81.5t-34 241.5v342q0 96 -24.5 125t-106.5 29h-158v92h146q336 0 336 -252v-453q0 -92 20.5 -123.5t89.5 -31.5h86v-125h-86q-72 0 -91 -35t-19 -141v-568 q0 -254 -336 -254h-146v105z" />
<glyph unicode="~" horiz-adv-x="913" d="M106 1200v115q0 82 42 134t118 52q49 0 200.5 -91t176.5 -91q57 0 57 94v84h99v-117q0 -82 -40 -133t-118 -51q-47 0 -198.5 91t-180.5 91q-53 0 -53 -92v-86h-103z" />
<glyph unicode="&#xa1;" horiz-adv-x="585" d="M145 1087.5q0 61.5 43 103.5t104.5 42t105.5 -42t44 -103.5t-44 -104.5t-105 -43q-59 0 -103.5 43t-44.5 104.5zM172 -123q0 63 6 134t18.5 163t16.5 131q29 283 29 514h98q0 -227 29 -514q4 -43 16 -132t19.5 -160.5t7.5 -135.5q0 -283 -121 -283q-119 0 -119 283z" />
<glyph unicode="&#xa2;" horiz-adv-x="1138" d="M78 692q0 211 141 356.5t332 165.5v148h102v-148q156 -16 258.5 -103t102.5 -198q0 -78 -38 -124t-106 -46q-57 0 -94 34t-37 85q0 55 38 83t83 22q-72 152 -260 151q-147 0 -232 -114.5t-85 -315.5q0 -190 89 -310t244 -120q141 0 229.5 86t100.5 193h105v-5 q0 -113 -114 -232.5t-284 -135.5v-182h-102v182q-205 20 -339 168.5t-134 359.5z" />
<glyph unicode="&#xa3;" horiz-adv-x="1386" d="M63 209q0 100 77 166.5t194 66.5q66 0 131 -16q-20 76 -90 190h-2h-2h-2h-2h-2h-3h-2h-2h-2h-2h-2h-2h-2h-2h-2h-2h-2h-2h-2h-2h-4h-2h-2h-2h-2h-3h-2h-2h-2h-4h-2h-2h-2h-4h-2h-2h-2h-4h-2h-2h-4h-2h-3h-4h-2h-4h-2h-2h-4h-2h-4h-2h-4h-2h-4h-2h-5h-2h-4h-4h-2h-4h-2h-4 h-4h-2h-4h-4h-2h-5h-4h-2h-4h-4h-4h-2h-4h-4h-4h-2h-4h-5h-4h-4h-16v105h190q-141 240 -141 418q0 215 158.5 343t394.5 128q219 0 351 -125t132 -297q0 -109 -47 -167t-127 -58q-154 0 -153 135q0 68 54 104.5t132 11.5q-18 291 -328 291q-166 0 -261 -94t-95 -272 q0 -78 17.5 -160t35 -128t51.5 -130h375v-105h-330q47 -111 64 -184q2 -12 3 -32.5t1 -26.5q59 -31 141 -91.5t144.5 -95t120.5 -34.5q104 0 149 56t45 195v82h105v-90q0 -201 -80 -308t-236 -107q-63 0 -122.5 27.5t-93.5 58t-90 88t-85 82.5q-18 -121 -97 -190t-196 -69 q-106 0 -174 70t-68 162zM172 209q0 -61 37 -96t98 -35q174 0 178 231q-61 31 -151 31q-80 0 -121 -37t-41 -94z" />
<glyph unicode="&#xa4;" horiz-adv-x="1470" d="M23 516v125h118q-8 63 -8 152q0 16 1 48.5t1 49.5h-112v125h133q57 256 232 426t452 170q219 0 379.5 -100.5t160.5 -278.5q0 -84 -45 -126t-108 -42q-74 0 -113 42t-39 99q0 53 36 90t89 35q-63 176 -360 176q-186 0 -302 -125t-149 -366h510v-125h-522q-2 -31 -2 -98 q0 -84 6 -152h518v-125h-500q41 -221 154 -333.5t283 -112.5q205 0 337 130t132 382v24h120v-22q0 -158 -52 -282t-139 -196.5t-189.5 -110.5t-213.5 -38q-240 0 -422 145.5t-245 413.5h-141z" />
<glyph unicode="&#xa5;" horiz-adv-x="1646" d="M70 1475v102h641v-102h-136q-49 0 -64 -29t15 -86l357 -641l356 657q25 41 13.5 70t-62.5 29h-154v102h551v-102h-61q-53 0 -86 -16.5t-60 -65.5q-205 -377 -206 -377h389v-125h-457q2 0 -45 -85t-92 -165h555v-125h-582v-272q0 -141 105 -142h217v-102h-834v102h211 q104 0 104 142v272h-610v125h584l-141 250h-482v125h410l-51 90l-103 184l-53 90q-53 94 -156 95h-73z" />
<glyph unicode="&#xa6;" horiz-adv-x="1726" d="M180 604l350 334l-86 467l420 -227l420 227l-90 -471l350 -332l-479 -59l-205 -430l-203 432zM528 719l234 -29l100 -215l101 213l233 29l-168 160l43 235l-205 -111l-211 113l45 -233z" />
<glyph unicode="&#xa7;" horiz-adv-x="1198" d="M119 827q0 131 162 256q-61 74 -62 197q0 125 113.5 216t261.5 91q158 0 256 -73.5t98 -172.5q0 -63 -43 -109t-100 -46q-55 0 -92 26.5t-37 81.5q0 82 74 115q-23 92 -164 92q-88 0 -133 -51t-45 -137t67.5 -134.5t243.5 -101.5q203 -61 272.5 -129.5t69.5 -206.5 q0 -131 -162 -256q59 -72 59 -196q0 -135 -106.5 -221t-266 -86t-257 73.5t-97.5 171.5q0 63 42 109.5t100 46.5q55 0 93 -26.5t38 -82.5q0 -84 -74 -114q23 -94 164 -94q88 0 133 51t45 137t-68.5 134t-244.5 101q-201 61 -270.5 130t-69.5 208zM256 872q0 -76 58.5 -118.5 t193.5 -79.5q240 -66 338 -142q76 80 76 164q0 74 -57.5 117t-192.5 82q-252 76 -340 139q-76 -80 -76 -162z" />
<glyph unicode="&#xa8;" horiz-adv-x="972" d="M176 1286q0 41 31 72t74 31t73.5 -31t30.5 -72q0 -43 -30.5 -72.5t-73.5 -29.5t-74 29.5t-31 72.5zM582 1286q0 41 30.5 72t71.5 31q45 0 76 -31t31 -72q0 -43 -31 -72.5t-76 -29.5q-41 0 -71.5 29.5t-30.5 72.5z" />
<glyph unicode="&#xa9;" horiz-adv-x="2043" d="M172 714.5q0 354.5 251 605.5t605 251q352 0 604 -251t252 -605.5t-251 -605t-605 -250.5t-605 250.5t-251 605zM252 714.5q0 -321.5 227.5 -548.5t549 -227t548.5 227t227 548.5t-227 549t-548.5 227.5t-549 -227.5t-227.5 -549zM516 709q0 98 32 191t91 173t160.5 128 t228.5 48q98 0 197.5 -43t103.5 -43q39 0 39 64h66v-387h-74v30q0 123 -99.5 215.5t-236.5 92.5q-164 0 -255 -119t-91 -350q0 -229 95 -349t263 -120q147 0 237.5 92t90.5 239v17h78v-15q0 -176 -117 -291.5t-293 -115.5q-240 0 -378 164t-138 379z" />
<glyph unicode="&#xaa;" horiz-adv-x="1183" d="M152 983q0 47 20.5 84t47 57.5t69.5 37t69.5 22.5t67.5 12l98 16q111 18 150 46t39 85q0 92 -50.5 139.5t-138.5 47.5q-186 0 -186 -100q31 0 53.5 -20.5t22.5 -55.5q0 -92 -103 -92q-49 0 -80.5 29.5t-31.5 92.5q0 106 95 163t230 57q143 0 242.5 -62.5t99.5 -183.5 v-420q0 -104 64 -104q72 0 71 104v72h76v-74q0 -80 -41 -133t-127 -53q-84 0 -126 32.5t-64 100.5q-96 -133 -275 -133q-135 0 -213.5 61t-78.5 172zM178 594v74h774v-74h-774zM317 983q0 -70 40 -113t124 -43q100 0 167 81t67 190v125q-29 -33 -96.5 -60.5t-141.5 -40.5 q-82 -12 -121 -45t-39 -94z" />
<glyph unicode="&#xab;" horiz-adv-x="1560" d="M96 516v100l774 471v-129l-585 -393l585 -391v-131zM684 516v100l774 471v-129l-584 -393l584 -391v-131z" />
<glyph unicode="&#xac;" horiz-adv-x="1292" d="M147 287v452h105v-104q0 -68 65 -68h261v260q0 63 -66 64l-100 2v102h467v-102l-97 -2q-66 0 -65 -64v-260h258q29 0 46 18.5t17 49.5l2 104h105v-452h-105l-2 92q-2 68 -63 67h-258v-276q0 -29 17.5 -47.5t47.5 -18.5l97 -2v-102h-467v102l100 2q66 0 66 66v276h-261 q-29 0 -47 -18t-18 -49v-92h-105z" />
<glyph unicode="&#xad;" horiz-adv-x="993" d="M160 655v152h665v-152h-665z" />
<glyph unicode="&#xae;" horiz-adv-x="2043" d="M172 714.5q0 354.5 251 605.5t605 251q352 0 604 -251t252 -605.5t-251 -605t-605 -250.5t-605 250.5t-251 605zM252 714.5q0 -321.5 227.5 -548.5t549 -227t548.5 227t227 548.5t-227 549t-548.5 227.5t-549 -227.5t-227.5 -549zM569 244v61h78q72 0 72 84v658 q0 84 -72 83h-78v62h492q164 0 262 -69.5t98 -186.5q0 -176 -237 -238q158 -23 174 -256l2 -30q4 -68 20.5 -94.5t49.5 -26.5q70 0 69 104v51h64v-40q0 -88 -41 -136.5t-115 -48.5q-164 0 -182 170q-2 16 -4 48t-4 48q-20 193 -207 193h-162v-291q0 -84 70 -84h96v-61h-445z M848 741h178q240 0 240 189q0 100 -65.5 150t-180.5 50h-102q-70 0 -70 -83v-306z" />
<glyph unicode="&#xaf;" horiz-adv-x="972" d="M150 1182v147h673v-147h-673z" />
<glyph unicode="&#x2c9;" horiz-adv-x="972" d="M150 1182v147h673v-147h-673z" />
<glyph unicode="&#xb0;" horiz-adv-x="839" d="M88 1278q0 137 97.5 235.5t234.5 98.5t235.5 -98.5t98.5 -235.5t-98.5 -234.5t-235.5 -97.5t-234.5 97.5t-97.5 234.5zM176 1278q0 -100 71.5 -173t172 -73t173.5 73t73 173q0 102 -73 175t-173.5 73t-172 -74t-71.5 -174z" />
<glyph unicode="&#xb1;" horiz-adv-x="2080" d="M78 0v102h121q72 0 71 86v705h-192v102h123q33 0 51 19.5t18 54.5v59q0 225 112 344t320 119q129 0 221.5 -44t127.5 -113q111 158 352 157q160 0 254 -65l190 51v-1389q0 -86 78 -86h117v-102h-563v102h120q72 0 72 86v1026q-8 -2 -20 -2q-53 0 -87 30t-34 73 q0 86 67 104q-6 8 -19 21.5t-64.5 35t-114.5 21.5q-102 0 -176 -59.5t-74 -182.5v-260h252v-102h-254v-692q0 -53 18.5 -76t61.5 -23h116v-102h-565v102h121q72 0 72 86v705h-525v-692q0 -53 18.5 -76t61.5 -23h117v-102h-565zM449 995h452q72 0 72 74q0 129 2 143 q-57 -6 -97 26t-40 77q0 86 69 104q-8 8 -22.5 21.5t-68.5 35t-118 21.5q-102 0 -175.5 -59.5t-73.5 -182.5v-260z" />
<glyph unicode="&#xb2;" horiz-adv-x="1726" d="M180 604l350 334l-86 467l420 -227l420 227l-90 -471l350 -332l-479 -59l-205 -430l-203 432zM528 719l234 -29l100 -215l101 213l233 29l-168 160l43 235l-205 -111l-211 113l45 -233z" />
<glyph unicode="&#xb3;" horiz-adv-x="1726" d="M180 604l350 334l-86 467l420 -227l420 227l-90 -471l350 -332l-479 -59l-205 -430l-203 432zM528 719l234 -29l100 -215l101 213l233 29l-168 160l43 235l-205 -111l-211 113l45 -233z" />
<glyph unicode="&#xb4;" horiz-adv-x="972" d="M334 1200l262 281l115 -135l-324 -209z" />
<glyph unicode="&#xb5;" horiz-adv-x="1726" d="M180 604l350 334l-86 467l420 -227l420 227l-90 -471l350 -332l-479 -59l-205 -430l-203 432zM528 719l234 -29l100 -215l101 213l233 29l-168 160l43 235l-205 -111l-211 113l45 -233z" />
<glyph unicode="&#x3bc;" horiz-adv-x="1726" d="M180 604l350 334l-86 467l420 -227l420 227l-90 -471l350 -332l-479 -59l-205 -430l-203 432zM528 719l234 -29l100 -215l101 213l233 29l-168 160l43 235l-205 -111l-211 113l45 -233z" />
<glyph unicode="&#xb6;" horiz-adv-x="1439" d="M96 1122q0 219 174 337t426 118h688v-102h-112q-51 0 -66.5 -19.5t-15.5 -89.5v-1391h-96v1430q0 41 -19.5 56.5t-68.5 15.5q-47 0 -67.5 -16.5t-20.5 -55.5v-1430h-93v666h-223q-215 0 -360.5 129t-145.5 352zM408 1135q0 -197 63.5 -294.5t220.5 -97.5h133v584 q0 94 -21.5 121t-90.5 27h-37q-117 0 -192.5 -85t-75.5 -255z" />
<glyph unicode="&#xb7;" horiz-adv-x="686" d="M182 797q0 68 51.5 112.5t120.5 44.5q66 0 114 -49t48 -114q0 -68 -48 -115t-116 -47q-72 0 -121 49t-49 119z" />
<glyph unicode="&#x2219;" horiz-adv-x="686" d="M182 797q0 68 51.5 112.5t120.5 44.5q66 0 114 -49t48 -114q0 -68 -48 -115t-116 -47q-72 0 -121 49t-49 119z" />
<glyph unicode="&#xb8;" horiz-adv-x="972" d="M354 -354l15 53q43 -25 77 -25q31 0 47.5 18.5t16.5 43.5q0 80 -104 104l38 142h64l-23 -82l39 -15q125 -45 125 -153q0 -53 -44 -91t-113 -38q-56 0 -138 43z" />
<glyph unicode="&#xb9;" horiz-adv-x="1726" d="M180 604l350 334l-86 467l420 -227l420 227l-90 -471l350 -332l-479 -59l-205 -430l-203 432zM528 719l234 -29l100 -215l101 213l233 29l-168 160l43 235l-205 -111l-211 113l45 -233z" />
<glyph unicode="&#xba;" horiz-adv-x="1163" d="M139 1180q0 174 132 296.5t318.5 122.5t311.5 -117.5t125 -291.5q0 -176 -130 -305t-316 -129q-184 0 -312.5 124t-128.5 300zM182 594v74h803v-74h-803zM313 1186q0 -178 82 -265t190.5 -87t187.5 81.5t79 260.5q0 176 -79 261t-187 85q-111 0 -192 -80t-81 -256z" />
<glyph unicode="&#xbb;" horiz-adv-x="1560" d="M96 43v131l586 391l-586 393v129l776 -471v-100zM686 43v131l586 391l-586 393v129l772 -471v-100z" />
<glyph unicode="&#xbc;" horiz-adv-x="1726" d="M180 604l350 334l-86 467l420 -227l420 227l-90 -471l350 -332l-479 -59l-205 -430l-203 432zM528 719l234 -29l100 -215l101 213l233 29l-168 160l43 235l-205 -111l-211 113l45 -233z" />
<glyph unicode="&#xbd;" horiz-adv-x="1726" d="M180 604l350 334l-86 467l420 -227l420 227l-90 -471l350 -332l-479 -59l-205 -430l-203 432zM528 719l234 -29l100 -215l101 213l233 29l-168 160l43 235l-205 -111l-211 113l45 -233z" />
<glyph unicode="&#xbe;" horiz-adv-x="1726" d="M180 604l350 334l-86 467l420 -227l420 227l-90 -471l350 -332l-479 -59l-205 -430l-203 432zM528 719l234 -29l100 -215l101 213l233 29l-168 160l43 235l-205 -111l-211 113l45 -233z" />
<glyph unicode="&#xbf;" horiz-adv-x="1050" d="M143 -39q0 121 53.5 210t186.5 204q133 117 171 177t38 136l-10 100q84 8 110 9q18 -74 19 -117q0 -92 -47.5 -173t-182.5 -212q-76 -76 -109.5 -154t-33.5 -182q0 -125 68.5 -194.5t177.5 -69.5q111 0 176 45t78 117q-72 -2 -113 32.5t-41 92.5q0 53 39 90t108.5 37 t113.5 -47.5t44 -124.5q0 -131 -116.5 -237t-288.5 -106q-203 0 -322 100.5t-119 266.5zM477 1087.5q0 61.5 43 103.5t104.5 42t104.5 -42t43 -103.5t-43 -104.5t-104.5 -43t-104.5 43t-43 104.5z" />
<glyph unicode="&#xc0;" horiz-adv-x="1796" d="M18 0v102h45q102 0 134 25t75 135l521 1315h208l525 -1315q41 -102 75.5 -131t116.5 -29h60v-102h-701v102h144q84 0 100 27t-14 92l-105 268h-706l-101 -258q-33 -82 -18.5 -105.5t100.5 -23.5h148v-102h-607zM537 598h622l-311 795zM553 1835l115 135l262 -280l-51 -64 z" />
<glyph unicode="&#xc1;" horiz-adv-x="1796" d="M18 0v102h45q102 0 134 25t75 135l521 1315h208l525 -1315q41 -102 75.5 -131t116.5 -29h60v-102h-701v102h144q84 0 100 27t-14 92l-105 268h-706l-101 -258q-33 -82 -18.5 -105.5t100.5 -23.5h148v-102h-607zM537 598h622l-311 795zM840 1690l262 280l115 -135 l-324 -209z" />
<glyph unicode="&#xc2;" horiz-adv-x="1796" d="M18 0v102h45q102 0 134 25t75 135l521 1315h208l525 -1315q41 -102 75.5 -131t116.5 -29h60v-102h-701v102h144q84 0 100 27t-14 92l-105 268h-706l-101 -258q-33 -82 -18.5 -105.5t100.5 -23.5h148v-102h-607zM537 598h622l-311 795zM559 1659l262 254h123l270 -254 l-59 -70l-272 187l-265 -189z" />
<glyph unicode="&#xc3;" horiz-adv-x="1796" d="M18 0v102h45q102 0 134 25t75 135l521 1315h208l525 -1315q41 -102 75.5 -131t116.5 -29h60v-102h-701v102h144q84 0 100 27t-14 92l-105 268h-706l-101 -258q-33 -82 -18.5 -105.5t100.5 -23.5h148v-102h-607zM526 1686l31 63q74 156 203 156q68 0 172 -66 q4 -2 25.5 -16.5t36 -22.5t35 -19.5t38.5 -16.5t33 -5q76 0 123 78l28 47l60 -43l-31 -63q-41 -86 -88 -119t-119 -33q-74 0 -166 66q-115 80 -174 80q-74 0 -125 -91l-20 -34zM537 598h622l-311 795z" />
<glyph unicode="&#xc4;" horiz-adv-x="1796" d="M18 0v102h45q102 0 134 25t75 135l521 1315h208l525 -1315q41 -102 75.5 -131t116.5 -29h60v-102h-701v102h144q84 0 100 27t-14 92l-105 268h-706l-101 -258q-33 -82 -18.5 -105.5t100.5 -23.5h148v-102h-607zM537 598h622l-311 795zM584 1724q0 41 30.5 72t73.5 31 t74 -31t31 -72q0 -43 -31 -72.5t-74 -29.5t-73.5 29.5t-30.5 72.5zM989 1724q0 41 31 72t72 31q45 0 75.5 -31t30.5 -72q0 -43 -30.5 -72.5t-75.5 -29.5q-41 0 -72 29.5t-31 72.5z" />
<glyph unicode="&#xc5;" horiz-adv-x="1796" d="M18 0v102h45q84 0 129.5 35t79.5 125l502 1274q-57 31 -91 87t-34 124q0 100 71 172t173 72t173 -72t71 -172q0 -139 -121 -211l510 -1274q35 -86 78 -123t114 -37h60v-102h-701v102h144q78 0 95 27t-9 92l-105 268h-706l-101 -258q-29 -63 -11.5 -96t93.5 -33h148v-102 h-607zM537 598h622l-311 795zM733 1746.5q0 -65.5 47 -112.5t112.5 -47t113 47t47.5 112.5t-47.5 113t-113 47.5t-112.5 -47.5t-47 -113z" />
<glyph unicode="&#xc6;" horiz-adv-x="2408" d="M-23 0v102h43q84 0 138.5 35t113.5 125l734 1104q72 109 -54 109h-82v102h1438v-563h-113v78q0 217 -85 300t-304 83h-317q-63 0 -80.5 -26t-17.5 -95v-502h188q82 0 137.5 52t55.5 132v152h106v-782h-106v157q0 80 -55.5 133.5t-137.5 53.5h-188v-527q0 -70 17 -95.5 t81 -25.5h330q221 0 305 83t84 300v105h112v-590h-1384v102h149q63 0 81 26t18 95v269h-613l-170 -261q-45 -63 -36.5 -96t81.5 -33h136v-102h-605zM641 598h543v821z" />
<glyph unicode="&#xc7;" horiz-adv-x="1634" d="M88 793q0 152 48 293t140.5 260.5t247 192.5t350.5 73q111 0 213.5 -34t167 -66.5t84.5 -32.5q59 0 60 98h98v-594h-113v45q0 188 -152.5 328.5t-363.5 140.5q-252 0 -388 -176t-136 -528q0 -346 134 -534.5t390 -188.5q233 0 378 133t145 379v24h120v-22 q0 -285 -178 -453t-450 -174l-17 -57l39 -15q125 -45 125 -153q0 -53 -44 -91t-114 -38q-55 0 -137 43l15 53q43 -25 77 -25q31 0 47.5 18.5t16.5 43.5q0 80 -105 104l33 119q-238 10 -406.5 133t-246.5 304.5t-78 396.5z" />
<glyph unicode="&#xc8;" horiz-adv-x="1638" d="M88 0v102h150q63 0 79.5 25t16.5 96v1131q0 72 -16.5 96.5t-79.5 24.5h-150v102h1448v-563h-113l-4 160q-6 301 -303 301h-467q-61 0 -78.5 -26t-17.5 -95v-502h256q78 0 121 48t47 136l6 152h104v-782h-104l-6 196q-2 82 -43 115t-125 33h-256v-527q0 -70 17.5 -95.5 t78.5 -25.5h400q219 0 296.5 78t88.5 305l4 105h112v-590h-1462zM571 1835l115 135l262 -280l-51 -64z" />
<glyph unicode="&#xc9;" horiz-adv-x="1638" d="M88 0v102h150q63 0 79.5 25t16.5 96v1131q0 72 -16.5 96.5t-79.5 24.5h-150v102h1448v-563h-113l-4 160q-6 301 -303 301h-467q-61 0 -78.5 -26t-17.5 -95v-502h256q78 0 121 48t47 136l6 152h104v-782h-104l-6 196q-2 82 -43 115t-125 33h-256v-527q0 -70 17.5 -95.5 t78.5 -25.5h400q219 0 296.5 78t88.5 305l4 105h112v-590h-1462zM739 1690l262 280l115 -135l-323 -209z" />
<glyph unicode="&#xca;" horiz-adv-x="1638" d="M88 0v102h150q63 0 79.5 25t16.5 96v1131q0 72 -16.5 96.5t-79.5 24.5h-150v102h1448v-563h-113l-4 160q-6 301 -303 301h-467q-61 0 -78.5 -26t-17.5 -95v-502h256q78 0 121 48t47 136l6 152h104v-782h-104l-6 196q-2 82 -43 115t-125 33h-256v-527q0 -70 17.5 -95.5 t78.5 -25.5h400q219 0 296.5 78t88.5 305l4 105h112v-590h-1462zM530 1696l263 254h122l271 -254l-60 -70l-272 186l-264 -188z" />
<glyph unicode="&#xcb;" horiz-adv-x="1638" d="M88 0v102h150q63 0 79.5 25t16.5 96v1131q0 72 -16.5 96.5t-79.5 24.5h-150v102h1448v-563h-113l-4 160q-6 301 -303 301h-467q-61 0 -78.5 -26t-17.5 -95v-502h256q78 0 121 48t47 136l6 152h104v-782h-104l-6 196q-2 82 -43 115t-125 33h-256v-527q0 -70 17.5 -95.5 t78.5 -25.5h400q219 0 296.5 78t88.5 305l4 105h112v-590h-1462zM588 1749q0 41 30.5 71.5t73.5 30.5t74 -30.5t31 -71.5q0 -43 -31 -72.5t-74 -29.5t-73.5 29.5t-30.5 72.5zM993 1749q0 41 31 71.5t72 30.5q45 0 75.5 -30.5t30.5 -71.5q0 -43 -30.5 -72.5t-75.5 -29.5 q-41 0 -72 29.5t-31 72.5z" />
<glyph unicode="&#xcc;" horiz-adv-x="888" d="M88 0v102h150q63 0 79.5 25t16.5 96v1131q0 72 -16.5 96.5t-79.5 24.5h-150v102h713v-102h-152q-61 0 -78.5 -26t-17.5 -95v-1131q0 -70 17.5 -95.5t78.5 -25.5h152v-102h-713zM143 1835l115 135l262 -280l-51 -64z" />
<glyph unicode="&#xcd;" horiz-adv-x="888" d="M88 0v102h150q63 0 79.5 25t16.5 96v1131q0 72 -16.5 96.5t-79.5 24.5h-150v102h713v-102h-152q-61 0 -78.5 -26t-17.5 -95v-1131q0 -70 17.5 -95.5t78.5 -25.5h152v-102h-713zM389 1690l262 280l115 -135l-324 -209z" />
<glyph unicode="&#xce;" horiz-adv-x="888" d="M88 0v102h150q63 0 79.5 25t16.5 96v1131q0 72 -16.5 96.5t-79.5 24.5h-150v102h713v-102h-152q-61 0 -78.5 -26t-17.5 -95v-1131q0 -70 17.5 -95.5t78.5 -25.5h152v-102h-713zM133 1696l262 254h123l270 -254l-59 -70l-272 186l-264 -188z" />
<glyph unicode="&#xcf;" horiz-adv-x="888" d="M88 0v102h150q63 0 79.5 25t16.5 96v1131q0 72 -16.5 96.5t-79.5 24.5h-150v102h713v-102h-152q-61 0 -78.5 -26t-17.5 -95v-1131q0 -70 17.5 -95.5t78.5 -25.5h152v-102h-713zM137 1749q0 41 31 71.5t74 30.5t73.5 -30.5t30.5 -71.5q0 -43 -30.5 -72.5t-73.5 -29.5 t-74 29.5t-31 72.5zM543 1749q0 41 30.5 71.5t71.5 30.5q45 0 76 -30.5t31 -71.5q0 -43 -31 -72.5t-76 -29.5q-41 0 -71.5 29.5t-30.5 72.5z" />
<glyph unicode="&#xd0;" horiz-adv-x="1828" d="M88 0v102h150q61 0 78.5 33t17.5 109v477h-246v153h246v486q0 70 -16.5 92.5t-79.5 22.5h-150v102h858q352 0 583.5 -221t231.5 -559q0 -352 -227 -574.5t-588 -222.5h-858zM553 244q0 -74 18.5 -108t77.5 -34h250q326 0 465 179.5t139 517.5q0 279 -152.5 477.5 t-420.5 198.5h-266q-68 0 -89.5 -24t-21.5 -91v-486h362v-153h-362v-477z" />
<glyph unicode="&#xd1;" horiz-adv-x="1992" d="M88 0v102h127q117 0 117 142v1091q0 139 -117 140h-127v102h512l924 -1395v1153q0 139 -117 140h-186v102h684v-102h-125q-117 0 -117 -140v-1335h-258l-932 1378v-1134q0 -141 117 -142h176v-102h-678zM637 1686l31 63q74 156 202 156q68 0 172 -66q4 -2 26 -16.5 t36 -22.5t34.5 -19.5t39 -16.5t32.5 -5q76 0 123 78l29 47l59 -43l-30 -63q-41 -86 -88.5 -119t-118.5 -33q-74 0 -166 66q-115 80 -174 80q-74 0 -125 -91l-21 -34z" />
<glyph unicode="&#xd2;" horiz-adv-x="1787" d="M78 792.5q0 217.5 103.5 403.5t293 300t422.5 114q240 0 428 -115t286.5 -298t98.5 -394q0 -217 -97 -407.5t-288.5 -313.5t-435.5 -123q-240 0 -428.5 120t-285.5 308t-97 405.5zM334 803q0 -328 158.5 -529.5t406.5 -201.5q252 0 403.5 198.5t151.5 522.5 q0 317 -159.5 510.5t-409.5 193.5q-233 0 -392 -190.5t-159 -503.5zM627 1872l114 135l263 -281l-52 -63z" />
<glyph unicode="&#xd3;" horiz-adv-x="1787" d="M78 792.5q0 217.5 103.5 403.5t293 300t422.5 114q240 0 428 -115t286.5 -298t98.5 -394q0 -217 -97 -407.5t-288.5 -313.5t-435.5 -123q-240 0 -428.5 120t-285.5 308t-97 405.5zM334 803q0 -328 158.5 -529.5t406.5 -201.5q252 0 403.5 198.5t151.5 522.5 q0 317 -159.5 510.5t-409.5 193.5q-233 0 -392 -190.5t-159 -503.5zM793 1726l262 281l114 -135l-323 -209z" />
<glyph unicode="&#xd4;" horiz-adv-x="1787" d="M78 792.5q0 217.5 103.5 403.5t293 300t422.5 114q240 0 428 -115t286.5 -298t98.5 -394q0 -217 -97 -407.5t-288.5 -313.5t-435.5 -123q-240 0 -428.5 120t-285.5 308t-97 405.5zM334 803q0 -328 158.5 -529.5t406.5 -201.5q252 0 403.5 198.5t151.5 522.5 q0 317 -159.5 510.5t-409.5 193.5q-233 0 -392 -190.5t-159 -503.5zM575 1702l263 254h123l270 -254l-60 -70l-272 187l-264 -189z" />
<glyph unicode="&#xd5;" horiz-adv-x="1787" d="M78 792.5q0 217.5 103.5 403.5t293 300t422.5 114q240 0 428 -115t286.5 -298t98.5 -394q0 -217 -97 -407.5t-288.5 -313.5t-435.5 -123q-240 0 -428.5 120t-285.5 308t-97 405.5zM334 803q0 -328 158.5 -529.5t406.5 -201.5q252 0 403.5 198.5t151.5 522.5 q0 317 -159.5 510.5t-409.5 193.5q-233 0 -392 -190.5t-159 -503.5zM496 1724l30 64q74 156 203 156q68 0 172 -66q4 -2 25.5 -16.5t36 -22.5t35 -19.5t39 -16.5t32.5 -5q76 0 123 78l29 47l59 -43l-31 -63q-41 -86 -88 -119t-119 -33q-74 0 -165 66q-115 80 -175 79 q-74 0 -124 -90l-21 -34z" />
<glyph unicode="&#xd6;" horiz-adv-x="1787" d="M78 792.5q0 217.5 103.5 403.5t293 300t422.5 114q240 0 428 -115t286.5 -298t98.5 -394q0 -217 -97 -407.5t-288.5 -313.5t-435.5 -123q-240 0 -428.5 120t-285.5 308t-97 405.5zM334 803q0 -328 158.5 -529.5t406.5 -201.5q252 0 403.5 198.5t151.5 522.5 q0 317 -159.5 510.5t-409.5 193.5q-233 0 -392 -190.5t-159 -503.5zM584 1749q0 41 30.5 71.5t73.5 30.5t74 -30.5t31 -71.5q0 -43 -31 -72.5t-74 -29.5t-73.5 29.5t-30.5 72.5zM989 1749q0 41 31 71.5t72 30.5q45 0 75.5 -30.5t30.5 -71.5q0 -43 -30.5 -72.5t-75.5 -29.5 q-41 0 -72 29.5t-31 72.5z" />
<glyph unicode="&#xd7;" horiz-adv-x="1726" d="M180 604l350 334l-86 467l420 -227l420 227l-90 -471l350 -332l-479 -59l-205 -430l-203 432zM528 719l234 -29l100 -215l101 213l233 29l-168 160l43 235l-205 -111l-211 113l45 -233z" />
<glyph unicode="&#xd8;" horiz-adv-x="1787" d="M78 793q0 217 103.5 403t293 301t422.5 115q315 0 537 -195l202 209l60 -63l-199 -209q213 -231 213 -551q0 -217 -97 -407.5t-288.5 -313.5t-435.5 -123q-315 0 -537 201l-180 -187l-63 64l180 186q-211 240 -211 570zM334 803q0 -250 96 -432l877 913 q-158 213 -422 213q-233 0 -392 -190.5t-159 -503.5zM479 291q158 -219 420 -219q252 0 403.5 198.5t151.5 522.5q0 240 -96 415z" />
<glyph unicode="&#xd9;" horiz-adv-x="1845" d="M70 1475v102h712v-102h-155q-59 0 -77 -25t-18 -94v-813q0 -246 120 -356.5t315 -110.5q217 0 328.5 121.5t111.5 353.5v805q0 70 -17.5 94.5t-76.5 24.5h-156v102h610v-102h-120q-66 0 -82.5 -24t-16.5 -95v-774q0 -623 -604 -623q-313 0 -471 150.5t-158 429.5v817 q0 70 -17 94.5t-77 24.5h-151zM672 1835l114 135l263 -280l-52 -64z" />
<glyph unicode="&#xda;" horiz-adv-x="1845" d="M70 1475v102h712v-102h-155q-59 0 -77 -25t-18 -94v-813q0 -246 120 -356.5t315 -110.5q217 0 328.5 121.5t111.5 353.5v805q0 70 -17.5 94.5t-76.5 24.5h-156v102h610v-102h-120q-66 0 -82.5 -24t-16.5 -95v-774q0 -623 -604 -623q-313 0 -471 150.5t-158 429.5v817 q0 70 -17 94.5t-77 24.5h-151zM848 1690l262 280l115 -135l-324 -209z" />
<glyph unicode="&#xdb;" horiz-adv-x="1845" d="M70 1475v102h712v-102h-155q-59 0 -77 -25t-18 -94v-813q0 -246 120 -356.5t315 -110.5q217 0 328.5 121.5t111.5 353.5v805q0 70 -17.5 94.5t-76.5 24.5h-156v102h610v-102h-120q-66 0 -82.5 -24t-16.5 -95v-774q0 -623 -604 -623q-313 0 -471 150.5t-158 429.5v817 q0 70 -17 94.5t-77 24.5h-151zM641 1696l262 254h123l270 -254l-59 -70l-272 186l-265 -188z" />
<glyph unicode="&#xdc;" horiz-adv-x="1845" d="M70 1475v102h712v-102h-155q-59 0 -77 -25t-18 -94v-813q0 -246 120 -356.5t315 -110.5q217 0 328.5 121.5t111.5 353.5v805q0 70 -17.5 94.5t-76.5 24.5h-156v102h610v-102h-120q-66 0 -82.5 -24t-16.5 -95v-774q0 -623 -604 -623q-313 0 -471 150.5t-158 429.5v817 q0 70 -17 94.5t-77 24.5h-151zM643 1749q0 41 31 71.5t74 30.5t73.5 -30.5t30.5 -71.5q0 -43 -30.5 -72.5t-73.5 -29.5t-74 29.5t-31 72.5zM1049 1749q0 41 30.5 71.5t71.5 30.5q45 0 75.5 -30.5t30.5 -71.5q0 -43 -30.5 -72.5t-75.5 -29.5q-41 0 -71.5 29.5t-30.5 72.5z " />
<glyph unicode="&#xdd;" horiz-adv-x="1722" d="M18 1475v102l711 -8v-105h-149q-55 0 -71.5 -27.5t15.5 -86.5l398 -635l395 651q57 98 -53 98h-170v105l610 8v-102h-68q-113 0 -161 -82l-488 -811v-338q0 -141 117 -142h242v-102h-928v102h233q117 0 117 142v344l-496 792q-59 94 -174 95h-80zM840 1749l262 281 l115 -136l-324 -208z" />
<glyph unicode="&#xde;" horiz-adv-x="1521" d="M88 0v102h129q117 0 117 142v1091q0 139 -117 140h-129v102h711v-102h-129q-117 0 -117 -140v-32h301q270 0 430 -132.5t160 -324.5q0 -219 -164 -348t-440 -129h-287v-125q0 -141 117 -142h215v-102h-797zM553 481h238q219 0 307 96.5t88 258.5q0 166 -89 264t-268 98 h-159q-117 0 -117 -139v-578z" />
<glyph unicode="&#xdf;" horiz-adv-x="1472" d="M78 0v102h131q37 0 49 15.5t12 58.5v717h-192v102h123q33 0 51 19.5t18 54.5v59q0 213 138.5 348.5t351.5 135.5q223 0 347 -117t124 -313q0 -117 6 -159t35 -60v-170h-88q-27 72 -93.5 115.5t-165 43.5t-157.5 -42t-59 -113q0 -78 38.5 -106.5t186.5 -63.5l160 -37 q305 -72 305 -299q0 -150 -121 -232t-266 -82q-94 0 -191.5 42t-113.5 42q-43 0 -43 -61h-86v416h94q8 -145 100 -242.5t242 -97.5q100 0 163.5 50t63.5 126q0 74 -48 110.5t-189 65.5l-111 23q-168 33 -251 100t-83 188q0 125 100.5 216.5t260.5 91.5q88 0 170 -23 q45 68 45 172q0 150 -97.5 236t-279.5 86q-135 0 -223.5 -88.5t-88.5 -245.5v-1184h-368z" />
<glyph unicode="&#xe0;" d="M88 260q0 59 23.5 105.5t54.5 73t80 47t82.5 28.5t81.5 16l114 21q133 25 178.5 57.5t45.5 112.5q0 113 -59.5 169t-164.5 56q-217 0 -217 -131q37 0 63.5 -26.5t26.5 -69.5q0 -115 -123 -115q-55 0 -94 38t-39 118q0 131 114 205.5t271 74.5q170 0 285 -75.5t115 -225.5 v-528q0 -133 75 -133q86 0 86 133v88h91v-90q0 -100 -50.5 -167t-150.5 -67q-98 0 -147.5 41t-73.5 125q-113 -166 -326 -166q-158 0 -250 74t-92 211zM272 1327l115 135l262 -280l-51 -64zM283 260q0 -86 47 -137t145 -51q119 0 197 96t78 229v164q-63 -80 -281 -121 q-94 -18 -140 -60t-46 -120z" />
<glyph unicode="&#xe1;" d="M88 260q0 59 23.5 105.5t54.5 73t80 47t82.5 28.5t81.5 16l114 21q133 25 178.5 57.5t45.5 112.5q0 113 -59.5 169t-164.5 56q-217 0 -217 -131q37 0 63.5 -26.5t26.5 -69.5q0 -115 -123 -115q-55 0 -94 38t-39 118q0 131 114 205.5t271 74.5q170 0 285 -75.5t115 -225.5 v-528q0 -133 75 -133q86 0 86 133v88h91v-90q0 -100 -50.5 -167t-150.5 -67q-98 0 -147.5 41t-73.5 125q-113 -166 -326 -166q-158 0 -250 74t-92 211zM283 260q0 -86 47 -137t145 -51q119 0 197 96t78 229v164q-63 -80 -281 -121q-94 -18 -140 -60t-46 -120zM432 1182 l262 280l115 -135l-324 -209z" />
<glyph unicode="&#xe2;" d="M88 260q0 59 23.5 105.5t54.5 73t80 47t82.5 28.5t81.5 16l114 21q133 25 178.5 57.5t45.5 112.5q0 113 -59.5 169t-164.5 56q-217 0 -217 -131q37 0 63.5 -26.5t26.5 -69.5q0 -115 -123 -115q-55 0 -94 38t-39 118q0 131 114 205.5t271 74.5q170 0 285 -75.5t115 -225.5 v-528q0 -133 75 -133q86 0 86 133v88h91v-90q0 -100 -50.5 -167t-150.5 -67q-98 0 -147.5 41t-73.5 125q-113 -166 -326 -166q-158 0 -250 74t-92 211zM219 1159l262 254h123l270 -254l-59 -69l-272 186l-264 -189zM283 260q0 -86 47 -137t145 -51q119 0 197 96t78 229v164 q-63 -80 -281 -121q-94 -18 -140 -60t-46 -120z" />
<glyph unicode="&#xe3;" d="M88 260q0 59 23.5 105.5t54.5 73t80 47t82.5 28.5t81.5 16l114 21q133 25 178.5 57.5t45.5 112.5q0 113 -59.5 169t-164.5 56q-217 0 -217 -131q37 0 63.5 -26.5t26.5 -69.5q0 -115 -123 -115q-55 0 -94 38t-39 118q0 131 114 205.5t271 74.5q170 0 285 -75.5t115 -225.5 v-528q0 -133 75 -133q86 0 86 133v88h91v-90q0 -100 -50.5 -167t-150.5 -67q-98 0 -147.5 41t-73.5 125q-113 -166 -326 -166q-158 0 -250 74t-92 211zM154 1167l30 64q74 156 203 155q68 0 172 -65q4 -2 25.5 -16.5t36 -22.5t35 -19.5t39 -16.5t32.5 -5q76 0 123 78l29 47 l59 -43l-31 -63q-41 -86 -88 -119t-119 -33q-74 0 -165 66q-115 80 -175 79q-74 0 -124 -90l-21 -35zM283 260q0 -86 47 -137t145 -51q119 0 197 96t78 229v164q-63 -80 -281 -121q-94 -18 -140 -60t-46 -120z" />
<glyph unicode="&#xe4;" d="M88 260q0 59 23.5 105.5t54.5 73t80 47t82.5 28.5t81.5 16l114 21q133 25 178.5 57.5t45.5 112.5q0 113 -59.5 169t-164.5 56q-217 0 -217 -131q37 0 63.5 -26.5t26.5 -69.5q0 -115 -123 -115q-55 0 -94 38t-39 118q0 131 114 205.5t271 74.5q170 0 285 -75.5t115 -225.5 v-528q0 -133 75 -133q86 0 86 133v88h91v-90q0 -100 -50.5 -167t-150.5 -67q-98 0 -147.5 41t-73.5 125q-113 -166 -326 -166q-158 0 -250 74t-92 211zM231 1204q0 41 31 72t74 31t73.5 -31t30.5 -72q0 -43 -30.5 -72.5t-73.5 -29.5t-74 29.5t-31 72.5zM283 260 q0 -86 47 -137t145 -51q119 0 197 96t78 229v164q-63 -80 -281 -121q-94 -18 -140 -60t-46 -120zM637 1204q0 41 30.5 72t71.5 31q45 0 76 -31t31 -72q0 -43 -31 -72.5t-76 -29.5q-41 0 -71.5 29.5t-30.5 72.5z" />
<glyph unicode="&#xe5;" d="M88 260q0 59 23.5 105.5t54.5 73t80 47t82.5 28.5t81.5 16l114 21q133 25 178.5 57.5t45.5 112.5q0 113 -59.5 169t-164.5 56q-217 0 -217 -131q37 0 63.5 -26.5t26.5 -69.5q0 -115 -123 -115q-55 0 -94 38t-39 118q0 131 114 205.5t271 74.5q170 0 285 -75.5t115 -225.5 v-528q0 -133 75 -133q86 0 86 133v88h91v-90q0 -100 -50.5 -167t-150.5 -67q-98 0 -147.5 41t-73.5 125q-113 -166 -326 -166q-158 0 -250 74t-92 211zM283 260q0 -86 47 -137t145 -51q119 0 197 96t78 229v164q-63 -80 -281 -121q-94 -18 -140 -60t-46 -120zM289 1333.5 q0 100.5 70.5 172t173 71.5t173 -71.5t70.5 -172t-70.5 -172t-173 -71.5t-173 71.5t-70.5 172zM373 1333.5q0 -65.5 47 -112.5t112.5 -47t112.5 47t47 112.5t-47 112.5t-112.5 47t-112.5 -47t-47 -112.5z" />
<glyph unicode="&#xe6;" horiz-adv-x="1736" d="M88 246q0 123 88 197.5t234 95.5l114 16q125 18 174.5 54t49.5 104q0 127 -59.5 182t-184.5 55q-96 0 -149.5 -32.5t-53.5 -92.5q35 0 63.5 -28.5t28.5 -67.5q0 -115 -119 -115q-57 0 -95 37t-38 119q0 127 110.5 199.5t256.5 72.5q242 0 326 -188q59 82 165.5 134 t214.5 52q190 0 319.5 -128t129.5 -367v-45h-756v-8q0 -176 89 -290t241 -114q150 0 222.5 60.5t92.5 205.5h101q-23 -182 -125.5 -275t-302.5 -93q-139 0 -249 69.5t-149 167.5q-51 -109 -156.5 -175t-240.5 -66q-342 0 -342 264zM262 231q0 -154 203 -153q121 0 203 81 t82 199v187q-82 -61 -287 -96q-201 -36 -201 -218zM909 584h582v14q0 143 -68.5 242.5t-220.5 99.5q-143 0 -218 -101.5t-75 -244.5v-10z" />
<glyph unicode="&#xe7;" horiz-adv-x="1105" d="M76 518q0 225 158.5 373.5t363.5 148.5q168 0 291 -89t123 -214q0 -76 -38 -123t-106 -47q-57 0 -94 34t-37 85q0 55 38 84t83 23q-57 152 -266 151q-145 0 -228 -114.5t-83 -315.5q0 -193 89 -311.5t244 -118.5q141 0 229.5 86t100.5 192h105v-4q-4 -147 -122 -258.5 t-321 -113.5l-18 -70l39 -14q125 -45 125 -154q0 -53 -44 -91t-114 -38q-55 0 -137 43l14 53q43 -25 78 -24q31 0 47 18.5t16 42.5q0 80 -104 105l37 131q-203 23 -336 171t-133 359z" />
<glyph unicode="&#xe8;" horiz-adv-x="1130" d="M74 508q0 238 149.5 385t372.5 147q190 0 326.5 -132t136.5 -373v-46h-778v-4q0 -174 92 -285.5t245 -111.5q141 0 227.5 81t98.5 185h105q0 -131 -124 -249.5t-319 -118.5q-221 0 -376.5 145.5t-155.5 376.5zM283 573h589v5q0 92 -24.5 168.5t-92 135t-171.5 58.5 q-143 0 -222 -107.5t-79 -252.5v-7zM342 1327l115 135l262 -280l-51 -64z" />
<glyph unicode="&#xe9;" horiz-adv-x="1130" d="M74 508q0 238 149.5 385t372.5 147q190 0 326.5 -132t136.5 -373v-46h-778v-4q0 -174 92 -285.5t245 -111.5q141 0 227.5 81t98.5 185h105q0 -131 -124 -249.5t-319 -118.5q-221 0 -376.5 145.5t-155.5 376.5zM283 573h589v5q0 92 -24.5 168.5t-92 135t-171.5 58.5 q-143 0 -222 -107.5t-79 -252.5v-7zM502 1182l262 280l115 -135l-324 -209z" />
<glyph unicode="&#xea;" horiz-adv-x="1130" d="M74 508q0 238 149.5 385t372.5 147q190 0 326.5 -132t136.5 -373v-46h-778v-4q0 -174 92 -285.5t245 -111.5q141 0 227.5 81t98.5 185h105q0 -131 -124 -249.5t-319 -118.5q-221 0 -376.5 145.5t-155.5 376.5zM256 1159l262 254h123l270 -254l-59 -69l-272 186l-265 -189 zM283 573h589v5q0 92 -24.5 168.5t-92 135t-171.5 58.5q-143 0 -222 -107.5t-79 -252.5v-7z" />
<glyph unicode="&#xeb;" horiz-adv-x="1130" d="M74 508q0 238 149.5 385t372.5 147q190 0 326.5 -132t136.5 -373v-46h-778v-4q0 -174 92 -285.5t245 -111.5q141 0 227.5 81t98.5 185h105q0 -131 -124 -249.5t-319 -118.5q-221 0 -376.5 145.5t-155.5 376.5zM268 1204q0 41 31 72t74 31t73.5 -31t30.5 -72 q0 -43 -30.5 -72.5t-73.5 -29.5t-74 29.5t-31 72.5zM283 573h589v5q0 92 -24.5 168.5t-92 135t-171.5 58.5q-143 0 -222 -107.5t-79 -252.5v-7zM674 1204q0 41 30.5 72t71.5 31q45 0 76 -31t31 -72q0 -43 -31 -72.5t-76 -29.5q-41 0 -71.5 29.5t-30.5 72.5z" />
<glyph unicode="&#xec;" horiz-adv-x="679" d="M33 1327l114 135l263 -280l-52 -64zM78 0v102h125q41 0 54 17.5t13 64.5v627q0 39 -21.5 60.5t-58.5 21.5h-112v102l368 6v-817q0 -45 19.5 -63.5t62.5 -18.5h113v-102h-563z" />
<glyph unicode="&#xed;" horiz-adv-x="679" d="M78 0v102h125q41 0 54 17.5t13 64.5v627q0 39 -21.5 60.5t-58.5 21.5h-112v102l368 6v-817q0 -45 19.5 -63.5t62.5 -18.5h113v-102h-563zM260 1182l262 280l115 -135l-324 -209z" />
<glyph unicode="&#xee;" horiz-adv-x="679" d="M-2 1159l262 254h123l270 -254l-59 -69l-272 186l-265 -189zM78 0v102h125q41 0 54 17.5t13 64.5v627q0 39 -21.5 60.5t-58.5 21.5h-112v102l368 6v-817q0 -45 19.5 -63.5t62.5 -18.5h113v-102h-563z" />
<glyph unicode="&#xef;" horiz-adv-x="679" d="M-2 1204q0 41 30.5 72t73.5 31t74 -31t31 -72q0 -43 -31 -72.5t-74 -29.5t-73.5 29.5t-30.5 72.5zM78 0v102h125q41 0 54 17.5t13 64.5v627q0 39 -21.5 60.5t-58.5 21.5h-112v102l368 6v-817q0 -45 19.5 -63.5t62.5 -18.5h113v-102h-563zM403 1204q0 41 31 72t72 31 q45 0 75.5 -31t30.5 -72q0 -43 -30.5 -72.5t-75.5 -29.5q-41 0 -72 29.5t-31 72.5z" />
<glyph unicode="&#xf0;" d="M78 516q0 217 153.5 370.5t368.5 153.5q199 0 311 -143q-27 276 -123 422l-182 -123l-61 86l174 117q-82 76 -203 76q-123 0 -215 -52l-49 95q109 74 285 73q174 0 305 -110l147 100l62 -86l-133 -90q203 -240 202 -737q0 -342 -154.5 -512t-385.5 -170 q-238 0 -370 150.5t-132 379.5zM283 524q0 -221 96 -330.5t223 -109.5t220 102.5t93 323.5t-93 327.5t-220 106.5q-129 0 -224 -100.5t-95 -319.5z" />
<glyph unicode="&#xf1;" horiz-adv-x="1398" d="M88 0v102h105q88 0 88 103v594q0 41 -20.5 67.5t-59.5 26.5h-113v102l363 9v-193q53 106 156.5 162.5t228.5 56.5q164 0 253 -82t89 -241v-502q0 -102 86 -103h96v-102h-557v102h110q86 0 86 103v495q0 94 -59 154.5t-158 60.5q-150 0 -237.5 -112.5t-87.5 -345.5v-252 q0 -102 88 -103h104v-102h-561zM319 1167l31 64q74 156 203 155q68 0 172 -65q4 -2 25.5 -16.5t36 -22.5t35 -19.5t39 -16.5t32.5 -5q76 0 123 78l28 47l60 -43l-31 -63q-41 -86 -88 -119t-119 -33q-74 0 -166 66q-115 80 -174 79q-74 0 -125 -90l-20 -35z" />
<glyph unicode="&#xf2;" horiz-adv-x="1187" d="M74 516q0 217 154.5 370.5t373.5 153.5t365.5 -145t146.5 -365q0 -221 -153.5 -382.5t-368.5 -161.5q-219 0 -368.5 154.5t-149.5 375.5zM279 524q0 -221 96 -330.5t223 -109.5t220 102.5t93 323.5t-93 327.5t-220 106.5q-129 0 -224 -100.5t-95 -319.5zM317 1307 l115 135l262 -281l-51 -63z" />
<glyph unicode="&#xf3;" horiz-adv-x="1187" d="M74 516q0 217 154.5 370.5t373.5 153.5t365.5 -145t146.5 -365q0 -221 -153.5 -382.5t-368.5 -161.5q-219 0 -368.5 154.5t-149.5 375.5zM279 524q0 -221 96 -330.5t223 -109.5t220 102.5t93 323.5t-93 327.5t-220 106.5q-129 0 -224 -100.5t-95 -319.5zM481 1182 l262 280l115 -135l-323 -209z" />
<glyph unicode="&#xf4;" horiz-adv-x="1187" d="M74 516q0 217 154.5 370.5t373.5 153.5t365.5 -145t146.5 -365q0 -221 -153.5 -382.5t-368.5 -161.5q-219 0 -368.5 154.5t-149.5 375.5zM279 524q0 -221 96 -330.5t223 -109.5t220 102.5t93 323.5t-93 327.5t-220 106.5q-129 0 -224 -100.5t-95 -319.5zM279 1159 l262 254h123l270 -254l-60 -69l-272 186l-264 -189z" />
<glyph unicode="&#xf5;" horiz-adv-x="1187" d="M74 516q0 217 154.5 370.5t373.5 153.5t365.5 -145t146.5 -365q0 -221 -153.5 -382.5t-368.5 -161.5q-219 0 -368.5 154.5t-149.5 375.5zM195 1167l30 64q74 156 203 155q68 0 172 -65q4 -2 25.5 -16.5t36 -22.5t35 -19.5t39 -16.5t32.5 -5q76 0 123 78l29 47l59 -43 l-31 -63q-41 -86 -88 -119t-119 -33q-74 0 -166 66q-115 80 -174 79q-74 0 -125 -90l-20 -35zM279 524q0 -221 96 -330.5t223 -109.5t220 102.5t93 323.5t-93 327.5t-220 106.5q-129 0 -224 -100.5t-95 -319.5z" />
<glyph unicode="&#xf6;" horiz-adv-x="1187" d="M74 516q0 217 154.5 370.5t373.5 153.5t365.5 -145t146.5 -365q0 -221 -153.5 -382.5t-368.5 -161.5q-219 0 -368.5 154.5t-149.5 375.5zM279 524q0 -221 96 -330.5t223 -109.5t220 102.5t93 323.5t-93 327.5t-220 106.5q-129 0 -224 -100.5t-95 -319.5zM293 1204 q0 41 30.5 72t73.5 31t74 -31t31 -72q0 -43 -31 -72.5t-74 -29.5t-73.5 29.5t-30.5 72.5zM698 1204q0 41 31 72t72 31q45 0 75.5 -31t30.5 -72q0 -43 -30.5 -72.5t-75.5 -29.5q-41 0 -72 29.5t-31 72.5z" />
<glyph unicode="&#xf7;" horiz-adv-x="1306" d="M137 721v115h1032v-115h-1032zM520 422q0 53 39 93t92.5 40t93 -40t39.5 -93t-39.5 -92t-93 -39t-92.5 39t-39 92zM520 1134.5q0 53.5 39 92.5t92.5 39t93 -39t39.5 -92.5t-39.5 -92t-93 -38.5t-92.5 38.5t-39 92z" />
<glyph unicode="&#xf8;" horiz-adv-x="1187" d="M74 516q0 217 154.5 370.5t373.5 153.5q193 0 338 -118l127 133l53 -54l-127 -131q121 -143 121 -340q0 -221 -153.5 -382.5t-368.5 -161.5q-184 0 -330 118l-104 -110l-56 53l107 111q-135 151 -135 358zM279 524q0 -147 45 -248q14 14 38.5 41t92 96.5t127 132t120 126 t97.5 102.5l37 37q-88 133 -238 133q-129 0 -224 -100.5t-95 -319.5zM362 209q90 -125 236 -125q127 0 220 102.5t93 323.5q0 133 -39 231z" />
<glyph unicode="&#xf9;" horiz-adv-x="1341" d="M33 893v102h360v-700q0 -100 58.5 -157.5t158.5 -57.5q147 0 236.5 130t89.5 368v215q0 100 -90 100h-103v102h369v-798q0 -41 20.5 -68t59.5 -27h115v-102h-365v233q-47 -123 -148.5 -195.5t-224.5 -72.5q-160 0 -256 77t-96 232v519q0 100 -88 100h-96zM289 1327 l114 135l263 -280l-52 -64z" />
<glyph unicode="&#xfa;" horiz-adv-x="1341" d="M29 893v102h360v-700q0 -100 58.5 -157.5t158.5 -57.5q147 0 236.5 130t89.5 368v215q0 100 -90 100h-103v102h369v-798q0 -41 20.5 -68t59.5 -27h115v-102h-365v233q-47 -123 -148.5 -195.5t-224.5 -72.5q-160 0 -256 77t-96 232v519q0 100 -88 100h-96zM512 1182 l262 280l115 -135l-324 -209z" />
<glyph unicode="&#xfb;" horiz-adv-x="1341" d="M29 893v102h360v-700q0 -100 58.5 -157.5t158.5 -57.5q147 0 236.5 130t89.5 368v215q0 100 -90 100h-103v102h369v-798q0 -41 20.5 -68t59.5 -27h115v-102h-365v233q-47 -123 -148.5 -195.5t-224.5 -72.5q-160 0 -256 77t-96 232v519q0 100 -88 100h-96zM305 1159 l262 254h123l271 -254l-60 -69l-272 186l-264 -189z" />
<glyph unicode="&#xfc;" horiz-adv-x="1341" d="M29 893v102h360v-700q0 -100 58.5 -157.5t158.5 -57.5q147 0 236.5 130t89.5 368v215q0 100 -90 100h-103v102h369v-798q0 -41 20.5 -68t59.5 -27h115v-102h-365v233q-47 -123 -148.5 -195.5t-224.5 -72.5q-160 0 -256 77t-96 232v519q0 100 -88 100h-96zM317 1204 q0 41 31 72t74 31t73.5 -31t30.5 -72q0 -43 -30.5 -72.5t-73.5 -29.5t-74 29.5t-31 72.5zM723 1204q0 41 30.5 72t71.5 31q45 0 76 -31t31 -72q0 -43 -31 -72.5t-76 -29.5q-41 0 -71.5 29.5t-30.5 72.5z" />
<glyph unicode="&#xfd;" horiz-adv-x="1204" d="M10 893v102h520v-102h-108q-39 0 -52.5 -21.5t3.5 -56.5l274 -653l260 645q8 18 8 39q0 47 -53 47h-110v102h442v-102h-49q-61 0 -84 -23.5t-62 -115.5l-315 -758q-104 -248 -186 -340t-217 -92q-115 0 -189 60.5t-74 150.5q0 61 38 103t106 42q55 0 89 -33.5t34 -85.5 q0 -47 -56 -88q12 -59 68 -59q41 0 67.5 8t61.5 41t70.5 105.5t78.5 191.5h-40l-322 762q-31 70 -59.5 100.5t-69.5 30.5h-74zM553 1200l262 281l115 -135l-324 -209z" />
<glyph unicode="&#xfe;" horiz-adv-x="1310" d="M29 -301h106q86 0 86 100v1581q0 94 -80 95h-112v102h364v-709q45 70 132 116t212 46q219 0 359.5 -151.5t140.5 -380.5q0 -254 -148.5 -391.5t-343.5 -137.5q-127 0 -219 52.5t-127 119.5v-342q0 -100 86 -100h160v-105h-616v105zM395 508q2 -137 8 -160 q27 -131 112 -205.5t200 -74.5q139 0 227 113.5t88 295.5q0 213 -87 333t-228 120q-129 0 -211 -73t-105 -171q-6 -41 -4 -178z" />
<glyph unicode="&#xff;" horiz-adv-x="1204" d="M10 893v102h520v-102h-108q-39 0 -52.5 -21.5t3.5 -56.5l274 -653l260 645q8 18 8 39q0 47 -53 47h-110v102h442v-102h-49q-61 0 -84 -23.5t-62 -115.5l-315 -758q-104 -248 -186 -340t-217 -92q-115 0 -189 60.5t-74 150.5q0 61 38 103t106 42q55 0 89 -33.5t34 -85.5 q0 -47 -56 -88q12 -59 68 -59q41 0 67.5 8t61.5 41t70.5 105.5t78.5 191.5h-40l-322 762q-31 70 -59.5 100.5t-69.5 30.5h-74zM319 1204q0 41 31 72t74 31t73.5 -31t30.5 -72q0 -43 -30.5 -72.5t-73.5 -29.5t-74 29.5t-31 72.5zM725 1204q0 41 30.5 72t71.5 31q45 0 76 -31 t31 -72q0 -43 -31 -72.5t-76 -29.5q-41 0 -71.5 29.5t-30.5 72.5z" />
<glyph unicode="&#x152;" horiz-adv-x="2553" d="M78 793q0 217 103.5 403t293 301t422.5 115q123 0 229 -13q33 -4 87.5 -11t92 -9t103.5 -2h1045v-563h-113v78q0 217 -85 300t-304 83h-299q-117 0 -117 -140v-483h190q80 0 136.5 52t56.5 132v152h104v-782h-104v157q0 80 -56.5 133.5t-136.5 53.5h-190v-506 q0 -141 117 -142h311q221 0 305 83t84 300v105h115v-590h-1034q-100 0 -273 -12q-127 -8 -272 -8q-360 0 -585.5 239.5t-225.5 573.5zM326 803q0 -326 160.5 -518.5t412.5 -192.5q150 0 230.5 13.5t128 62.5t59.5 117.5t12 201.5v623q0 201 -41 277.5t-176 97.5 q-84 12 -227 12q-236 0 -397.5 -190.5t-161.5 -503.5z" />
<glyph unicode="&#x153;" horiz-adv-x="1947" d="M78 516q0 217 154.5 370.5t373.5 153.5q137 0 246 -59t160 -156q45 100 149.5 157.5t241.5 57.5q188 0 317 -132t129 -373v-46h-751v-4q0 -176 85 -286.5t236 -110.5q141 0 223 80t93 186h106q-14 -147 -126.5 -257.5t-305.5 -110.5q-139 0 -248.5 59t-159.5 164 q-141 -223 -405 -223q-219 0 -368.5 154.5t-149.5 375.5zM283 524q0 -221 96 -330.5t223 -109.5t219 102.5t92 323.5t-92 327.5t-219 106.5q-129 0 -224 -100.5t-95 -319.5zM1100 573h577v5q0 147 -67.5 254.5t-218.5 107.5q-143 0 -217 -106.5t-74 -253.5v-7z" />
<glyph unicode="&#x178;" horiz-adv-x="1722" d="M18 1475v102l711 -8v-105h-149q-55 0 -71.5 -27.5t15.5 -86.5l398 -635l395 651q57 98 -53 98h-170v105l610 8v-102h-68q-113 0 -161 -82l-488 -811v-338q0 -141 117 -142h242v-102h-928v102h233q117 0 117 142v344l-496 792q-59 94 -174 95h-80zM600 1749q0 41 31 71.5 t74 30.5t73.5 -30.5t30.5 -71.5q0 -43 -30.5 -72.5t-73.5 -29.5t-74 29.5t-31 72.5zM1006 1749q0 41 30.5 71.5t71.5 30.5q45 0 75.5 -30.5t30.5 -71.5q0 -43 -30.5 -72.5t-75.5 -29.5q-41 0 -71.5 29.5t-30.5 72.5z" />
<glyph unicode="&#x2c6;" horiz-adv-x="972" d="M162 1180l262 254h123l270 -254l-59 -70l-273 186l-264 -188z" />
<glyph unicode="&#x2dc;" horiz-adv-x="972" d="M135 1167l31 64q74 156 203 155q68 0 172 -65q4 -2 25.5 -16.5t35.5 -22.5t34.5 -19.5t39 -16.5t33.5 -5q76 0 122 78l29 47l60 -43l-31 -63q-41 -86 -88 -119t-119 -33q-74 0 -166 66q-115 80 -174 79q-74 0 -125 -90l-20 -35z" />
<glyph unicode="&#x2013;" horiz-adv-x="1478" d="M229 578v133h1033v-133h-1033z" />
<glyph unicode="&#x2014;" horiz-adv-x="1898" d="M0 578v133h1898v-133h-1898z" />
<glyph unicode="&#x2018;" horiz-adv-x="565" d="M113 1221q0 150 94 253t250 103v-88q-86 0 -131 -38t-45 -89q0 -47 57 -84q53 -33 75.5 -59.5t22.5 -69.5q0 -59 -40 -99t-99 -40q-84 0 -134 53.5t-50 157.5z" />
<glyph unicode="&#x2019;" horiz-adv-x="565" d="M109 1028v88q92 0 135 36t43 91q0 53 -60 84q-96 49 -96 129q0 59 40 99t99 40q84 0 133.5 -53t49.5 -158q0 -150 -94 -253t-250 -103z" />
<glyph unicode="&#x201a;" horiz-adv-x="565" d="M109 -184q88 0 133 36.5t45 90.5q0 51 -60 82q-96 53 -96 129q0 59 40 99t99 40q84 0 133.5 -52.5t49.5 -156.5q0 -147 -97.5 -252.5t-246.5 -105.5v90z" />
<glyph unicode="&#x201c;" horiz-adv-x="997" d="M106 1221q0 150 94.5 253t250.5 103v-88q-82 0 -129.5 -38t-47.5 -89q0 -47 58 -84q53 -33 75.5 -59.5t22.5 -69.5q0 -59 -40 -99t-99 -40q-84 0 -134.5 53.5t-50.5 157.5zM545 1221q0 150 94 253t250 103v-88q-82 0 -129 -38t-47 -89q0 -53 57 -84q98 -49 98 -129 q0 -59 -41 -99t-100 -40q-84 0 -133 53.5t-49 157.5z" />
<glyph unicode="&#x201d;" horiz-adv-x="997" d="M109 1028v88q86 0 132 35t46 92q0 53 -60 84q-96 49 -96 129q0 59 40 99t99 40q84 0 133.5 -53t49.5 -158q0 -147 -97 -251.5t-247 -104.5zM547 1028v88q86 0 131 34t45 93q0 47 -57 84q-53 33 -76 59.5t-23 69.5q0 59 41 99t101 40q84 0 133 -53t49 -158 q0 -147 -96 -251.5t-248 -104.5z" />
<glyph unicode="&#x201e;" horiz-adv-x="997" d="M109 -184q88 0 133 36.5t45 90.5q0 51 -60 82q-96 53 -96 129q0 59 40 99t99 40q84 0 133.5 -52.5t49.5 -156.5q0 -147 -97.5 -252.5t-246.5 -105.5v90zM547 -184q90 0 133 35.5t43 91.5q0 45 -57 82q-51 33 -75 60.5t-24 68.5q0 59 41 99t101 40q84 0 133 -52.5 t49 -156.5q0 -147 -96.5 -252.5t-247.5 -105.5v90z" />
<glyph unicode="&#x2022;" horiz-adv-x="1126" d="M164 631q0 166 116.5 282.5t282.5 116.5q164 0 282 -116.5t118 -282.5t-118 -283t-282 -117q-166 0 -282.5 117t-116.5 283z" />
<glyph unicode="&#x2026;" horiz-adv-x="1634" d="M117 112.5q0 63.5 46 109.5t109.5 46t109.5 -46t46 -109.5t-45 -108.5t-110.5 -45t-110.5 45t-45 108.5zM662 112.5q0 63.5 46 109.5t109.5 46t109.5 -46t46 -109.5t-45 -108.5t-110.5 -45t-110.5 45t-45 108.5zM1206 112.5q0 63.5 46 109.5t109.5 46t110 -46 t46.5 -109.5t-45.5 -108.5t-111 -45t-110.5 45t-45 108.5z" />
<glyph unicode="&#x2039;" horiz-adv-x="968" d="M96 516v100l774 471v-129l-585 -393l585 -391v-131z" />
<glyph unicode="&#x203a;" horiz-adv-x="968" d="M96 43v131l586 391l-586 393v129l776 -471v-100z" />
<glyph unicode="&#x20ac;" horiz-adv-x="1470" d="M23 516v125h118q-8 63 -8 152q0 16 1 48.5t1 49.5h-112v125h133q57 256 232 426t452 170q219 0 379.5 -100.5t160.5 -278.5q0 -84 -45 -126t-108 -42q-74 0 -113 42t-39 99q0 53 36 90t89 35q-63 176 -360 176q-186 0 -302 -125t-149 -366h510v-125h-522q-2 -31 -2 -98 q0 -84 6 -152h518v-125h-500q41 -221 154 -333.5t283 -112.5q205 0 337 130t132 382v24h120v-22q0 -158 -52 -282t-139 -196.5t-189.5 -110.5t-213.5 -38q-240 0 -422 145.5t-245 413.5h-141z" />
<glyph unicode="&#x2122;" horiz-adv-x="2234" d="M96 1221v358h817v-358h-61v143q0 68 -41 102.5t-111 34.5h-135v-627q0 -78 66 -77h121v-78h-490v78h121q63 0 63 77v627h-135q-72 0 -111.5 -34.5t-39.5 -102.5v-143h-64zM952 719v78h72q63 0 63 77v551q0 78 -63 78h-72v76h299l293 -686l293 686h299v-76h-72 q-63 0 -63 -78v-551q0 -78 63 -77h72v-78h-399v78h78q66 0 65 77v625l-338 -780h-45l-340 778v-623q0 -78 66 -77h71v-78h-342z" />
<glyph unicode="&#xe000;" horiz-adv-x="995" d="M0 995h995v-995h-995v995z" />
<glyph unicode="&#xfb01;" horiz-adv-x="1380" d="M78 0v102h131q37 0 49 16.5t12 59.5v715h-192v102h123q33 0 51 19.5t18 54.5v59q0 213 121 338t344 125q172 0 283.5 -70.5t111.5 -181.5q0 -59 -30.5 -93t-83.5 -34t-87 30t-34 73q0 86 68 104q-47 41 -94.5 59.5t-137.5 18.5q-117 0 -199.5 -65.5t-82.5 -176.5v-260 h698v-811q0 -47 14.5 -64.5t55.5 -17.5h124v-102h-563v102h125q41 0 54.5 17.5t13.5 64.5v637q0 41 -11.5 56.5t-48.5 15.5h-465v-703q0 -53 13.5 -70.5t58.5 -17.5h125v-102h-565z" />
<glyph unicode="&#xfb02;" horiz-adv-x="1380" d="M78 0v102h131q37 0 49 16.5t12 59.5v715h-192v102h123q33 0 51 19.5t18 54.5v59q0 225 112 344t320 119q160 0 254 -65l191 51v-1399q0 -43 15.5 -59.5t54.5 -16.5h124v-102h-563v102h131q35 0 48.5 16.5t13.5 59.5v1036q-66 0 -104 27t-38 74q0 37 24 71.5t65 38.5 q-20 23 -35 35.5t-60 24.5t-110 12q-119 0 -191.5 -58.5t-72.5 -183.5v-260h251v-102h-254v-703q0 -53 13.5 -70.5t58.5 -17.5h125v-102h-565z" />
<glyph unicode="&#xfb03;" horiz-adv-x="2256" d="M1655 0v102h125q41 0 54 17.5t13 64.5v627q0 39 -21.5 60.5t-58.5 21.5h-112v102l368 6v-817q0 -45 19.5 -63.5t62.5 -18.5h113v-102h-563zM1776 1423q0 59 42 101.5t99 42.5t100 -42t43 -102q0 -57 -42 -98t-101 -41t-100 41t-41 98zM866 0v98l131 4q37 2 49 17.5 t12 58.5v715h-192v102h141q51 0 51 54v79q0 463 359 463q129 0 207.5 -72.5t78.5 -177.5q0 -57 -33.5 -93t-86.5 -36q-51 0 -83 30t-32 73q0 68 49 98q2 2 8 4t9.5 4t3.5 6q0 70 -125 70q-176 0 -176 -242v-260h251v-102h-254v-703q0 -53 13.5 -69.5t58.5 -18.5l174 -4v-98 h-614zM78 0v98l131 4q37 2 49 17.5t12 58.5v715h-192v102h141q51 0 51 54v79q0 463 359 463q129 0 207.5 -72.5t78.5 -177.5q0 -57 -33.5 -93t-86.5 -36q-51 0 -83 30t-32 73q0 68 49 98q2 2 8 4t9.5 4t3.5 6q0 70 -125 70q-176 0 -176 -242v-260h251v-102h-254v-703 q0 -53 13.5 -69.5t58.5 -18.5l174 -4v-98h-614z" />
<glyph unicode="&#xfb04;" horiz-adv-x="2256" d="M1655 0v102h110q37 0 59.5 26t22.5 71v1183q0 41 -21.5 67t-58.5 26h-112v102l368 8v-1386q0 -43 25 -70t64 -27h106v-102h-563zM866 0v98l131 4q37 2 49 17.5t12 58.5v715h-192v102h141q51 0 51 54v79q0 463 359 463q129 0 207.5 -72.5t78.5 -177.5q0 -57 -33.5 -93 t-86.5 -36q-51 0 -83 30t-32 73q0 68 49 98q2 2 8 4t9.5 4t3.5 6q0 70 -125 70q-176 0 -176 -242v-260h251v-102h-254v-703q0 -53 13.5 -69.5t58.5 -18.5l174 -4v-98h-614zM78 0v98l131 4q37 2 49 17.5t12 58.5v715h-192v102h141q51 0 51 54v79q0 463 359 463 q129 0 207.5 -72.5t78.5 -177.5q0 -57 -33.5 -93t-86.5 -36q-51 0 -83 30t-32 73q0 68 49 98q2 2 8 4t9.5 4t3.5 6q0 70 -125 70q-176 0 -176 -242v-260h251v-102h-254v-703q0 -53 13.5 -69.5t58.5 -18.5l174 -4v-98h-614z" />
</font>
</defs>
</svg>
