<?xml version="1.0" encoding="UTF-8"?>
<svg width="21px" height="24px" viewBox="0 0 21 24" version="1.1" xmlns="http://www.w3.org/2000/svg" xmlns:xlink="http://www.w3.org/1999/xlink">
    <!-- Generator: Sketch 63.1 (92452) - https://sketch.com -->
    <title>Apple Logo</title>
    <desc>Created with Sketch.</desc>
    <g id="Symbols" stroke="none" stroke-width="1" fill="none" fill-rule="evenodd">
        <g id="Sign-/-Apple-Id-Reverse" transform="translate(-46.000000, -12.000000)" fill="#FFFFFF">
            <g id="Apple-Id">
                <g id="Group-10" transform="translate(46.000000, 12.000000)">
                    <g id="Group">
                        <g id="Apple-Logo">
                            <path d="M14.6850716,23.6128871 L14.4428842,23.6128871 C14.4310624,23.6092483 14.4194802,23.6035881 14.4073389,23.6022135 C14.3106876,23.5911357 14.2131576,23.5853946 14.1172252,23.5696268 C13.7287029,23.5056664 13.3520025,23.3952114 12.9827306,23.2597705 C12.6319103,23.1312028 12.2830071,22.9968939 11.9356215,22.8590273 C11.5701837,22.7140449 11.1898089,22.6466075 10.8009671,22.6221068 C10.6534341,22.6128888 10.5050224,22.6177404 10.3570101,22.6166892 C10.148451,22.6149911 9.94260768,22.6432114 9.73788264,22.6787898 C9.40910845,22.7361197 9.08792258,22.8240957 8.77432504,22.9394023 C8.53932657,23.0258419 8.30392873,23.1120389 8.07148633,23.2053516 C7.82913917,23.3026264 7.59174439,23.4125154 7.33813456,23.4792251 C7.08724055,23.5452071 6.83339109,23.5910548 6.57395023,23.6022135 C6.56244793,23.6027795 6.55110538,23.6092483 6.53968295,23.6128871 L6.23375361,23.6128871 C6.22249094,23.6091675 6.21130814,23.6028604 6.19980584,23.6022135 C5.98254009,23.5905696 5.77110538,23.54642 5.56414378,23.4806806 C5.13720061,23.3451589 4.75834347,23.1192354 4.40688418,22.8431787 C4.11772903,22.6161232 3.8557321,22.3595537 3.60907158,22.0859228 C3.374153,21.8253103 3.15712688,21.550143 2.95128356,21.2659193 C2.6660424,20.8720492 2.40572289,20.4615219 2.16081966,20.0408871 C1.95050323,19.6797653 1.75073057,19.3128217 1.56709309,18.9371451 C1.49184885,18.7830255 1.41876129,18.6278548 1.3464725,18.4722797 C1.12768909,18.0014307 0.935424885,17.5195038 0.767043932,17.0279546 C0.55744639,16.4163279 0.386828879,15.7937043 0.261102304,15.1584664 C0.168924117,14.6929542 0.100149923,14.2242075 0.0568565284,13.7516604 C0.0406414747,13.5743339 0.0311360983,13.3962797 0.0219502304,13.2184681 C0.012364977,13.0320853 0.00301935484,12.8456217 0.000383410138,12.6590772 C-0.00169339478,12.5068174 0.00453701997,12.3543959 0.0100485407,12.2021361 C0.0160393241,12.0348363 0.02306851,11.8675365 0.0338519201,11.7004793 C0.0513450077,11.4283038 0.0855324117,11.1579881 0.130982488,10.8892896 C0.207185253,10.439626 0.316776651,9.99861437 0.469182181,9.56859974 C0.643633794,9.07664619 0.869206759,8.61081049 1.15237112,8.17416533 C1.46980276,7.68471845 1.84586421,7.24653695 2.28327127,6.86277437 C2.71660461,6.48265049 3.1957874,6.17627114 3.72145868,5.94541523 C4.49291183,5.60653006 5.30446329,5.45621092 6.14069677,5.43098254 C6.4630808,5.42127931 6.78530507,5.43154856 7.10569217,5.47594082 C7.40898556,5.51798813 7.70716682,5.58211028 7.99911767,5.67534211 C8.33356313,5.78207759 8.65275207,5.92891974 8.97737266,6.06169222 C9.22714839,6.16389953 9.47468756,6.27168619 9.73492719,6.34543071 C9.95147404,6.40680361 10.1704971,6.43607501 10.3955908,6.41893265 C10.6401745,6.40025394 10.8792467,6.35222297 11.1104909,6.27128189 C11.3571515,6.18500404 11.6004571,6.08918469 11.8452006,5.99740834 C12.1117505,5.89746512 12.374706,5.78781867 12.6482052,5.70728189 C12.999345,5.60386168 13.3559963,5.53092576 13.718878,5.48523974 C13.9505217,5.45613006 14.1827244,5.43680447 14.4154863,5.43138684 C14.72509,5.42419028 15.035173,5.42524146 15.3433389,5.46284146 C15.5493419,5.48790813 15.7557444,5.5133791 15.96007,5.54992791 C16.2696737,5.60539802 16.5720885,5.69070555 16.8681929,5.7987348 C17.2772436,5.94800275 17.664408,6.14206727 18.0284879,6.38254555 C18.5263619,6.71124232 18.9616922,7.11141953 19.34662,7.56884576 C19.4000578,7.63232103 19.4510992,7.69773695 19.5056553,7.76517437 C19.4750624,7.78813867 19.449981,7.80762598 19.4242605,7.82622383 C19.0834249,8.0726049 18.7614402,8.34219286 18.4624602,8.63903071 C18.2578151,8.84231329 18.0675478,9.05893781 17.8922974,9.28906598 C17.5300547,9.76492834 17.2496061,10.2842935 17.0707613,10.8586436 C16.9475908,11.2541309 16.8768197,11.6593215 16.8586876,12.0728406 C16.8503005,12.2634281 16.8593266,12.4549051 16.864279,12.6458969 C16.870749,12.8975339 16.9070132,13.1458557 16.9540608,13.392641 C17.0497536,13.8948638 17.2212498,14.3691898 17.4688688,14.8148105 C17.7783926,15.3719374 18.1858458,15.84594 18.6663865,16.2579228 C19.1108227,16.6390978 19.5982329,16.9540483 20.1152774,17.223232 L20.1152774,17.2491073 C20.1121622,17.2516948 20.1073696,17.2536354 20.1060916,17.2569507 C20.0391545,17.442444 19.976451,17.6297163 19.9051207,17.8133498 C19.721643,18.2854926 19.5122052,18.745749 19.2789641,19.1949275 C19.070325,19.5967219 18.8445124,19.9882471 18.59258,20.3632767 C18.4208442,20.6189567 18.2404817,20.8689765 18.0558857,21.1154385 C17.7736799,21.4921662 17.4653542,21.8468191 17.1358611,22.1820655 C17.0027859,22.3174255 16.8646783,22.4481765 16.7236952,22.5750462 C16.3846968,22.8804552 16.0206169,23.1499623 15.60909,23.3486359 C15.3626691,23.4676621 15.106663,23.5561232 14.8340424,23.5898419 C14.7841991,23.5959873 14.7347551,23.6051245 14.6850716,23.6128871" id="Fill-1"></path>
                            <path d="M14.6872054,0 C14.6907276,0.0883144555 14.6952327,0.176710307 14.6974443,0.265024762 C14.7021952,0.448735109 14.7139085,0.632689643 14.7080928,0.816074407 C14.6922839,1.30884465 14.6126662,1.7916846 14.4557243,2.26044308 C14.2837927,2.77372507 14.0307689,3.24484403 13.7070557,3.67925347 C13.4940866,3.96511556 13.2557249,4.22883799 12.9960663,4.47261845 C12.6496638,4.79779472 12.26935,5.07730793 11.8453775,5.29642546 C11.3833982,5.53515937 10.895453,5.69095096 10.3793304,5.75891646 C10.2178834,5.78016077 10.0560268,5.79725389 9.89269586,5.79741668 C9.83928974,5.79741668 9.78596553,5.80311438 9.72764474,5.80645161 C9.71593144,5.69721843 9.70151506,5.59693879 9.6952079,5.49617078 C9.68578811,5.34957692 9.67702361,5.20257609 9.67741935,5.05581944 C9.67825228,4.75009677 9.71756966,4.4483625 9.78817714,4.15077941 C9.9221839,3.58613667 10.1639858,3.06951745 10.4886,2.58928216 C10.6855146,2.29780376 10.9069206,2.02626733 11.1478215,1.76970773 C11.4308248,1.46838044 11.7372547,1.19391376 12.0743193,0.953714724 C12.5162304,0.638712933 12.9942643,0.394606894 13.5139091,0.233199 C13.7905233,0.147407815 14.0717245,0.0825353529 14.3601339,0.0490816744 C14.4653079,0.0368723026 14.569499,0.0166047456 14.6741815,0 L14.6872054,0 Z" id="Fill-4"></path>
                        </g>
                    </g>
                </g>
            </g>
        </g>
    </g>
</svg>