<?xml version="1.0" encoding="UTF-8"?>
<svg width="22px" height="16px" viewBox="0 0 22 16" version="1.1" xmlns="http://www.w3.org/2000/svg" xmlns:xlink="http://www.w3.org/1999/xlink">
    <!-- Generator: Sketch 63.1 (92452) - https://sketch.com -->
    <title>Fill 1</title>
    <desc>Created with Sketch.</desc>
    <g id="Desktop" stroke="none" stroke-width="1" fill="none" fill-rule="evenodd">
        <g id="13-Try-For-Free---Sign-Up" transform="translate(-635.000000, -525.000000)" fill="#FFFFFF">
            <g id="Sign-Up" transform="translate(432.000000, 170.000000)">
                <g id="Siign/Email" transform="translate(153.000000, 338.000000)">
                    <g id="Email">
                        <g id="Group-3" transform="translate(50.000000, 14.000000)">
                            <g id="Group">
                                <path d="M13.9111016,10.8510384 L20.5508144,4.59857664 L20.5508144,17.3739379 L13.9111016,10.8510384 Z M8.3776803,11.5489739 L8.90039572,12.0442038 C9.42409276,12.5683917 10.0871806,12.8560079 10.7703917,12.8560079 L10.7934599,12.8560079 C11.4693089,12.8496273 12.1245437,12.5629927 12.6276266,12.0599098 L13.1959876,11.5244333 L19.8062517,18.0183748 L1.79244762,18.0183748 L8.3776803,11.5489739 Z M11.9439247,11.3555937 C11.6136078,11.6859106 11.2013252,11.8704561 10.7836437,11.8744452 C10.350747,11.8783092 9.94140925,11.6971993 9.5850793,11.3408694 L1.81993313,3.9816252 L19.7738581,3.9816252 L11.9439247,11.3555937 Z M0.981625203,4.54066076 L7.66452959,10.8731249 L0.981625203,17.4382343 L0.981625203,4.54066076 Z M21.5324396,18.5091874 L21.5324396,3.4908126 C21.5324396,3.21988405 21.3130464,3 21.041627,3 L0.490812602,3 C0.219884046,3 0,3.21988405 0,3.4908126 L0,18.5091874 C0,18.7796251 0.219884046,19 0.490812602,19 L21.041627,19 C21.3130464,19 21.5324396,18.7796251 21.5324396,18.5091874 L21.5324396,18.5091874 Z" id="Fill-1"></path>
                            </g>
                        </g>
                    </g>
                </g>
            </g>
        </g>
    </g>
</svg>