<?xml version="1.0" encoding="UTF-8"?>
<svg width="18px" height="16px" viewBox="0 0 18 16" version="1.1" xmlns="http://www.w3.org/2000/svg" xmlns:xlink="http://www.w3.org/1999/xlink">
    <!-- Generator: Sketch 63.1 (92452) - https://sketch.com -->
    <title>Twitter</title>
    <desc>Created with Sketch.</desc>
    <g id="Desktop" stroke="none" stroke-width="1" fill="none" fill-rule="evenodd" opacity="0.5">
        <g id="07-Case-Studies-Inner-Page" transform="translate(-1073.000000, -1734.000000)" fill="#414141">
            <g id="Case-Study" transform="translate(117.000000, 267.000000)">
                <g id="righ-content-copy" transform="translate(906.000000, 668.000000)">
                    <g id="Social-copy" transform="translate(4.000000, 741.000000)">
                        <g id="Links" transform="translate(0.000000, 54.000000)">
                            <path d="M63.57767,6.17763 C62.928623,6.479886 62.230646,6.683844 61.497998,6.775446 C62.245745,6.305628 62.819696,5.56239 63.090239,4.67571 C62.390456,5.110896 61.615829,5.426328 60.790844,5.596572 C60.130541,4.85958 59.189405,4.398258 58.148099,4.398258 C56.1485,4.398258 54.527174,6.097206 54.527174,8.193792 C54.527174,8.490234 54.559094,8.779998 54.620981,9.05745 C51.611681,8.89995 48.943463,7.389336 47.157497,5.093472 C46.846004,5.653524 46.667483,6.305178 46.667483,7.001292 C46.667483,8.317326 47.306576,9.479676 48.278183,10.159248 C47.68466,10.139592 47.126165,9.969132 46.638125,9.68475 C46.637789,9.700842 46.637789,9.71625 46.637789,9.732342 C46.637789,11.571582 47.886029,13.10475 49.542551,13.453932 C49.238618,13.540836 48.918809,13.587078 48.588458,13.587078 C48.354917,13.587078 48.128243,13.562724 47.907134,13.51893 C48.368042,15.02643 49.70528,16.12353 51.289289,16.15458 C50.050247,17.17194 48.489065,17.779368 46.792454,17.779368 C46.500281,17.779368 46.21214,17.760828 45.928829,17.725296 C47.531528,18.802758 49.434569,19.430508 51.479318,19.430508 C58.139615,19.430508 61.781414,13.648512 61.781414,8.633892 C61.781414,8.468796 61.778222,8.3055 61.771187,8.142402 C62.478362,7.607604 63.092633,6.938742 63.57767,6.17763 Z" id="Twitter"></path>
                        </g>
                    </g>
                </g>
            </g>
        </g>
    </g>
</svg>