<?xml version="1.0" encoding="UTF-8"?>
<svg width="19px" height="19px" viewBox="0 0 19 19" version="1.1" xmlns="http://www.w3.org/2000/svg" xmlns:xlink="http://www.w3.org/1999/xlink">
    <!-- Generator: Sketch 63.1 (92452) - https://sketch.com -->
    <title>Combined shape 10903</title>
    <desc>Created with Sketch.</desc>
    <g id="Desktop" stroke="none" stroke-width="1" fill="none" fill-rule="evenodd" opacity="0.5">
        <g id="07-Case-Studies-Inner-Page" transform="translate(-1028.000000, -1732.000000)" fill="#414141">
            <g id="Case-Study" transform="translate(117.000000, 267.000000)">
                <g id="righ-content-copy" transform="translate(906.000000, 668.000000)">
                    <g id="Social-copy" transform="translate(4.000000, 741.000000)">
                        <g id="Links" transform="translate(0.000000, 54.000000)">
                            <path d="M11.0955902,2.74016231 C11.875336,2.5509264 12.682362,2.99346767 12.942972,3.778556 L12.942972,3.778556 L13.488594,5.422528 L15.108387,4.869404 C15.9285,4.590158 16.817031,5.036956 17.093055,5.869106 C17.369184,6.699936 16.9281,7.600902 16.107987,7.880148 L16.107987,7.880148 L14.488173,8.434394 L15.615306,11.829588 L17.278548,11.262604 C18.09864,10.982016 18.987255,11.430156 19.263279,12.261206 C19.53924,13.092916 19.098156,13.993442 18.278127,14.272908 L18.278127,14.272908 L16.61499,14.841454 L17.187051,16.564076 C17.462991,17.395346 17.021991,18.296972 16.201878,18.5769 C15.381849,18.856146 14.493255,18.409128 14.217294,17.578078 L14.217294,17.578078 L13.645149,15.854334 L10.225572,17.02205 L10.804248,18.764318 C11.080188,19.596028 10.639188,20.497456 9.819159,20.777582 C8.998962,21.05707 8.110452,20.60937 7.834491,19.778782 L7.834491,19.778782 L7.255836,18.03493 L5.669076,18.5769 C4.848963,18.856146 3.960369,18.409128 3.684324,17.578078 C3.408384,16.746148 3.849384,15.845622 4.669497,15.564594 L4.669497,15.564594 L6.256257,15.024186 L5.129124,11.62787 L3.498936,12.183898 C2.678823,12.464046 1.790208,12.016588 1.514268,11.185758 L1.514268,11.185758 L1.4748334,11.0466129 C1.28834773,10.2558113 1.7248805,9.43711611 2.499273,9.173176 L2.499273,9.173176 L4.12944,8.616906 L3.590517,6.9928 C3.314409,6.16153 3.755577,5.260344 4.575501,4.979976 C5.395614,4.70073 6.284145,5.147748 6.560253,5.979238 L6.560253,5.979238 L7.099281,7.603124 L10.518858,6.436772 L9.973236,4.792558 C9.697275,3.960628 10.138275,3.060322 10.958388,2.780174 L10.958388,2.780174 Z M11.518437,9.446834 L8.09886,10.61521 L9.225909,14.010646 L12.64557,12.84337 L11.518437,9.446834 Z" id="Combined-shape-10903"></path>
                        </g>
                    </g>
                </g>
            </g>
        </g>
    </g>
</svg>