<?xml version="1.0" encoding="utf-8"?>
<!-- Generator: Adobe Illustrator 16.0.0, SVG Export Plug-In . SVG Version: 6.00 Build 0)  -->
<!DOCTYPE svg PUBLIC "-//W3C//DTD SVG 1.1//EN" "http://www.w3.org/Graphics/SVG/1.1/DTD/svg11.dtd">
<svg version="1.1" id="Layer_1" xmlns="http://www.w3.org/2000/svg" xmlns:xlink="http://www.w3.org/1999/xlink" x="0px" y="0px"
	 width="129.368px" height="124.42px" viewBox="0 0 129.368 124.42" enable-background="new 0 0 129.368 124.42"
	 xml:space="preserve">
<g>
	<g>
		<path fill-rule="evenodd" clip-rule="evenodd" fill="#FFFFFF" d="M42.683,29.572H56.35v-10.2H42.704l-0.021-5.4l-20.233,10.5
			l20.212,10.5L42.683,29.572z M85.338,34.972l20.212-10.5l-20.233-10.5l-0.021,5.4H71.65v10.2h13.667L85.338,34.972z M86.05,53.571
			c-2.888,2.46-9.9,10.5-9.9,10.5s-5.063,1.676-5.7-2.699c-0.745-8.026-2.188-41.404-2.1-44.101c0.089-2.696-5.7-7.2-8.1-0.6
			c-0.6,4.8-1.8,31.8-1.8,31.8l-19.8,8.4c0,0-3.6,1.5-2.7,8.399c0.9,6.9,3,22.8,3,22.8s1.088,6.012,6,6.301
			c1.178,0.068,20.4,0.6,20.4,0.6s6-0.3,8.7-5.1c4.875-6.702,18-32.101,18-32.101S92.212,51.454,86.05,53.571z"/>
	</g>
</g>
<g>
	<path fill="#FFFFFF" d="M19.629,109.739c0,0.328,0.056,0.608,0.168,0.841c0.112,0.231,0.268,0.422,0.468,0.569
		c0.2,0.148,0.43,0.257,0.69,0.324c0.26,0.068,0.542,0.103,0.846,0.103c0.328,0,0.608-0.038,0.84-0.114
		c0.232-0.076,0.42-0.174,0.564-0.294s0.248-0.258,0.312-0.414c0.064-0.156,0.096-0.314,0.096-0.475
		c0-0.327-0.074-0.569-0.222-0.726c-0.148-0.156-0.311-0.266-0.486-0.33c-0.304-0.112-0.658-0.218-1.062-0.318
		c-0.404-0.1-0.902-0.229-1.494-0.39c-0.368-0.096-0.674-0.222-0.918-0.378c-0.244-0.156-0.438-0.33-0.582-0.522
		c-0.144-0.191-0.246-0.396-0.306-0.611s-0.09-0.437-0.09-0.66c0-0.432,0.09-0.806,0.27-1.122c0.18-0.315,0.417-0.578,0.714-0.786
		c0.296-0.208,0.632-0.361,1.008-0.462c0.376-0.1,0.756-0.15,1.14-0.15c0.448,0,0.87,0.059,1.266,0.175
		c0.396,0.115,0.744,0.29,1.044,0.521c0.3,0.232,0.538,0.519,0.714,0.858c0.176,0.34,0.264,0.733,0.264,1.182h-1.5
		c-0.04-0.552-0.228-0.941-0.564-1.17c-0.336-0.228-0.764-0.342-1.284-0.342c-0.176,0-0.356,0.018-0.54,0.054
		s-0.352,0.096-0.504,0.18c-0.152,0.084-0.278,0.198-0.378,0.343c-0.1,0.144-0.15,0.323-0.15,0.54c0,0.304,0.094,0.542,0.282,0.714
		s0.434,0.302,0.738,0.39c0.032,0.008,0.158,0.042,0.378,0.103c0.22,0.06,0.466,0.126,0.738,0.197
		c0.272,0.072,0.538,0.143,0.798,0.21c0.26,0.068,0.446,0.118,0.558,0.15c0.28,0.088,0.524,0.208,0.732,0.36
		c0.208,0.151,0.382,0.325,0.522,0.521c0.14,0.196,0.244,0.406,0.312,0.63c0.068,0.225,0.102,0.448,0.102,0.672
		c0,0.48-0.098,0.891-0.294,1.23c-0.196,0.34-0.454,0.618-0.774,0.834c-0.32,0.216-0.684,0.374-1.092,0.474
		c-0.408,0.101-0.824,0.15-1.248,0.15c-0.488,0-0.948-0.061-1.38-0.18c-0.432-0.12-0.808-0.305-1.128-0.553
		c-0.32-0.247-0.576-0.565-0.768-0.954c-0.192-0.388-0.292-0.846-0.3-1.374H19.629z"/>
	<path fill="#FFFFFF" d="M25.581,104.027h1.524l1.548,6.553h0.024l1.728-6.553h1.536l1.68,6.553h0.024l1.596-6.553h1.524
		l-2.364,8.568h-1.524l-1.716-6.552h-0.024l-1.752,6.552h-1.548L25.581,104.027z"/>
	<path fill="#FFFFFF" d="M37.749,104.027h1.5v8.568h-1.5V104.027z"/>
	<path fill="#FFFFFF" d="M41.084,104.027h3.78c0.608,0,1.104,0.089,1.488,0.265c0.384,0.176,0.68,0.396,0.888,0.66
		c0.208,0.264,0.35,0.552,0.426,0.863c0.076,0.312,0.114,0.601,0.114,0.864s-0.038,0.55-0.114,0.858
		c-0.076,0.308-0.218,0.594-0.426,0.857c-0.208,0.265-0.504,0.482-0.888,0.654c-0.384,0.172-0.88,0.258-1.488,0.258h-2.28v3.288
		h-1.5V104.027z M42.584,108.084h2.196c0.168,0,0.34-0.024,0.516-0.072c0.176-0.048,0.338-0.126,0.486-0.234
		c0.148-0.107,0.268-0.252,0.36-0.432c0.092-0.18,0.138-0.406,0.138-0.678c0-0.28-0.04-0.512-0.12-0.696
		c-0.08-0.184-0.188-0.33-0.324-0.438c-0.136-0.108-0.292-0.183-0.468-0.223c-0.176-0.04-0.364-0.06-0.564-0.06h-2.22V108.084z"/>
	<path fill="#FFFFFF" d="M49.088,104.027h6.168v1.296h-4.668v2.244h4.32v1.225h-4.32v2.508h4.752v1.296h-6.252V104.027z"/>
	<path fill="#FFFFFF" d="M59.168,104.027h6.936v1.296H63.38v7.272h-1.5v-7.272h-2.712V104.027z"/>
	<path fill="#FFFFFF" d="M70.748,103.823c0.64,0,1.214,0.12,1.722,0.36c0.508,0.24,0.938,0.564,1.29,0.972
		c0.352,0.408,0.622,0.885,0.81,1.429s0.282,1.12,0.282,1.728c0,0.616-0.094,1.196-0.282,1.74s-0.458,1.02-0.81,1.428
		s-0.782,0.73-1.29,0.966c-0.508,0.236-1.083,0.354-1.722,0.354c-0.64,0-1.214-0.118-1.722-0.354
		c-0.508-0.235-0.938-0.558-1.29-0.966s-0.622-0.884-0.81-1.428s-0.282-1.124-0.282-1.74c0-0.607,0.094-1.184,0.282-1.728
		s0.458-1.021,0.81-1.429c0.352-0.407,0.782-0.731,1.29-0.972S70.108,103.823,70.748,103.823z M70.748,105.048
		c-0.456,0-0.85,0.092-1.182,0.275c-0.332,0.185-0.602,0.431-0.81,0.738c-0.208,0.309-0.362,0.658-0.462,1.05
		c-0.1,0.393-0.15,0.792-0.15,1.2s0.05,0.809,0.15,1.2s0.254,0.742,0.462,1.05c0.208,0.309,0.478,0.555,0.81,0.738
		s0.726,0.276,1.182,0.276s0.85-0.093,1.182-0.276c0.332-0.184,0.602-0.43,0.81-0.738c0.208-0.308,0.362-0.658,0.462-1.05
		c0.1-0.392,0.15-0.792,0.15-1.2s-0.05-0.808-0.15-1.2c-0.1-0.392-0.254-0.741-0.462-1.05c-0.208-0.308-0.478-0.554-0.81-0.738
		C71.598,105.14,71.204,105.048,70.748,105.048z"/>
	<path fill="#FFFFFF" d="M78.584,104.027h1.56l2.148,6.78h0.024l2.196-6.78h1.524l-2.928,8.568H81.44L78.584,104.027z"/>
	<path fill="#FFFFFF" d="M86.888,104.027h1.5v8.568h-1.5V104.027z"/>
	<path fill="#FFFFFF" d="M90.224,104.027h6.168v1.296h-4.668v2.244h4.32v1.225h-4.32v2.508h4.752v1.296h-6.252V104.027z"/>
	<path fill="#FFFFFF" d="M96.944,104.027h1.524l1.548,6.553h0.024l1.728-6.553h1.536l1.68,6.553h0.024l1.596-6.553h1.524
		l-2.364,8.568h-1.524l-1.716-6.552H102.5l-1.752,6.552H99.2L96.944,104.027z"/>
</g>
</svg>
